STARTFONT 2.1
FONT -HP-Gothic-Bold-R-Normal--16-116-100-100-C-160-JISX0212.1990-0
SIZE 11 100 100
FONTBOUNDINGBOX 16 16 0 -2

STARTPROPERTIES 23
FONTNAME_REGISTRY ""
FOUNDRY "HP"
FAMILY_NAME "Gothic"
WEIGHT_NAME "Bold"
SLANT "R"
SETWIDTH_NAME "Normal"
ADD_STYLE_NAME ""
PIXEL_SIZE 16
POINT_SIZE 116
RESOLUTION_X 100
RESOLUTION_Y 100
SPACING "C"
AVERAGE_WIDTH 160
CHARSET_REGISTRY "JISX0212.1990"
CHARSET_ENCODING "0"
COPYRIGHT "Copyright (c) 1994 Hewlett-Packard Company. Copyright 1994 by Bridge Inc."
_HP_ASXVERSION "@(#) ASX 3.00 $Revision: 13.9 $ gotBX16s"
WEIGHT 10
X_HEIGHT 14
QUAD_WIDTH 16
DEFAULT_CHAR 8481
FONT_DESCENT 2
FONT_ASCENT 14
ENDPROPERTIES

CHARS 6068

STARTCHAR jisx0212_2121
ENCODING 8481
SWIDTH 960 0
DWIDTH 16 0
BBX 16 16 0 -2
BITMAP
0000
0000
3006
0000
0000
0000
0000
0000
0000
0000
0000
0000
0000
3006
0000
0000
ENDCHAR

STARTCHAR jisx0212_222F
ENCODING 8751
SWIDTH 960 0
DWIDTH 16 0
BBX 16 16 0 -2
BITMAP
0C18
0630
03E0
0000
0000
0000
0000
0000
0000
0000
0000
0000
0000
0000
0000
0000
ENDCHAR

STARTCHAR jisx0212_2230
ENCODING 8752
SWIDTH 960 0
DWIDTH 16 0
BBX 16 16 0 -2
BITMAP
0630
0360
01C0
0000
0000
0000
0000
0000
0000
0000
0000
0000
0000
0000
0000
0000
ENDCHAR

STARTCHAR jisx0212_2231
ENCODING 8753
SWIDTH 960 0
DWIDTH 16 0
BBX 16 16 0 -2
BITMAP
0000
0000
0000
0000
0000
0000
0000
0000
0000
0000
0000
00C0
0180
01C0
0660
03C0
ENDCHAR

STARTCHAR jisx0212_2232
ENCODING 8754
SWIDTH 960 0
DWIDTH 16 0
BBX 16 16 0 -2
BITMAP
01C0
03E0
01C0
0000
0000
0000
0000
0000
0000
0000
0000
0000
0000
0000
0000
0000
ENDCHAR

STARTCHAR jisx0212_2233
ENCODING 8755
SWIDTH 960 0
DWIDTH 16 0
BBX 16 16 0 -2
BITMAP
0330
0660
0660
0CC0
0000
0000
0000
0000
0000
0000
0000
0000
0000
0000
0000
0000
ENDCHAR

STARTCHAR jisx0212_2234
ENCODING 8756
SWIDTH 960 0
DWIDTH 16 0
BBX 16 16 0 -2
BITMAP
0FF8
0000
0000
0000
0000
0000
0000
0000
0000
0000
0000
0000
0000
0000
0000
0000
ENDCHAR

STARTCHAR jisx0212_2235
ENCODING 8757
SWIDTH 960 0
DWIDTH 16 0
BBX 16 16 0 -2
BITMAP
0000
0000
0000
0000
0000
0000
0000
0000
0000
0000
0000
0018
0030
0060
0060
003C
ENDCHAR

STARTCHAR jisx0212_2236
ENCODING 8758
SWIDTH 960 0
DWIDTH 16 0
BBX 16 16 0 -2
BITMAP
01C0
0360
0360
01C0
0000
0000
0000
0000
0000
0000
0000
0000
0000
0000
0000
0000
ENDCHAR

STARTCHAR jisx0212_2237
ENCODING 8759
SWIDTH 960 0
DWIDTH 16 0
BBX 16 16 0 -2
BITMAP
0798
0CF0
0000
0000
0000
0000
0000
0000
0000
0000
0000
0000
0000
0000
0000
0000
ENDCHAR

STARTCHAR jisx0212_2238
ENCODING 8760
SWIDTH 960 0
DWIDTH 16 0
BBX 16 16 0 -2
BITMAP
0180
0180
0180
0180
0180
0180
0000
0000
0000
0000
0000
0000
0000
0000
0000
0000
ENDCHAR

STARTCHAR jisx0212_2239
ENCODING 8761
SWIDTH 960 0
DWIDTH 16 0
BBX 16 16 0 -2
BITMAP
0180
0180
0180
0180
0180
0E70
0E70
0000
0000
0000
0000
0000
0000
0000
0000
0000
ENDCHAR

STARTCHAR jisx0212_2242
ENCODING 8770
SWIDTH 960 0
DWIDTH 16 0
BBX 16 16 0 -2
BITMAP
0000
01C0
01C0
0000
0000
0180
0180
0180
0180
0180
0180
0180
0180
0180
0180
0000
ENDCHAR

STARTCHAR jisx0212_2243
ENCODING 8771
SWIDTH 960 0
DWIDTH 16 0
BBX 16 16 0 -2
BITMAP
0180
0180
0180
0180
0180
0180
0180
0000
0000
0180
0180
0180
0180
0180
0180
0180
ENDCHAR

STARTCHAR jisx0212_2244
ENCODING 8772
SWIDTH 960 0
DWIDTH 16 0
BBX 16 16 0 -2
BITMAP
0000
01C0
01C0
0000
0000
00C0
00C0
00C0
0180
0300
0618
0C18
0C18
0630
03E0
0000
ENDCHAR

STARTCHAR jisx0212_226B
ENCODING 8811
SWIDTH 960 0
DWIDTH 16 0
BBX 16 16 0 -2
BITMAP
0000
1E00
3300
6180
6180
6180
6180
3300
1E00
0000
FFC0
0000
0000
0000
0000
0000
ENDCHAR

STARTCHAR jisx0212_226C
ENCODING 8812
SWIDTH 960 0
DWIDTH 16 0
BBX 16 16 0 -2
BITMAP
0000
3F00
6180
0180
1F80
3180
6180
6380
3D80
0000
FFC0
0000
0000
0000
0000
0000
ENDCHAR

STARTCHAR jisx0212_226D
ENCODING 8813
SWIDTH 960 0
DWIDTH 16 0
BBX 16 16 0 -2
BITMAP
07F0
1C1C
3006
63E3
6633
CC19
CC01
CC01
CC01
CC01
CC19
6633
63E3
3006
1C1C
07F0
ENDCHAR

STARTCHAR jisx0212_226E
ENCODING 8814
SWIDTH 960 0
DWIDTH 16 0
BBX 16 16 0 -2
BITMAP
07F0
1C1C
3006
67F3
661B
C619
C619
C7F1
C661
C631
C631
661B
661B
3006
1C1C
07F0
ENDCHAR

STARTCHAR jisx0212_226F
ENCODING 8815
SWIDTH 960 0
DWIDTH 16 0
BBX 16 16 0 -2
BITMAP
FB0C
339C
339C
32AC
32AC
336C
336C
0000
0000
0000
0000
0000
0000
0000
0000
0000
ENDCHAR

STARTCHAR jisx0212_2270
ENCODING 8816
SWIDTH 960 0
DWIDTH 16 0
BBX 16 16 0 -2
BITMAP
0000
0000
3006
1BEC
0E38
0C18
180C
180C
180C
180C
0C18
0E38
1BEC
3006
0000
0000
ENDCHAR

STARTCHAR jisx0212_2271
ENCODING 8817
SWIDTH 960 0
DWIDTH 16 0
BBX 16 16 0 -2
BITMAP
0000
60CE
70DB
70B1
58B1
58B1
6CB1
6CDB
66CE
66C0
62C0
62C0
61C0
61C0
60C0
0000
ENDCHAR

STARTCHAR jisx0212_2661
ENCODING 9825
SWIDTH 960 0
DWIDTH 16 0
BBX 16 16 0 -2
BITMAP
1800
19C0
19C0
19C0
1B60
0360
0630
0630
0C18
0C18
0C18
1FFC
180C
3006
3006
0000
ENDCHAR

STARTCHAR jisx0212_2662
ENCODING 9826
SWIDTH 960 0
DWIDTH 16 0
BBX 16 16 0 -2
BITMAP
6000
67FF
6600
6600
6600
0600
0600
07FE
0600
0600
0600
0600
0600
0600
07FF
0000
ENDCHAR

STARTCHAR jisx0212_2663
ENCODING 9827
SWIDTH 960 0
DWIDTH 16 0
BBX 16 16 0 -2
BITMAP
6000
6603
6603
6603
6603
0603
0603
07FF
0603
0603
0603
0603
0603
0603
0603
0000
ENDCHAR

STARTCHAR jisx0212_2664
ENCODING 9828
SWIDTH 960 0
DWIDTH 16 0
BBX 16 16 0 -2
BITMAP
0600
0660
0660
0660
0660
0060
0060
0060
0060
0060
0060
0060
0060
0060
0060
0000
ENDCHAR

STARTCHAR jisx0212_2665
ENCODING 9829
SWIDTH 960 0
DWIDTH 16 0
BBX 16 16 0 -2
BITMAP
0EE0
0EE0
0000
0180
0180
0180
0180
0180
0180
0180
0180
0180
0180
0180
0180
0000
ENDCHAR

STARTCHAR jisx0212_2667
ENCODING 9831
SWIDTH 960 0
DWIDTH 16 0
BBX 16 16 0 -2
BITMAP
6000
61F0
671C
6C06
6C06
1803
1803
1803
1803
1803
1803
0C06
0C06
071C
01F0
0000
ENDCHAR

STARTCHAR jisx0212_2669
ENCODING 9833
SWIDTH 960 0
DWIDTH 16 0
BBX 16 16 0 -2
BITMAP
6000
679E
6CB3
5861
5861
0060
0060
0060
0060
0060
0060
0060
0060
0060
0060
0000
ENDCHAR

STARTCHAR jisx0212_266A
ENCODING 9834
SWIDTH 960 0
DWIDTH 16 0
BBX 16 16 0 -2
BITMAP
0E70
0E70
0000
1E78
32CC
6186
6186
0180
0180
0180
0180
0180
0180
0180
0180
0000
ENDCHAR

STARTCHAR jisx0212_266C
ENCODING 9836
SWIDTH 960 0
DWIDTH 16 0
BBX 16 16 0 -2
BITMAP
6000
61F0
671C
6C06
6C06
1803
1803
1803
1803
0C06
0C06
060C
0318
01B0
1FBF
0000
ENDCHAR

STARTCHAR jisx0212_2671
ENCODING 9841
SWIDTH 960 0
DWIDTH 16 0
BBX 16 16 0 -2
BITMAP
0180
0180
0180
0180
0000
03CC
066C
0C2C
0C2C
1838
1838
1830
1870
0CB6
079C
0000
ENDCHAR

STARTCHAR jisx0212_2672
ENCODING 9842
SWIDTH 960 0
DWIDTH 16 0
BBX 16 16 0 -2
BITMAP
0180
0180
0180
0180
0000
03F0
0618
0600
0600
07E0
0C00
1800
1818
1830
0FE0
0000
ENDCHAR

STARTCHAR jisx0212_2673
ENCODING 9843
SWIDTH 960 0
DWIDTH 16 0
BBX 16 16 0 -2
BITMAP
0180
0180
0180
0180
0000
0EF8
1B8C
030C
030C
060C
0618
0618
0C18
0C30
0030
0030
ENDCHAR

STARTCHAR jisx0212_2674
ENCODING 9844
SWIDTH 960 0
DWIDTH 16 0
BBX 16 16 0 -2
BITMAP
0180
0180
0180
0180
0000
0180
0180
0180
0300
0300
0300
0600
0660
06C0
0380
0000
ENDCHAR

STARTCHAR jisx0212_2675
ENCODING 9845
SWIDTH 960 0
DWIDTH 16 0
BBX 16 16 0 -2
BITMAP
0000
0770
0770
0000
0000
0180
0180
0180
0300
0300
0300
0600
0660
06C0
0380
0000
ENDCHAR

STARTCHAR jisx0212_2676
ENCODING 9846
SWIDTH 960 0
DWIDTH 16 0
BBX 16 16 0 -2
BITMAP
0180
0180
0180
0E70
0E70
0180
0180
0180
0300
0300
0300
0600
0660
06C0
0380
0000
ENDCHAR

STARTCHAR jisx0212_2677
ENCODING 9847
SWIDTH 960 0
DWIDTH 16 0
BBX 16 16 0 -2
BITMAP
0180
0180
0180
0180
0000
03F0
0618
0C0C
0C0C
180C
180C
1818
1818
0C30
07E0
0000
ENDCHAR

STARTCHAR jisx0212_2678
ENCODING 9848
SWIDTH 960 0
DWIDTH 16 0
BBX 16 16 0 -2
BITMAP
0000
0000
0000
0000
0000
03F0
0618
0C0C
0C0C
0C18
0600
0300
0180
00C0
0CC0
0780
ENDCHAR

STARTCHAR jisx0212_2679
ENCODING 9849
SWIDTH 960 0
DWIDTH 16 0
BBX 16 16 0 -2
BITMAP
0180
0180
0180
0180
0000
0C30
0C18
0C18
0C18
0C18
1818
1830
1830
1860
0FC0
0000
ENDCHAR

STARTCHAR jisx0212_267A
ENCODING 9850
SWIDTH 960 0
DWIDTH 16 0
BBX 16 16 0 -2
BITMAP
0000
0770
0770
0000
0000
0C30
0C18
0C18
0C18
0C18
1818
1830
1830
1860
0FC0
0000
ENDCHAR

STARTCHAR jisx0212_267B
ENCODING 9851
SWIDTH 960 0
DWIDTH 16 0
BBX 16 16 0 -2
BITMAP
0180
0180
0180
0E70
0E70
0000
0C30
0C18
0C18
0C18
1818
1830
1830
1860
0FC0
0000
ENDCHAR

STARTCHAR jisx0212_267C
ENCODING 9852
SWIDTH 960 0
DWIDTH 16 0
BBX 16 16 0 -2
BITMAP
00C0
00C0
00C0
00C0
0000
0318
060C
0C06
18C6
18C6
30C6
3186
318C
3398
1EF0
0000
ENDCHAR

STARTCHAR jisx0212_2742
ENCODING 10050
SWIDTH 960 0
DWIDTH 16 0
BBX 16 16 0 -2
BITMAP
0000
7FF8
0300
0300
0300
037C
02C6
0383
0303
0303
0303
0303
0333
0336
031C
0000
ENDCHAR

STARTCHAR jisx0212_2743
ENCODING 10051
SWIDTH 960 0
DWIDTH 16 0
BBX 16 16 0 -2
BITMAP
00E0
0380
0000
0FFC
0C00
0C00
0C00
0C00
0C00
0C00
0C00
0C00
0C00
0C00
0C00
0000
ENDCHAR

STARTCHAR jisx0212_2744
ENCODING 10052
SWIDTH 960 0
DWIDTH 16 0
BBX 16 16 0 -2
BITMAP
0000
03E0
0E38
180C
180C
3006
3000
3FF0
3000
3000
3006
180C
180C
0E38
03E0
0000
ENDCHAR

STARTCHAR jisx0212_2745
ENCODING 10053
SWIDTH 960 0
DWIDTH 16 0
BBX 16 16 0 -2
BITMAP
0000
07F0
0C18
180C
180C
1800
0E00
03C0
0078
000C
0006
1806
1806
0C0C
07F8
0000
ENDCHAR

STARTCHAR jisx0212_2746
ENCODING 10054
SWIDTH 960 0
DWIDTH 16 0
BBX 16 16 0 -2
BITMAP
0000
0180
0180
0180
0180
0180
0180
0180
0180
0180
0180
0180
0180
0180
0180
0000
ENDCHAR

STARTCHAR jisx0212_2747
ENCODING 10055
SWIDTH 960 0
DWIDTH 16 0
BBX 16 16 0 -2
BITMAP
0EE0
0EE0
0000
0180
0180
0180
0180
0180
0180
0180
0180
0180
0180
0180
0180
0000
ENDCHAR

STARTCHAR jisx0212_2748
ENCODING 10056
SWIDTH 960 0
DWIDTH 16 0
BBX 16 16 0 -2
BITMAP
0000
0030
0030
0030
0030
0030
0030
0030
0030
0030
0030
1830
1830
0C60
07C0
0000
ENDCHAR

STARTCHAR jisx0212_2749
ENCODING 10057
SWIDTH 960 0
DWIDTH 16 0
BBX 16 16 0 -2
BITMAP
0000
0660
0660
0660
0660
0660
0660
067E
0663
0661
0661
0661
C661
C663
7C7E
0000
ENDCHAR

STARTCHAR jisx0212_274A
ENCODING 10058
SWIDTH 960 0
DWIDTH 16 0
BBX 16 16 0 -2
BITMAP
0000
60C0
60C0
60C0
60C0
60C0
60C0
7FFE
60C3
60C1
60C1
60C1
60C1
60C3
60FE
0000
ENDCHAR

STARTCHAR jisx0212_274B
ENCODING 10059
SWIDTH 960 0
DWIDTH 16 0
BBX 16 16 0 -2
BITMAP
0000
7FF8
0300
0300
0300
02FC
0386
0306
0306
0306
0306
0306
0306
0306
0306
0000
ENDCHAR

STARTCHAR jisx0212_274C
ENCODING 10060
SWIDTH 960 0
DWIDTH 16 0
BBX 16 16 0 -2
BITMAP
01C0
1718
1830
1860
18C0
1980
1F00
1980
18C0
18C0
1860
1830
1830
1818
180C
0000
ENDCHAR

STARTCHAR jisx0212_274D
ENCODING 10061
SWIDTH 960 0
DWIDTH 16 0
BBX 16 16 0 -2
BITMAP
0660
33CC
1818
1818
0C30
0C30
0660
0660
02C0
02C0
0180
0180
0300
0300
1E00
0000
ENDCHAR

STARTCHAR jisx0212_274E
ENCODING 10062
SWIDTH 960 0
DWIDTH 16 0
BBX 16 16 0 -2
BITMAP
0000
300C
300C
300C
300C
300C
300C
300C
300C
300C
300C
300C
300C
3FFC
0180
0180
ENDCHAR

STARTCHAR jisx0212_2772
ENCODING 10098
SWIDTH 960 0
DWIDTH 16 0
BBX 16 16 0 -2
BITMAP
0000
0C00
0C00
3F00
0C00
0BF0
0E18
0C18
0C18
0C18
0C18
0C18
0C18
0C18
0C18
00F0
ENDCHAR

STARTCHAR jisx0212_2773
ENCODING 10099
SWIDTH 960 0
DWIDTH 16 0
BBX 16 16 0 -2
BITMAP
0000
0070
01C0
0000
0000
07F8
0600
0600
0600
0600
0600
0600
0600
0600
0600
0000
ENDCHAR

STARTCHAR jisx0212_2774
ENCODING 10100
SWIDTH 960 0
DWIDTH 16 0
BBX 16 16 0 -2
BITMAP
0000
0000
0000
0000
0000
03F0
0618
0C0C
0C00
0FF0
0C00
0C00
0C0C
0618
03F0
0000
ENDCHAR

STARTCHAR jisx0212_2775
ENCODING 10101
SWIDTH 960 0
DWIDTH 16 0
BBX 16 16 0 -2
BITMAP
0000
0000
0000
0000
0000
07F0
0C18
0C18
0C00
0780
00F0
0018
0C18
0C18
07F0
0000
ENDCHAR

STARTCHAR jisx0212_2776
ENCODING 10102
SWIDTH 960 0
DWIDTH 16 0
BBX 16 16 0 -2
BITMAP
0000
0380
0380
0000
0000
0180
0180
0180
0180
0180
0180
0180
0180
0180
0180
0000
ENDCHAR

STARTCHAR jisx0212_2777
ENCODING 10103
SWIDTH 960 0
DWIDTH 16 0
BBX 16 16 0 -2
BITMAP
0000
0EE0
0EE0
0000
0000
0180
0180
0180
0180
0180
0180
0180
0180
0180
0180
0000
ENDCHAR

STARTCHAR jisx0212_2778
ENCODING 10104
SWIDTH 960 0
DWIDTH 16 0
BBX 16 16 0 -2
BITMAP
0000
01C0
01C0
0000
0000
00C0
00C0
00C0
00C0
00C0
00C0
00C0
00C0
00C0
00C0
0780
ENDCHAR

STARTCHAR jisx0212_2779
ENCODING 10105
SWIDTH 960 0
DWIDTH 16 0
BBX 16 16 0 -2
BITMAP
0000
0000
0000
0000
0000
06C0
06C0
06C0
06C0
06FE
06C3
06C3
66C3
66C3
3CFE
0000
ENDCHAR

STARTCHAR jisx0212_277A
ENCODING 10106
SWIDTH 960 0
DWIDTH 16 0
BBX 16 16 0 -2
BITMAP
0000
0000
0000
0000
0000
30C0
30C0
30C0
30C0
3FFE
30C3
30C3
30C3
30C3
30FE
0000
ENDCHAR

STARTCHAR jisx0212_277B
ENCODING 10107
SWIDTH 960 0
DWIDTH 16 0
BBX 16 16 0 -2
BITMAP
0000
0C00
0C00
3FC0
0C00
0BF0
0E18
0C18
0C18
0C18
0C18
0C18
0C18
0C18
0C18
0000
ENDCHAR

STARTCHAR jisx0212_277C
ENCODING 10108
SWIDTH 960 0
DWIDTH 16 0
BBX 16 16 0 -2
BITMAP
0000
00E0
0380
0000
0000
0C38
0C60
0C60
0C60
0FC0
0C60
0C30
0C30
0C18
0C18
0000
ENDCHAR

STARTCHAR jisx0212_277D
ENCODING 10109
SWIDTH 960 0
DWIDTH 16 0
BBX 16 16 0 -2
BITMAP
0000
0660
03C0
0000
0000
0C18
0C18
0630
0630
0360
0360
01C0
01C0
0180
0180
0F00
ENDCHAR

STARTCHAR jisx0212_277E
ENCODING 10110
SWIDTH 960 0
DWIDTH 16 0
BBX 16 16 0 -2
BITMAP
0000
0000
0000
0000
0000
0C30
0C30
0C30
0C30
0C30
0C30
0C30
0C30
0FF0
0180
0180
ENDCHAR

STARTCHAR jisx0212_2921
ENCODING 10529
SWIDTH 960 0
DWIDTH 16 0
BBX 16 16 0 -2
BITMAP
0000
03FF
02C0
06C0
06C0
0CC0
0CC0
18FF
18C0
3FC0
30C0
60C0
60C0
C0C0
C0FF
0000
ENDCHAR

STARTCHAR jisx0212_2922
ENCODING 10530
SWIDTH 960 0
DWIDTH 16 0
BBX 16 16 0 -2
BITMAP
0000
1FE0
1838
180C
180C
1806
1806
FF06
1806
1806
1806
180C
180C
1838
1FE0
0000
ENDCHAR

STARTCHAR jisx0212_2924
ENCODING 10532
SWIDTH 960 0
DWIDTH 16 0
BBX 16 16 0 -2
BITMAP
0000
180C
180C
FFFF
180C
180C
180C
1FFC
180C
180C
180C
180C
180C
180C
180C
0000
ENDCHAR

STARTCHAR jisx0212_2926
ENCODING 10534
SWIDTH 960 0
DWIDTH 16 0
BBX 16 16 0 -2
BITMAP
0000
180C
180C
180C
180C
180C
180C
180C
180C
180C
180C
1B0C
1B0C
1998
18F0
0000
ENDCHAR

STARTCHAR jisx0212_2928
ENCODING 10536
SWIDTH 960 0
DWIDTH 16 0
BBX 16 16 0 -2
BITMAP
0000
0C00
0C00
0C00
0D80
0B00
0E00
0C00
1C00
2C00
6C00
0C00
0C00
0C00
0FFE
0000
ENDCHAR

STARTCHAR jisx0212_2929
ENCODING 10537
SWIDTH 960 0
DWIDTH 16 0
BBX 16 16 0 -2
BITMAP
0000
0C00
0C00
0C00
0C00
0C00
0C00
0DC0
0DC0
0C00
0C00
0C00
0C00
0C00
0FFE
0000
ENDCHAR

STARTCHAR jisx0212_292B
ENCODING 10539
SWIDTH 960 0
DWIDTH 16 0
BBX 16 16 0 -2
BITMAP
0000
0DF0
0B18
0E0C
0C0C
0C0C
0C0C
0C0C
0C0C
0C0C
0C0C
0C0C
0D8C
0D98
0CF0
0000
ENDCHAR

STARTCHAR jisx0212_292C
ENCODING 10540
SWIDTH 960 0
DWIDTH 16 0
BBX 16 16 0 -2
BITMAP
0000
03E3
0E36
180C
181C
3036
3066
30C6
3186
3306
3606
1C0C
180C
2E38
63E0
0000
ENDCHAR

STARTCHAR jisx0212_292D
ENCODING 10541
SWIDTH 960 0
DWIDTH 16 0
BBX 16 16 0 -2
BITMAP
0000
0FFF
38C0
60C0
60C0
C0C0
C0C0
C0FF
C0C0
C0C0
C0C0
60C0
60C0
38C0
0FFF
0000
ENDCHAR

STARTCHAR jisx0212_292F
ENCODING 10543
SWIDTH 960 0
DWIDTH 16 0
BBX 16 16 0 -2
BITMAP
0000
3FFC
0180
0180
0180
0180
0180
0FF0
0180
0180
0180
0180
0180
0180
0180
0000
ENDCHAR

STARTCHAR jisx0212_2930
ENCODING 10544
SWIDTH 960 0
DWIDTH 16 0
BBX 16 16 0 -2
BITMAP
0000
0C00
0C00
0C00
0FF0
0C18
0C0C
0C0C
0C0C
0C18
0FF0
0C00
0C00
0C00
0C00
0000
ENDCHAR

STARTCHAR jisx0212_2941
ENCODING 10561
SWIDTH 960 0
DWIDTH 16 0
BBX 16 16 0 -2
BITMAP
0000
0000
0000
0000
0000
1E7C
32C6
6183
0183
0FFF
3980
6180
6183
62C6
3E7C
0000
ENDCHAR

STARTCHAR jisx0212_2942
ENCODING 10562
SWIDTH 960 0
DWIDTH 16 0
BBX 16 16 0 -2
BITMAP
0000
0018
0018
01FE
0018
03D8
0638
0C18
0C18
0C18
0C18
0C18
0C18
0638
03D8
0000
ENDCHAR

STARTCHAR jisx0212_2943
ENCODING 10563
SWIDTH 960 0
DWIDTH 16 0
BBX 16 16 0 -2
BITMAP
0000
0F70
01C0
06C0
0060
03F0
0630
0C18
0C18
0C18
0C18
0C18
0C18
0630
03E0
0000
ENDCHAR

STARTCHAR jisx0212_2944
ENCODING 10564
SWIDTH 960 0
DWIDTH 16 0
BBX 16 16 0 -2
BITMAP
0000
0C00
0C00
3FE0
0C00
0BF0
0E18
0C18
0C18
0C18
0C18
0C18
0C18
0C18
0C18
0000
ENDCHAR

STARTCHAR jisx0212_2945
ENCODING 10565
SWIDTH 960 0
DWIDTH 16 0
BBX 16 16 0 -2
BITMAP
0000
0000
0000
0000
0000
0180
0180
0180
0180
0180
0180
0180
0180
0180
0180
0000
ENDCHAR

STARTCHAR jisx0212_2946
ENCODING 10566
SWIDTH 960 0
DWIDTH 16 0
BBX 16 16 0 -2
BITMAP
0000
0E38
0E38
0000
0000
0618
0618
0618
0618
0618
0618
0618
0618
0618
0618
00F0
ENDCHAR

STARTCHAR jisx0212_2947
ENCODING 10567
SWIDTH 960 0
DWIDTH 16 0
BBX 16 16 0 -2
BITMAP
0000
0000
0000
0000
0000
0618
0630
0660
06C0
0580
06C0
0660
0630
0618
060C
0000
ENDCHAR

STARTCHAR jisx0212_2948
ENCODING 10568
SWIDTH 960 0
DWIDTH 16 0
BBX 16 16 0 -2
BITMAP
0000
0180
0180
0180
0180
01B0
0160
01C0
0180
0380
0580
0D80
0180
0180
01E0
0000
ENDCHAR

STARTCHAR jisx0212_2949
ENCODING 10569
SWIDTH 960 0
DWIDTH 16 0
BBX 16 16 0 -2
BITMAP
0000
0300
0300
0300
0300
0300
0300
0370
0370
0300
0300
0300
0300
0300
03C0
0000
ENDCHAR

STARTCHAR jisx0212_294A
ENCODING 10570
SWIDTH 960 0
DWIDTH 16 0
BBX 16 16 0 -2
BITMAP
0000
0000
0000
0000
3000
32FC
3386
3306
3306
0306
0306
0306
0306
0306
0306
0000
ENDCHAR

STARTCHAR jisx0212_294B
ENCODING 10571
SWIDTH 960 0
DWIDTH 16 0
BBX 16 16 0 -2
BITMAP
0000
0000
0000
0000
0000
0BF0
0E18
0C18
0C18
0C18
0C18
0C18
0C18
0C18
0C18
00F0
ENDCHAR

STARTCHAR jisx0212_294C
ENCODING 10572
SWIDTH 960 0
DWIDTH 16 0
BBX 16 16 0 -2
BITMAP
0000
0000
0000
0000
0000
07D8
0C30
1858
18D8
1998
1998
1B18
1618
0C30
17E0
0000
ENDCHAR

STARTCHAR jisx0212_294D
ENCODING 10573
SWIDTH 960 0
DWIDTH 16 0
BBX 16 16 0 -2
BITMAP
0000
0000
0000
0000
0000
1F3C
3166
60C3
60C3
60FF
60C0
60C0
60C3
3166
1F3C
0000
ENDCHAR

STARTCHAR jisx0212_294E
ENCODING 10574
SWIDTH 960 0
DWIDTH 16 0
BBX 16 16 0 -2
BITMAP
0000
03E0
0630
0C18
0C18
0C18
0C30
0DE0
0C30
0C18
0C0C
0C0C
0B0C
0B18
0DF0
0000
ENDCHAR

STARTCHAR jisx0212_294F
ENCODING 10575
SWIDTH 960 0
DWIDTH 16 0
BBX 16 16 0 -2
BITMAP
0000
0180
0180
0180
0180
07F0
0180
0180
07E0
0180
0180
0180
0180
0180
00F0
0000
ENDCHAR

STARTCHAR jisx0212_2950
ENCODING 10576
SWIDTH 960 0
DWIDTH 16 0
BBX 16 16 0 -2
BITMAP
0000
0600
0600
0600
0600
05F0
0718
060C
060C
060C
060C
060C
0718
05F0
0600
0600
ENDCHAR

STARTCHAR jisx0212_2A21
ENCODING 10785
SWIDTH 960 0
DWIDTH 16 0
BBX 16 16 0 -2
BITMAP
00E0
0380
0000
01C0
01C0
0360
0360
0630
0630
0C18
0C18
1FFC
180C
3006
3006
0000
ENDCHAR

STARTCHAR jisx0212_2A22
ENCODING 10786
SWIDTH 960 0
DWIDTH 16 0
BBX 16 16 0 -2
BITMAP
0380
00E0
0000
01C0
01C0
0360
0360
0630
0630
0C18
0C18
1FFC
180C
3006
3006
0000
ENDCHAR

STARTCHAR jisx0212_2A23
ENCODING 10787
SWIDTH 960 0
DWIDTH 16 0
BBX 16 16 0 -2
BITMAP
0770
0770
0000
01C0
01C0
0360
0360
0630
0630
0C18
0C18
1FFC
180C
3006
3006
0000
ENDCHAR

STARTCHAR jisx0212_2A24
ENCODING 10788
SWIDTH 960 0
DWIDTH 16 0
BBX 16 16 0 -2
BITMAP
01C0
0770
0000
01C0
01C0
0360
0360
0630
0630
0C18
0C18
1FFC
180C
3006
3006
0000
ENDCHAR

STARTCHAR jisx0212_2A25
ENCODING 10789
SWIDTH 960 0
DWIDTH 16 0
BBX 16 16 0 -2
BITMAP
0660
03C0
0000
01C0
01C0
0360
0360
0630
0630
0C18
0C18
1FFC
180C
3006
3006
0000
ENDCHAR

STARTCHAR jisx0212_2A26
ENCODING 10790
SWIDTH 960 0
DWIDTH 16 0
BBX 16 16 0 -2
BITMAP
0770
01C0
0000
01C0
01C0
0360
0360
0630
0630
0C18
0C18
1FFC
180C
3006
3006
0000
ENDCHAR

STARTCHAR jisx0212_2A27
ENCODING 10791
SWIDTH 960 0
DWIDTH 16 0
BBX 16 16 0 -2
BITMAP
07F0
0000
0000
01C0
01C0
0360
0360
0630
0630
0C18
0C18
1FFC
180C
3006
3006
0000
ENDCHAR

STARTCHAR jisx0212_2A28
ENCODING 10792
SWIDTH 960 0
DWIDTH 16 0
BBX 16 16 0 -2
BITMAP
0000
01C0
01C0
0360
0360
0630
0630
0C18
0C18
0C18
1FFC
180C
3006
300E
0018
000F
ENDCHAR

STARTCHAR jisx0212_2A29
ENCODING 10793
SWIDTH 960 0
DWIDTH 16 0
BBX 16 16 0 -2
BITMAP
01C0
0360
0360
01C0
01C0
0360
0360
0630
0630
0C18
0C18
1FFC
180C
3006
3006
0000
ENDCHAR

STARTCHAR jisx0212_2A2A
ENCODING 10794
SWIDTH 960 0
DWIDTH 16 0
BBX 16 16 0 -2
BITMAP
03B0
06E0
0000
01C0
01C0
0360
0360
0630
0630
0C18
0C18
1FFC
180C
3006
3006
0000
ENDCHAR

STARTCHAR jisx0212_2A2B
ENCODING 10795
SWIDTH 960 0
DWIDTH 16 0
BBX 16 16 0 -2
BITMAP
00E0
0380
0000
03F0
0E18
0C0C
1806
1800
1800
1800
1800
1806
0C0C
0E18
03F0
0000
ENDCHAR

STARTCHAR jisx0212_2A2C
ENCODING 10796
SWIDTH 960 0
DWIDTH 16 0
BBX 16 16 0 -2
BITMAP
01C0
0770
0000
03F0
0E18
0C0C
1806
1800
1800
1800
1800
1806
0C0C
0E18
03F0
0000
ENDCHAR

STARTCHAR jisx0212_2A2D
ENCODING 10797
SWIDTH 960 0
DWIDTH 16 0
BBX 16 16 0 -2
BITMAP
0770
01C0
0000
03F0
0E18
0C0C
1806
1800
1800
1800
1800
1806
0C0C
0E18
03F0
0000
ENDCHAR

STARTCHAR jisx0212_2A2E
ENCODING 10798
SWIDTH 960 0
DWIDTH 16 0
BBX 16 16 0 -2
BITMAP
0000
03F0
0E18
0C0C
1806
1800
1800
1800
1800
1806
0C0C
0E18
03F0
00C0
0060
03C0
ENDCHAR

STARTCHAR jisx0212_2A2F
ENCODING 10799
SWIDTH 960 0
DWIDTH 16 0
BBX 16 16 0 -2
BITMAP
01C0
01C0
0000
03F0
0E18
0C0C
1806
1800
1800
1800
1800
1806
0C0C
0E18
03F0
0000
ENDCHAR

STARTCHAR jisx0212_2A30
ENCODING 10800
SWIDTH 960 0
DWIDTH 16 0
BBX 16 16 0 -2
BITMAP
0770
01C0
0000
1FE0
1838
1818
180C
180C
180C
180C
180C
180C
1818
1838
1FE0
0000
ENDCHAR

STARTCHAR jisx0212_2A31
ENCODING 10801
SWIDTH 960 0
DWIDTH 16 0
BBX 16 16 0 -2
BITMAP
00E0
0380
0000
0FFC
0C00
0C00
0C00
0C00
0FF8
0C00
0C00
0C00
0C00
0C00
0FFC
0000
ENDCHAR

STARTCHAR jisx0212_2A32
ENCODING 10802
SWIDTH 960 0
DWIDTH 16 0
BBX 16 16 0 -2
BITMAP
0380
00E0
0000
0FFC
0C00
0C00
0C00
0C00
0FF8
0C00
0C00
0C00
0C00
0C00
0FFC
0000
ENDCHAR

STARTCHAR jisx0212_2A33
ENCODING 10803
SWIDTH 960 0
DWIDTH 16 0
BBX 16 16 0 -2
BITMAP
0770
0770
0000
0FFC
0C00
0C00
0C00
0C00
0FF8
0C00
0C00
0C00
0C00
0C00
0FFC
0000
ENDCHAR

STARTCHAR jisx0212_2A34
ENCODING 10804
SWIDTH 960 0
DWIDTH 16 0
BBX 16 16 0 -2
BITMAP
01C0
0770
0000
0FFC
0C00
0C00
0C00
0C00
0FF8
0C00
0C00
0C00
0C00
0C00
0FFC
0000
ENDCHAR

STARTCHAR jisx0212_2A35
ENCODING 10805
SWIDTH 960 0
DWIDTH 16 0
BBX 16 16 0 -2
BITMAP
0770
01C0
0000
0FFC
0C00
0C00
0C00
0C00
0FF8
0C00
0C00
0C00
0C00
0C00
0FFC
0000
ENDCHAR

STARTCHAR jisx0212_2A36
ENCODING 10806
SWIDTH 960 0
DWIDTH 16 0
BBX 16 16 0 -2
BITMAP
01C0
01C0
0000
0FFC
0C00
0C00
0C00
0C00
0FF8
0C00
0C00
0C00
0C00
0C00
0FFC
0000
ENDCHAR

STARTCHAR jisx0212_2A37
ENCODING 10807
SWIDTH 960 0
DWIDTH 16 0
BBX 16 16 0 -2
BITMAP
07F0
0000
0000
0FFC
0C00
0C00
0C00
0C00
0FF8
0C00
0C00
0C00
0C00
0C00
0FFC
0000
ENDCHAR

STARTCHAR jisx0212_2A38
ENCODING 10808
SWIDTH 960 0
DWIDTH 16 0
BBX 16 16 0 -2
BITMAP
0000
0FFC
0C00
0C00
0C00
0C00
0FF8
0C00
0C00
0C00
0C00
0C00
0FFC
0030
0060
003C
ENDCHAR

STARTCHAR jisx0212_2A3A
ENCODING 10810
SWIDTH 960 0
DWIDTH 16 0
BBX 16 16 0 -2
BITMAP
0380
0EE0
0000
07E0
1C30
1818
300C
3000
3000
307C
300C
300C
181C
1C2C
07EC
0000
ENDCHAR

STARTCHAR jisx0212_2A3B
ENCODING 10811
SWIDTH 960 0
DWIDTH 16 0
BBX 16 16 0 -2
BITMAP
0660
03C0
0000
07E0
1C30
1818
300C
3000
3000
307C
300C
300C
181C
1C2C
07EC
0000
ENDCHAR

STARTCHAR jisx0212_2A3C
ENCODING 10812
SWIDTH 960 0
DWIDTH 16 0
BBX 16 16 0 -2
BITMAP
0000
07E0
1C30
1818
300C
3000
3000
307C
300C
300C
181C
1C2C
07EC
0180
00C0
0780
ENDCHAR

STARTCHAR jisx0212_2A3D
ENCODING 10813
SWIDTH 960 0
DWIDTH 16 0
BBX 16 16 0 -2
BITMAP
0380
0380
0000
07E0
1C30
1818
300C
3000
3000
307C
300C
300C
181C
1C2C
07EC
0000
ENDCHAR

STARTCHAR jisx0212_2A3E
ENCODING 10814
SWIDTH 960 0
DWIDTH 16 0
BBX 16 16 0 -2
BITMAP
01C0
0770
180C
180C
180C
180C
180C
180C
1FFC
180C
180C
180C
180C
180C
180C
0000
ENDCHAR

STARTCHAR jisx0212_2A3F
ENCODING 10815
SWIDTH 960 0
DWIDTH 16 0
BBX 16 16 0 -2
BITMAP
01C0
0700
0000
0180
0180
0180
0180
0180
0180
0180
0180
0180
0180
0180
0180
0000
ENDCHAR

STARTCHAR jisx0212_2A40
ENCODING 10816
SWIDTH 960 0
DWIDTH 16 0
BBX 16 16 0 -2
BITMAP
0700
01C0
0000
0180
0180
0180
0180
0180
0180
0180
0180
0180
0180
0180
0180
0000
ENDCHAR

STARTCHAR jisx0212_2A41
ENCODING 10817
SWIDTH 960 0
DWIDTH 16 0
BBX 16 16 0 -2
BITMAP
0EE0
0EE0
0000
0180
0180
0180
0180
0180
0180
0180
0180
0180
0180
0180
0180
0000
ENDCHAR

STARTCHAR jisx0212_2A42
ENCODING 10818
SWIDTH 960 0
DWIDTH 16 0
BBX 16 16 0 -2
BITMAP
0380
0EE0
0000
0180
0180
0180
0180
0180
0180
0180
0180
0180
0180
0180
0180
0000
ENDCHAR

STARTCHAR jisx0212_2A43
ENCODING 10819
SWIDTH 960 0
DWIDTH 16 0
BBX 16 16 0 -2
BITMAP
0EE0
0380
0000
0180
0180
0180
0180
0180
0180
0180
0180
0180
0180
0180
0180
0000
ENDCHAR

STARTCHAR jisx0212_2A44
ENCODING 10820
SWIDTH 960 0
DWIDTH 16 0
BBX 16 16 0 -2
BITMAP
0380
0380
0000
0180
0180
0180
0180
0180
0180
0180
0180
0180
0180
0180
0180
0000
ENDCHAR

STARTCHAR jisx0212_2A45
ENCODING 10821
SWIDTH 960 0
DWIDTH 16 0
BBX 16 16 0 -2
BITMAP
07E0
0000
0180
0180
0180
0180
0180
0180
0180
0180
0180
0180
0180
0180
0180
0000
ENDCHAR

STARTCHAR jisx0212_2A46
ENCODING 10822
SWIDTH 960 0
DWIDTH 16 0
BBX 16 16 0 -2
BITMAP
0000
0180
0180
0180
0180
0180
0180
0180
0180
0180
0180
0180
0180
0180
0300
01E0
ENDCHAR

STARTCHAR jisx0212_2A47
ENCODING 10823
SWIDTH 960 0
DWIDTH 16 0
BBX 16 16 0 -2
BITMAP
0760
0DC0
0000
0180
0180
0180
0180
0180
0180
0180
0180
0180
0180
0180
0180
0000
ENDCHAR

STARTCHAR jisx0212_2A48
ENCODING 10824
SWIDTH 960 0
DWIDTH 16 0
BBX 16 16 0 -2
BITMAP
01C0
0770
0000
0060
0060
0060
0060
0060
0060
0060
0060
1860
1860
0CC0
0780
0000
ENDCHAR

STARTCHAR jisx0212_2A49
ENCODING 10825
SWIDTH 960 0
DWIDTH 16 0
BBX 16 16 0 -2
BITMAP
0000
0C0C
0C18
0C30
0C60
0CC0
0D80
0AC0
0E60
0C30
0C30
0C18
0D8C
0DC6
0060
03C0
ENDCHAR

STARTCHAR jisx0212_2A4A
ENCODING 10826
SWIDTH 960 0
DWIDTH 16 0
BBX 16 16 0 -2
BITMAP
00E0
0380
0C00
0C00
0C00
0C00
0C00
0C00
0C00
0C00
0C00
0C00
0C00
0C00
0FFC
0000
ENDCHAR

STARTCHAR jisx0212_2A4B
ENCODING 10827
SWIDTH 960 0
DWIDTH 16 0
BBX 16 16 0 -2
BITMAP
0770
01C0
0C00
0C00
0C00
0C00
0C00
0C00
0C00
0C00
0C00
0C00
0C00
0C00
0FFC
0000
ENDCHAR

STARTCHAR jisx0212_2A4C
ENCODING 10828
SWIDTH 960 0
DWIDTH 16 0
BBX 16 16 0 -2
BITMAP
0000
0C00
0C00
0C00
0C00
0C00
0C00
0C00
0C00
0C00
0C00
0C00
0FFC
00C0
0060
03C0
ENDCHAR

STARTCHAR jisx0212_2A4D
ENCODING 10829
SWIDTH 960 0
DWIDTH 16 0
BBX 16 16 0 -2
BITMAP
00E0
0380
180C
1C0C
160C
1B0C
1B0C
198C
18CC
18CC
186C
182C
182C
181C
180C
0000
ENDCHAR

STARTCHAR jisx0212_2A4E
ENCODING 10830
SWIDTH 960 0
DWIDTH 16 0
BBX 16 16 0 -2
BITMAP
0770
01C0
180C
1C0C
160C
1B0C
1B0C
198C
18CC
18CC
186C
182C
182C
181C
180C
0000
ENDCHAR

STARTCHAR jisx0212_2A4F
ENCODING 10831
SWIDTH 960 0
DWIDTH 16 0
BBX 16 16 0 -2
BITMAP
0000
180C
1C0C
160C
1B0C
1B0C
198C
18CC
18CC
186C
182C
182C
199C
19CC
0060
03C0
ENDCHAR

STARTCHAR jisx0212_2A50
ENCODING 10832
SWIDTH 960 0
DWIDTH 16 0
BBX 16 16 0 -2
BITMAP
03B0
06E0
180C
1C0C
160C
1B0C
1B0C
198C
18CC
18CC
186C
182C
182C
181C
180C
0000
ENDCHAR

STARTCHAR jisx0212_2A51
ENCODING 10833
SWIDTH 960 0
DWIDTH 16 0
BBX 16 16 0 -2
BITMAP
01C0
0700
0000
07E0
1C38
1818
300C
300C
300C
300C
300C
300C
1818
1C38
07E0
0000
ENDCHAR

STARTCHAR jisx0212_2A52
ENCODING 10834
SWIDTH 960 0
DWIDTH 16 0
BBX 16 16 0 -2
BITMAP
0700
01C0
0000
07E0
1C38
1818
300C
300C
300C
300C
300C
300C
1818
1C38
07E0
0000
ENDCHAR

STARTCHAR jisx0212_2A53
ENCODING 10835
SWIDTH 960 0
DWIDTH 16 0
BBX 16 16 0 -2
BITMAP
0EE0
0EE0
0000
07E0
1C38
1818
300C
300C
300C
300C
300C
300C
1818
1C38
07E0
0000
ENDCHAR

STARTCHAR jisx0212_2A54
ENCODING 10836
SWIDTH 960 0
DWIDTH 16 0
BBX 16 16 0 -2
BITMAP
0380
0EE0
0000
07E0
1C38
1818
300C
300C
300C
300C
300C
300C
1818
1C38
07E0
0000
ENDCHAR

STARTCHAR jisx0212_2A55
ENCODING 10837
SWIDTH 960 0
DWIDTH 16 0
BBX 16 16 0 -2
BITMAP
0EE0
0380
0000
07E0
1C38
1818
300C
300C
300C
300C
300C
300C
1818
1C38
07E0
0000
ENDCHAR

STARTCHAR jisx0212_2A56
ENCODING 10838
SWIDTH 960 0
DWIDTH 16 0
BBX 16 16 0 -2
BITMAP
0738
1CE0
0000
07E0
1C38
1818
300C
300C
300C
300C
300C
300C
1818
1C38
07E0
0000
ENDCHAR

STARTCHAR jisx0212_2A57
ENCODING 10839
SWIDTH 960 0
DWIDTH 16 0
BBX 16 16 0 -2
BITMAP
0FE0
0000
0000
07E0
1C38
1818
300C
300C
300C
300C
300C
300C
1818
1C38
07E0
0000
ENDCHAR

STARTCHAR jisx0212_2A58
ENCODING 10840
SWIDTH 960 0
DWIDTH 16 0
BBX 16 16 0 -2
BITMAP
0760
0DC0
0000
07E0
1C38
1818
300C
300C
300C
300C
300C
300C
1818
1C38
07E0
0000
ENDCHAR

STARTCHAR jisx0212_2A59
ENCODING 10841
SWIDTH 960 0
DWIDTH 16 0
BBX 16 16 0 -2
BITMAP
00E0
0380
0000
0FF0
0C18
0C0C
0C0C
0C0C
0C18
0FF0
0C18
0C0C
0C0C
0C06
0C06
0000
ENDCHAR

STARTCHAR jisx0212_2A5A
ENCODING 10842
SWIDTH 960 0
DWIDTH 16 0
BBX 16 16 0 -2
BITMAP
0770
01C0
0000
0FF0
0C18
0C0C
0C0C
0C0C
0C18
0FF0
0C18
0C0C
0C0C
0C06
0C06
0000
ENDCHAR

STARTCHAR jisx0212_2A5B
ENCODING 10843
SWIDTH 960 0
DWIDTH 16 0
BBX 16 16 0 -2
BITMAP
0000
0FF0
0C18
0C0C
0C0C
0C0C
0C18
0FF0
0C18
0C18
0C0C
0C0C
0CC6
0CE6
0030
01E0
ENDCHAR

STARTCHAR jisx0212_2A5C
ENCODING 10844
SWIDTH 960 0
DWIDTH 16 0
BBX 16 16 0 -2
BITMAP
00E0
0380
0000
07E0
0C30
1818
1818
0E00
03C0
0070
0018
180C
180C
0C18
07F0
0000
ENDCHAR

STARTCHAR jisx0212_2A5D
ENCODING 10845
SWIDTH 960 0
DWIDTH 16 0
BBX 16 16 0 -2
BITMAP
01C0
0770
0000
07E0
0C30
1818
1818
0E00
03C0
0070
0018
180C
180C
0C18
07F0
0000
ENDCHAR

STARTCHAR jisx0212_2A5E
ENCODING 10846
SWIDTH 960 0
DWIDTH 16 0
BBX 16 16 0 -2
BITMAP
0770
01C0
0000
07E0
0C30
1818
1818
0E00
03C0
0070
0018
180C
180C
0C18
07F0
0000
ENDCHAR

STARTCHAR jisx0212_2A5F
ENCODING 10847
SWIDTH 960 0
DWIDTH 16 0
BBX 16 16 0 -2
BITMAP
0000
07E0
0C30
1818
1818
0E00
03C0
0070
0018
180C
180C
0C18
07F0
0180
00C0
0780
ENDCHAR

STARTCHAR jisx0212_2A60
ENCODING 10848
SWIDTH 960 0
DWIDTH 16 0
BBX 16 16 0 -2
BITMAP
0EE0
0380
0000
3FFC
0180
0180
0180
0180
0180
0180
0180
0180
0180
0180
0180
0000
ENDCHAR

STARTCHAR jisx0212_2A61
ENCODING 10849
SWIDTH 960 0
DWIDTH 16 0
BBX 16 16 0 -2
BITMAP
0000
3FFC
0180
0180
0180
0180
0180
0180
0180
0180
0180
0180
0180
01C0
0060
03C0
ENDCHAR

STARTCHAR jisx0212_2A62
ENCODING 10850
SWIDTH 960 0
DWIDTH 16 0
BBX 16 16 0 -2
BITMAP
00E0
0380
180C
180C
180C
180C
180C
180C
180C
180C
180C
180C
180C
0C18
07F0
0000
ENDCHAR

STARTCHAR jisx0212_2A63
ENCODING 10851
SWIDTH 960 0
DWIDTH 16 0
BBX 16 16 0 -2
BITMAP
0380
00E0
180C
180C
180C
180C
180C
180C
180C
180C
180C
180C
180C
0C18
07F0
0000
ENDCHAR

STARTCHAR jisx0212_2A64
ENCODING 10852
SWIDTH 960 0
DWIDTH 16 0
BBX 16 16 0 -2
BITMAP
0770
0770
180C
180C
180C
180C
180C
180C
180C
180C
180C
180C
180C
0C18
07F0
0000
ENDCHAR

STARTCHAR jisx0212_2A65
ENCODING 10853
SWIDTH 960 0
DWIDTH 16 0
BBX 16 16 0 -2
BITMAP
01C0
0770
180C
180C
180C
180C
180C
180C
180C
180C
180C
180C
180C
0C18
07F0
0000
ENDCHAR

STARTCHAR jisx0212_2A66
ENCODING 10854
SWIDTH 960 0
DWIDTH 16 0
BBX 16 16 0 -2
BITMAP
0660
03C0
180C
180C
180C
180C
180C
180C
180C
180C
180C
180C
180C
0C18
07F0
0000
ENDCHAR

STARTCHAR jisx0212_2A67
ENCODING 10855
SWIDTH 960 0
DWIDTH 16 0
BBX 16 16 0 -2
BITMAP
0770
01C0
180C
180C
180C
180C
180C
180C
180C
180C
180C
180C
180C
0C18
07F0
0000
ENDCHAR

STARTCHAR jisx0212_2A68
ENCODING 10856
SWIDTH 960 0
DWIDTH 16 0
BBX 16 16 0 -2
BITMAP
039C
0E70
0000
180C
180C
180C
180C
180C
180C
180C
180C
180C
180C
0C18
07F0
0000
ENDCHAR

STARTCHAR jisx0212_2A69
ENCODING 10857
SWIDTH 960 0
DWIDTH 16 0
BBX 16 16 0 -2
BITMAP
07F0
0000
180C
180C
180C
180C
180C
180C
180C
180C
180C
180C
180C
0C18
07F0
0000
ENDCHAR

STARTCHAR jisx0212_2A6A
ENCODING 10858
SWIDTH 960 0
DWIDTH 16 0
BBX 16 16 0 -2
BITMAP
0000
180C
180C
180C
180C
180C
180C
180C
180C
180C
180C
0C18
07F0
0180
0300
01E0
ENDCHAR

STARTCHAR jisx0212_2A6B
ENCODING 10859
SWIDTH 960 0
DWIDTH 16 0
BBX 16 16 0 -2
BITMAP
01C0
0360
0360
19CC
180C
180C
180C
180C
180C
180C
180C
180C
180C
0C18
07F0
0000
ENDCHAR

STARTCHAR jisx0212_2A6C
ENCODING 10860
SWIDTH 960 0
DWIDTH 16 0
BBX 16 16 0 -2
BITMAP
03B0
06E0
180C
180C
180C
180C
180C
180C
180C
180C
180C
180C
180C
0C18
07F0
0000
ENDCHAR

STARTCHAR jisx0212_2A6D
ENCODING 10861
SWIDTH 960 0
DWIDTH 16 0
BBX 16 16 0 -2
BITMAP
0070
01C0
0E38
0E38
0000
180C
180C
180C
180C
180C
180C
180C
180C
0C18
07F0
0000
ENDCHAR

STARTCHAR jisx0212_2A6E
ENCODING 10862
SWIDTH 960 0
DWIDTH 16 0
BBX 16 16 0 -2
BITMAP
0700
01C0
0E38
0E38
0000
180C
180C
180C
180C
180C
180C
180C
180C
0C18
07F0
0000
ENDCHAR

STARTCHAR jisx0212_2A6F
ENCODING 10863
SWIDTH 960 0
DWIDTH 16 0
BBX 16 16 0 -2
BITMAP
0770
01C0
0E38
0E38
0000
180C
180C
180C
180C
180C
180C
180C
180C
0C18
07F0
0000
ENDCHAR

STARTCHAR jisx0212_2A70
ENCODING 10864
SWIDTH 960 0
DWIDTH 16 0
BBX 16 16 0 -2
BITMAP
07F0
0000
0770
0770
180C
180C
180C
180C
180C
180C
180C
180C
180C
0C18
07F0
0000
ENDCHAR

STARTCHAR jisx0212_2A71
ENCODING 10865
SWIDTH 960 0
DWIDTH 16 0
BBX 16 16 0 -2
BITMAP
01C0
0770
0000
61C3
61C3
61C3
3366
3366
3366
162C
162C
162C
0C18
0C18
0C18
0000
ENDCHAR

STARTCHAR jisx0212_2A72
ENCODING 10866
SWIDTH 960 0
DWIDTH 16 0
BBX 16 16 0 -2
BITMAP
00E0
0380
300C
1818
1818
0C30
0660
0660
02C0
0180
0180
0180
0180
0180
0180
0000
ENDCHAR

STARTCHAR jisx0212_2A73
ENCODING 10867
SWIDTH 960 0
DWIDTH 16 0
BBX 16 16 0 -2
BITMAP
0E70
0E70
300C
1818
1818
0C30
0660
0660
02C0
0180
0180
0180
0180
0180
0180
0000
ENDCHAR

STARTCHAR jisx0212_2A74
ENCODING 10868
SWIDTH 960 0
DWIDTH 16 0
BBX 16 16 0 -2
BITMAP
0380
0EE0
300C
1818
1818
0C30
0660
0660
02C0
0180
0180
0180
0180
0180
0180
0000
ENDCHAR

STARTCHAR jisx0212_2A75
ENCODING 10869
SWIDTH 960 0
DWIDTH 16 0
BBX 16 16 0 -2
BITMAP
00E0
0380
0000
0FF8
0018
0030
0060
00C0
0180
0180
0300
0600
0C00
1800
1FF8
0000
ENDCHAR

STARTCHAR jisx0212_2A76
ENCODING 10870
SWIDTH 960 0
DWIDTH 16 0
BBX 16 16 0 -2
BITMAP
0770
01C0
0000
0FF8
0018
0030
0060
00C0
0180
0180
0300
0600
0C00
1800
1FF8
0000
ENDCHAR

STARTCHAR jisx0212_2A77
ENCODING 10871
SWIDTH 960 0
DWIDTH 16 0
BBX 16 16 0 -2
BITMAP
01C0
01C0
0000
0FF8
0018
0030
0060
00C0
0180
0180
0300
0600
0C00
1800
1FF8
0000
ENDCHAR

STARTCHAR jisx0212_2B21
ENCODING 11041
SWIDTH 960 0
DWIDTH 16 0
BBX 16 16 0 -2
BITMAP
0000
01C0
0700
0000
0000
07E0
0C30
1818
0018
07F8
0C18
1818
1818
0C38
07D8
0000
ENDCHAR

STARTCHAR jisx0212_2B22
ENCODING 11042
SWIDTH 960 0
DWIDTH 16 0
BBX 16 16 0 -2
BITMAP
0000
0700
01C0
0000
0000
07E0
0C30
1818
0018
07F8
0C18
1818
1818
0C38
07D8
0000
ENDCHAR

STARTCHAR jisx0212_2B23
ENCODING 11043
SWIDTH 960 0
DWIDTH 16 0
BBX 16 16 0 -2
BITMAP
0000
0EE0
0EE0
0000
0000
07E0
0C30
1818
0018
07F8
0C18
1818
1818
0C38
07D8
0000
ENDCHAR

STARTCHAR jisx0212_2B24
ENCODING 11044
SWIDTH 960 0
DWIDTH 16 0
BBX 16 16 0 -2
BITMAP
0000
0380
0EE0
0000
0000
07E0
0C30
1818
0018
07F8
0C18
1818
1818
0C38
07D8
0000
ENDCHAR

STARTCHAR jisx0212_2B25
ENCODING 11045
SWIDTH 960 0
DWIDTH 16 0
BBX 16 16 0 -2
BITMAP
0000
0660
03C0
0000
0000
07E0
0C30
1818
0018
07F8
0C18
1818
1818
0C38
07D8
0000
ENDCHAR

STARTCHAR jisx0212_2B26
ENCODING 11046
SWIDTH 960 0
DWIDTH 16 0
BBX 16 16 0 -2
BITMAP
0000
0EE0
0380
0000
0000
07E0
0C30
1818
0018
07F8
0C18
1818
1818
0C38
07D8
0000
ENDCHAR

STARTCHAR jisx0212_2B27
ENCODING 11047
SWIDTH 960 0
DWIDTH 16 0
BBX 16 16 0 -2
BITMAP
0000
0000
0FE0
0000
0000
07E0
0C30
1818
0018
07F8
0C18
1818
1818
0C38
07D8
0000
ENDCHAR

STARTCHAR jisx0212_2B28
ENCODING 11048
SWIDTH 960 0
DWIDTH 16 0
BBX 16 16 0 -2
BITMAP
0000
0000
0000
0000
0000
07E0
0C30
1818
07F8
0C18
1818
1818
0C38
07D8
0030
003C
ENDCHAR

STARTCHAR jisx0212_2B29
ENCODING 11049
SWIDTH 960 0
DWIDTH 16 0
BBX 16 16 0 -2
BITMAP
0000
01C0
0360
0360
01C0
07E0
0C30
1818
0018
07F8
0C18
1818
1818
0C38
07D8
0000
ENDCHAR

STARTCHAR jisx0212_2B2A
ENCODING 11050
SWIDTH 960 0
DWIDTH 16 0
BBX 16 16 0 -2
BITMAP
0000
0760
0DC0
0000
0000
07E0
0C30
1818
0018
07F8
0C18
1818
1818
0C38
07D8
0000
ENDCHAR

STARTCHAR jisx0212_2B2B
ENCODING 11051
SWIDTH 960 0
DWIDTH 16 0
BBX 16 16 0 -2
BITMAP
0000
01C0
0700
0000
0000
07E0
0C30
1818
1800
1800
1800
1800
1818
0C30
07E0
0000
ENDCHAR

STARTCHAR jisx0212_2B2C
ENCODING 11052
SWIDTH 960 0
DWIDTH 16 0
BBX 16 16 0 -2
BITMAP
0000
0380
0EE0
0000
0000
07E0
0C30
1818
1800
1800
1800
1800
1818
0C30
07E0
0000
ENDCHAR

STARTCHAR jisx0212_2B2D
ENCODING 11053
SWIDTH 960 0
DWIDTH 16 0
BBX 16 16 0 -2
BITMAP
0000
0EE0
0380
0000
0000
07E0
0C30
1818
1800
1800
1800
1800
1818
0C30
07E0
0000
ENDCHAR

STARTCHAR jisx0212_2B2E
ENCODING 11054
SWIDTH 960 0
DWIDTH 16 0
BBX 16 16 0 -2
BITMAP
0000
0000
0000
0000
0000
07E0
0C30
1818
1800
1800
1800
1818
0C30
07E0
00C0
03C0
ENDCHAR

STARTCHAR jisx0212_2B2F
ENCODING 11055
SWIDTH 960 0
DWIDTH 16 0
BBX 16 16 0 -2
BITMAP
0000
0380
0380
0000
0000
07E0
0C30
1818
1800
1800
1800
1800
1818
0C30
07E0
0000
ENDCHAR

STARTCHAR jisx0212_2B30
ENCODING 11056
SWIDTH 960 0
DWIDTH 16 0
BBX 16 16 0 -2
BITMAP
0770
01C0
0018
0018
0018
03D8
0638
0C18
0C18
0C18
0C18
0C18
0C18
0638
03D8
0000
ENDCHAR

STARTCHAR jisx0212_2B31
ENCODING 11057
SWIDTH 960 0
DWIDTH 16 0
BBX 16 16 0 -2
BITMAP
0000
01C0
0700
0000
0000
07E0
0C30
1818
1818
1FF8
1800
1800
1818
0C30
07E0
0000
ENDCHAR

STARTCHAR jisx0212_2B32
ENCODING 11058
SWIDTH 960 0
DWIDTH 16 0
BBX 16 16 0 -2
BITMAP
0000
0700
01C0
0000
0000
07E0
0C30
1818
1818
1FF8
1800
1800
1818
0C30
07E0
0000
ENDCHAR

STARTCHAR jisx0212_2B33
ENCODING 11059
SWIDTH 960 0
DWIDTH 16 0
BBX 16 16 0 -2
BITMAP
0000
0EE0
0EE0
0000
0000
07E0
0C30
1818
1818
1FF8
1800
1800
1818
0C30
07E0
0000
ENDCHAR

STARTCHAR jisx0212_2B34
ENCODING 11060
SWIDTH 960 0
DWIDTH 16 0
BBX 16 16 0 -2
BITMAP
0000
0380
0EE0
0000
0000
07E0
0C30
1818
1818
1FF8
1800
1800
1818
0C30
07E0
0000
ENDCHAR

STARTCHAR jisx0212_2B35
ENCODING 11061
SWIDTH 960 0
DWIDTH 16 0
BBX 16 16 0 -2
BITMAP
0000
0EE0
0380
0000
0000
07E0
0C30
1818
1818
1FF8
1800
1800
1818
0C30
07E0
0000
ENDCHAR

STARTCHAR jisx0212_2B36
ENCODING 11062
SWIDTH 960 0
DWIDTH 16 0
BBX 16 16 0 -2
BITMAP
0000
0380
0380
0000
0000
07E0
0C30
1818
1818
1FF8
1800
1800
1818
0C30
07E0
0000
ENDCHAR

STARTCHAR jisx0212_2B37
ENCODING 11063
SWIDTH 960 0
DWIDTH 16 0
BBX 16 16 0 -2
BITMAP
0000
0000
0FE0
0000
0000
07E0
0C30
1818
1818
1FF8
1800
1800
1818
0C30
07E0
0000
ENDCHAR

STARTCHAR jisx0212_2B38
ENCODING 11064
SWIDTH 960 0
DWIDTH 16 0
BBX 16 16 0 -2
BITMAP
0000
0000
0000
0000
0000
07E0
0C30
1818
1818
1FF8
1800
1800
0C18
07F0
00C0
00F0
ENDCHAR

STARTCHAR jisx0212_2B39
ENCODING 11065
SWIDTH 960 0
DWIDTH 16 0
BBX 16 16 0 -2
BITMAP
0000
00E0
0380
0000
0000
03D8
0638
0C18
0C18
0C18
0C18
0638
03D8
0C18
0630
03E0
ENDCHAR

STARTCHAR jisx0212_2B3A
ENCODING 11066
SWIDTH 960 0
DWIDTH 16 0
BBX 16 16 0 -2
BITMAP
0000
01C0
0770
0000
0000
03D8
0638
0C18
0C18
0C18
0C18
0638
03D8
0C18
0630
03E0
ENDCHAR

STARTCHAR jisx0212_2B3B
ENCODING 11067
SWIDTH 960 0
DWIDTH 16 0
BBX 16 16 0 -2
BITMAP
0000
0660
03C0
0000
0000
03D8
0638
0C18
0C18
0C18
0C18
0638
03D8
0C18
0630
03E0
ENDCHAR

STARTCHAR jisx0212_2B3D
ENCODING 11069
SWIDTH 960 0
DWIDTH 16 0
BBX 16 16 0 -2
BITMAP
0000
01C0
01C0
0000
0000
03D8
0638
0C18
0C18
0C18
0C18
0638
03D8
0C18
0630
03E0
ENDCHAR

STARTCHAR jisx0212_2B3E
ENCODING 11070
SWIDTH 960 0
DWIDTH 16 0
BBX 16 16 0 -2
BITMAP
01C0
0770
0C00
0C00
0C00
0BF0
0E18
0C18
0C18
0C18
0C18
0C18
0C18
0C18
0C18
0000
ENDCHAR

STARTCHAR jisx0212_2B3F
ENCODING 11071
SWIDTH 960 0
DWIDTH 16 0
BBX 16 16 0 -2
BITMAP
0000
01C0
0700
0000
0000
0180
0180
0180
0180
0180
0180
0180
0180
0180
0180
0000
ENDCHAR

STARTCHAR jisx0212_2B40
ENCODING 11072
SWIDTH 960 0
DWIDTH 16 0
BBX 16 16 0 -2
BITMAP
0000
0700
01C0
0000
0000
0180
0180
0180
0180
0180
0180
0180
0180
0180
0180
0000
ENDCHAR

STARTCHAR jisx0212_2B41
ENCODING 11073
SWIDTH 960 0
DWIDTH 16 0
BBX 16 16 0 -2
BITMAP
0000
0EE0
0EE0
0000
0000
0180
0180
0180
0180
0180
0180
0180
0180
0180
0180
0000
ENDCHAR

STARTCHAR jisx0212_2B42
ENCODING 11074
SWIDTH 960 0
DWIDTH 16 0
BBX 16 16 0 -2
BITMAP
0000
0380
0EE0
0000
0000
0180
0180
0180
0180
0180
0180
0180
0180
0180
0180
0000
ENDCHAR

STARTCHAR jisx0212_2B43
ENCODING 11075
SWIDTH 960 0
DWIDTH 16 0
BBX 16 16 0 -2
BITMAP
0000
0EE0
0380
0000
0000
0180
0180
0180
0180
0180
0180
0180
0180
0180
0180
0000
ENDCHAR

STARTCHAR jisx0212_2B45
ENCODING 11077
SWIDTH 960 0
DWIDTH 16 0
BBX 16 16 0 -2
BITMAP
0000
0000
07E0
0000
0000
0180
0180
0180
0180
0180
0180
0180
0180
0180
0180
0000
ENDCHAR

STARTCHAR jisx0212_2B46
ENCODING 11078
SWIDTH 960 0
DWIDTH 16 0
BBX 16 16 0 -2
BITMAP
0000
0380
0380
0000
0000
0180
0180
0180
0180
0180
0180
0180
0180
0180
0300
01E0
ENDCHAR

STARTCHAR jisx0212_2B47
ENCODING 11079
SWIDTH 960 0
DWIDTH 16 0
BBX 16 16 0 -2
BITMAP
0000
0760
0DC0
0000
0000
0180
0180
0180
0180
0180
0180
0180
0180
0180
0180
0000
ENDCHAR

STARTCHAR jisx0212_2B48
ENCODING 11080
SWIDTH 960 0
DWIDTH 16 0
BBX 16 16 0 -2
BITMAP
0000
0380
0EE0
0000
0000
0180
0180
0180
0180
0180
0180
0180
0180
0180
0180
0F00
ENDCHAR

STARTCHAR jisx0212_2B49
ENCODING 11081
SWIDTH 960 0
DWIDTH 16 0
BBX 16 16 0 -2
BITMAP
0000
0C00
0C00
0C00
0C00
0C30
0C60
0CC0
0D80
0AC0
0E60
0C60
0DB0
0D98
00C0
03C0
ENDCHAR

STARTCHAR jisx0212_2B4A
ENCODING 11082
SWIDTH 960 0
DWIDTH 16 0
BBX 16 16 0 -2
BITMAP
01C0
0700
0000
0180
0180
0180
0180
0180
0180
0180
0180
0180
0180
0180
01E0
0000
ENDCHAR

STARTCHAR jisx0212_2B4B
ENCODING 11083
SWIDTH 960 0
DWIDTH 16 0
BBX 16 16 0 -2
BITMAP
0EE0
0380
0000
0180
0180
0180
0180
0180
0180
0180
0180
0180
0180
0180
01E0
0000
ENDCHAR

STARTCHAR jisx0212_2B4C
ENCODING 11084
SWIDTH 960 0
DWIDTH 16 0
BBX 16 16 0 -2
BITMAP
0000
0180
0180
0180
0180
0180
0180
0180
0180
0180
0180
0180
0180
01E0
00C0
03C0
ENDCHAR

STARTCHAR jisx0212_2B4D
ENCODING 11085
SWIDTH 960 0
DWIDTH 16 0
BBX 16 16 0 -2
BITMAP
0000
00E0
0380
0000
0000
0BF0
0E18
0C18
0C18
0C18
0C18
0C18
0C18
0C18
0C18
0000
ENDCHAR

STARTCHAR jisx0212_2B4E
ENCODING 11086
SWIDTH 960 0
DWIDTH 16 0
BBX 16 16 0 -2
BITMAP
0000
0770
01C0
0000
0000
0BF0
0E18
0C18
0C18
0C18
0C18
0C18
0C18
0C18
0C18
0000
ENDCHAR

STARTCHAR jisx0212_2B4F
ENCODING 11087
SWIDTH 960 0
DWIDTH 16 0
BBX 16 16 0 -2
BITMAP
0000
0000
0000
0000
0000
0BF0
0E18
0C18
0C18
0C18
0C18
0C18
0D98
0D98
00C0
03C0
ENDCHAR

STARTCHAR jisx0212_2B50
ENCODING 11088
SWIDTH 960 0
DWIDTH 16 0
BBX 16 16 0 -2
BITMAP
0000
03B0
06E0
0000
0000
0BF0
0E18
0C18
0C18
0C18
0C18
0C18
0C18
0C18
0C18
0000
ENDCHAR

STARTCHAR jisx0212_2B51
ENCODING 11089
SWIDTH 960 0
DWIDTH 16 0
BBX 16 16 0 -2
BITMAP
0000
01C0
0700
0000
0000
07E0
0C30
1818
1818
1818
1818
1818
1818
0C30
07E0
0000
ENDCHAR

STARTCHAR jisx0212_2B52
ENCODING 11090
SWIDTH 960 0
DWIDTH 16 0
BBX 16 16 0 -2
BITMAP
0000
0700
01C0
0000
0000
07E0
0C30
1818
1818
1818
1818
1818
1818
0C30
07E0
0000
ENDCHAR

STARTCHAR jisx0212_2B53
ENCODING 11091
SWIDTH 960 0
DWIDTH 16 0
BBX 16 16 0 -2
BITMAP
0000
0EE0
0EE0
0000
0000
07E0
0C30
1818
1818
1818
1818
1818
1818
0C30
07E0
0000
ENDCHAR

STARTCHAR jisx0212_2B54
ENCODING 11092
SWIDTH 960 0
DWIDTH 16 0
BBX 16 16 0 -2
BITMAP
0000
0380
0EE0
0000
0000
07E0
0C30
1818
1818
1818
1818
1818
1818
0C30
07E0
0000
ENDCHAR

STARTCHAR jisx0212_2B55
ENCODING 11093
SWIDTH 960 0
DWIDTH 16 0
BBX 16 16 0 -2
BITMAP
0000
0EE0
0380
0000
0000
07E0
0C30
1818
1818
1818
1818
1818
1818
0C30
07E0
0000
ENDCHAR

STARTCHAR jisx0212_2B56
ENCODING 11094
SWIDTH 960 0
DWIDTH 16 0
BBX 16 16 0 -2
BITMAP
0000
0738
1CE0
0000
0000
07E0
0C30
1818
1818
1818
1818
1818
1818
0C30
07E0
0000
ENDCHAR

STARTCHAR jisx0212_2B57
ENCODING 11095
SWIDTH 960 0
DWIDTH 16 0
BBX 16 16 0 -2
BITMAP
0000
0000
0FE0
0000
0000
07E0
0C30
1818
1818
1818
1818
1818
1818
0C30
07E0
0000
ENDCHAR

STARTCHAR jisx0212_2B58
ENCODING 11096
SWIDTH 960 0
DWIDTH 16 0
BBX 16 16 0 -2
BITMAP
0000
0760
0DC0
0000
0000
07E0
0C30
1818
1818
1818
1818
1818
1818
0C30
07E0
0000
ENDCHAR

STARTCHAR jisx0212_2B59
ENCODING 11097
SWIDTH 960 0
DWIDTH 16 0
BBX 16 16 0 -2
BITMAP
0000
00E0
0380
0000
0000
0370
02C0
0380
0300
0300
0300
0300
0300
0300
0300
0000
ENDCHAR

STARTCHAR jisx0212_2B5A
ENCODING 11098
SWIDTH 960 0
DWIDTH 16 0
BBX 16 16 0 -2
BITMAP
0000
0770
01C0
0000
0000
0370
02C0
0380
0300
0300
0300
0300
0300
0300
0300
0000
ENDCHAR

STARTCHAR jisx0212_2B5B
ENCODING 11099
SWIDTH 960 0
DWIDTH 16 0
BBX 16 16 0 -2
BITMAP
0000
0000
0000
0000
0000
0370
02C0
0380
0300
0300
0300
0300
0300
0300
0180
0780
ENDCHAR

STARTCHAR jisx0212_2B5C
ENCODING 11100
SWIDTH 960 0
DWIDTH 16 0
BBX 16 16 0 -2
BITMAP
0000
00E0
0380
0000
0000
07F0
0C18
0C18
0C00
0780
00F0
0018
0C18
0C18
07F0
0000
ENDCHAR

STARTCHAR jisx0212_2B5D
ENCODING 11101
SWIDTH 960 0
DWIDTH 16 0
BBX 16 16 0 -2
BITMAP
0000
01C0
0770
0000
0000
07F0
0C18
0C18
0C00
0780
00F0
0018
0C18
0C18
07F0
0000
ENDCHAR

STARTCHAR jisx0212_2B5E
ENCODING 11102
SWIDTH 960 0
DWIDTH 16 0
BBX 16 16 0 -2
BITMAP
0000
0770
01C0
0000
0000
07F0
0C18
0C18
0C00
0780
00F0
0018
0C18
0C18
07F0
0000
ENDCHAR

STARTCHAR jisx0212_2B5F
ENCODING 11103
SWIDTH 960 0
DWIDTH 16 0
BBX 16 16 0 -2
BITMAP
0000
0000
0000
0000
0000
07F0
0C18
0C18
0780
00F0
0018
0C18
0C18
07F0
00C0
03C0
ENDCHAR

STARTCHAR jisx0212_2B60
ENCODING 11104
SWIDTH 960 0
DWIDTH 16 0
BBX 16 16 0 -2
BITMAP
0770
01C0
0000
0180
0180
07F0
0180
0180
0180
0180
0180
0180
0180
0180
00F0
0000
ENDCHAR

STARTCHAR jisx0212_2B61
ENCODING 11105
SWIDTH 960 0
DWIDTH 16 0
BBX 16 16 0 -2
BITMAP
0000
0180
0180
0180
0180
07F0
0180
0180
0180
0180
0180
0180
0180
00F0
0060
01E0
ENDCHAR

STARTCHAR jisx0212_2B62
ENCODING 11106
SWIDTH 960 0
DWIDTH 16 0
BBX 16 16 0 -2
BITMAP
0000
00E0
0380
0000
0000
0C18
0C18
0C18
0C18
0C18
0C18
0C18
0C18
0C38
07D8
0000
ENDCHAR

STARTCHAR jisx0212_2B63
ENCODING 11107
SWIDTH 960 0
DWIDTH 16 0
BBX 16 16 0 -2
BITMAP
0000
0380
00E0
0000
0000
0C18
0C18
0C18
0C18
0C18
0C18
0C18
0C18
0C38
07D8
0000
ENDCHAR

STARTCHAR jisx0212_2B64
ENCODING 11108
SWIDTH 960 0
DWIDTH 16 0
BBX 16 16 0 -2
BITMAP
0000
0770
0770
0000
0000
0C18
0C18
0C18
0C18
0C18
0C18
0C18
0C18
0C38
07D8
0000
ENDCHAR

STARTCHAR jisx0212_2B65
ENCODING 11109
SWIDTH 960 0
DWIDTH 16 0
BBX 16 16 0 -2
BITMAP
0000
01C0
0770
0000
0000
0C18
0C18
0C18
0C18
0C18
0C18
0C18
0C18
0C38
07D8
0000
ENDCHAR

STARTCHAR jisx0212_2B66
ENCODING 11110
SWIDTH 960 0
DWIDTH 16 0
BBX 16 16 0 -2
BITMAP
0000
0660
03C0
0000
0000
0C18
0C18
0C18
0C18
0C18
0C18
0C18
0C18
0C38
07D8
0000
ENDCHAR

STARTCHAR jisx0212_2B67
ENCODING 11111
SWIDTH 960 0
DWIDTH 16 0
BBX 16 16 0 -2
BITMAP
0000
0770
01C0
0000
0000
0C18
0C18
0C18
0C18
0C18
0C18
0C18
0C18
0C38
07D8
0000
ENDCHAR

STARTCHAR jisx0212_2B68
ENCODING 11112
SWIDTH 960 0
DWIDTH 16 0
BBX 16 16 0 -2
BITMAP
0000
0738
1CE0
0000
0000
0C18
0C18
0C18
0C18
0C18
0C18
0C18
0C18
0C38
07D8
0000
ENDCHAR

STARTCHAR jisx0212_2B69
ENCODING 11113
SWIDTH 960 0
DWIDTH 16 0
BBX 16 16 0 -2
BITMAP
0000
0000
07F0
0000
0000
0C18
0C18
0C18
0C18
0C18
0C18
0C18
0C18
0C38
07D8
0000
ENDCHAR

STARTCHAR jisx0212_2B6A
ENCODING 11114
SWIDTH 960 0
DWIDTH 16 0
BBX 16 16 0 -2
BITMAP
0000
0000
0000
0000
0000
0C18
0C18
0C18
0C18
0C18
0C18
0C18
0C38
07D8
0030
003C
ENDCHAR

STARTCHAR jisx0212_2B6B
ENCODING 11115
SWIDTH 960 0
DWIDTH 16 0
BBX 16 16 0 -2
BITMAP
0000
01C0
0360
0360
01C0
0C18
0C18
0C18
0C18
0C18
0C18
0C18
0C18
0C38
07D8
0000
ENDCHAR

STARTCHAR jisx0212_2B6C
ENCODING 11116
SWIDTH 960 0
DWIDTH 16 0
BBX 16 16 0 -2
BITMAP
0000
03B0
06E0
0000
0000
0C18
0C18
0C18
0C18
0C18
0C18
0C18
0C18
0C38
07D8
0000
ENDCHAR

STARTCHAR jisx0212_2B6D
ENCODING 11117
SWIDTH 960 0
DWIDTH 16 0
BBX 16 16 0 -2
BITMAP
00E0
0380
0000
0770
0770
0000
0C18
0C18
0C18
0C18
0C18
0C18
0C18
0C38
07D8
0000
ENDCHAR

STARTCHAR jisx0212_2B6E
ENCODING 11118
SWIDTH 960 0
DWIDTH 16 0
BBX 16 16 0 -2
BITMAP
0380
00E0
0000
0770
0770
0000
0C18
0C18
0C18
0C18
0C18
0C18
0C18
0C38
07D8
0000
ENDCHAR

STARTCHAR jisx0212_2B6F
ENCODING 11119
SWIDTH 960 0
DWIDTH 16 0
BBX 16 16 0 -2
BITMAP
0770
01C0
0000
0770
0770
0000
0C18
0C18
0C18
0C18
0C18
0C18
0C18
0C38
07D8
0000
ENDCHAR

STARTCHAR jisx0212_2B70
ENCODING 11120
SWIDTH 960 0
DWIDTH 16 0
BBX 16 16 0 -2
BITMAP
07F0
0000
0770
0770
0000
0C18
0C18
0C18
0C18
0C18
0C18
0C18
0C18
0C38
07D8
0000
ENDCHAR

STARTCHAR jisx0212_2B71
ENCODING 11121
SWIDTH 960 0
DWIDTH 16 0
BBX 16 16 0 -2
BITMAP
0000
0380
0EE0
0000
0000
6186
6186
32CC
32CC
32CC
1658
1658
1658
0C30
0C30
0000
ENDCHAR

STARTCHAR jisx0212_2B72
ENCODING 11122
SWIDTH 960 0
DWIDTH 16 0
BBX 16 16 0 -2
BITMAP
0000
00E0
0380
0000
0000
0C18
0C18
0630
0630
0360
0360
01C0
01C0
0180
0180
0F00
ENDCHAR

STARTCHAR jisx0212_2B73
ENCODING 11123
SWIDTH 960 0
DWIDTH 16 0
BBX 16 16 0 -2
BITMAP
0000
0770
0770
0000
0000
0C18
0C18
0630
0630
0360
0360
01C0
01C0
0180
0180
0F00
ENDCHAR

STARTCHAR jisx0212_2B74
ENCODING 11124
SWIDTH 960 0
DWIDTH 16 0
BBX 16 16 0 -2
BITMAP
0000
01C0
0770
0000
0000
0C18
0C18
0630
0630
0360
0360
01C0
01C0
0180
0180
0F00
ENDCHAR

STARTCHAR jisx0212_2B75
ENCODING 11125
SWIDTH 960 0
DWIDTH 16 0
BBX 16 16 0 -2
BITMAP
0000
00E0
0380
0000
0000
07F8
0018
0030
0060
00C0
0180
0300
0600
0C00
0FF8
0000
ENDCHAR

STARTCHAR jisx0212_2B76
ENCODING 11126
SWIDTH 960 0
DWIDTH 16 0
BBX 16 16 0 -2
BITMAP
0000
0770
01C0
0000
0000
07F8
0018
0030
0060
00C0
0180
0300
0600
0C00
0FF8
0000
ENDCHAR

STARTCHAR jisx0212_2B77
ENCODING 11127
SWIDTH 960 0
DWIDTH 16 0
BBX 16 16 0 -2
BITMAP
0000
01C0
01C0
0000
0000
07F8
0018
0030
0060
00C0
0180
0300
0600
0C00
0FF8
0000
ENDCHAR

STARTCHAR jisx0212_3021
ENCODING 12321
SWIDTH 960 0
DWIDTH 16 0
BBX 16 16 0 -2
BITMAP
0000
7FFF
0600
0600
0600
0C00
0C00
0FFC
0C0C
180C
180C
000C
000C
0018
0018
01F0
ENDCHAR

STARTCHAR jisx0212_3022
ENCODING 12322
SWIDTH 960 0
DWIDTH 16 0
BBX 16 16 0 -2
BITMAP
0180
0180
0180
0180
0180
0180
0180
0180
0180
0180
0180
0180
0180
0180
FFFF
0000
ENDCHAR

STARTCHAR jisx0212_3023
ENCODING 12323
SWIDTH 960 0
DWIDTH 16 0
BBX 16 16 0 -2
BITMAP
0000
FFFF
0180
0180
0180
0180
0180
0180
0180
0180
0180
0180
0180
0180
0180
0180
ENDCHAR

STARTCHAR jisx0212_3024
ENCODING 12324
SWIDTH 960 0
DWIDTH 16 0
BBX 16 16 0 -2
BITMAP
0000
FFFF
0C30
0C30
0C30
0C30
0C30
0C30
0C30
0C30
1830
1830
1830
3030
6030
C030
ENDCHAR

STARTCHAR jisx0212_3025
ENCODING 12325
SWIDTH 960 0
DWIDTH 16 0
BBX 16 16 0 -2
BITMAP
0000
7FFE
0006
00C6
00C6
3986
0D86
0306
0586
06C6
0C66
180C
300C
6078
0000
FFFF
ENDCHAR

STARTCHAR jisx0212_3026
ENCODING 12326
SWIDTH 960 0
DWIDTH 16 0
BBX 16 16 0 -2
BITMAP
0000
7FFE
0180
0180
3FFC
0180
0180
FFFF
0300
0660
0630
0C18
0C0C
19FC
FF06
0006
ENDCHAR

STARTCHAR jisx0212_3027
ENCODING 12327
SWIDTH 960 0
DWIDTH 16 0
BBX 16 16 0 -2
BITMAP
0000
FFFF
0360
0360
0360
7F7F
6363
6363
6363
7F7F
6363
0360
0660
0660
1C60
7060
ENDCHAR

STARTCHAR jisx0212_3028
ENCODING 12328
SWIDTH 960 0
DWIDTH 16 0
BBX 16 16 0 -2
BITMAP
0000
FFFF
0660
0660
7FFF
6663
6663
6773
6D5B
6CDB
58CB
718B
6303
6003
6003
600F
ENDCHAR

STARTCHAR jisx0212_3029
ENCODING 12329
SWIDTH 960 0
DWIDTH 16 0
BBX 16 16 0 -2
BITMAP
0180
0180
0180
0180
0180
0180
0180
0180
0180
0180
0180
0180
0180
0180
0180
0180
ENDCHAR

STARTCHAR jisx0212_302A
ENCODING 12330
SWIDTH 960 0
DWIDTH 16 0
BBX 16 16 0 -2
BITMAP
0000
1818
0C30
0660
02C0
0180
0180
0180
0180
0180
0180
0180
0180
0180
0180
0180
ENDCHAR

STARTCHAR jisx0212_302B
ENCODING 12331
SWIDTH 960 0
DWIDTH 16 0
BBX 16 16 0 -2
BITMAP
0000
FFFC
000C
060C
060C
060C
7FEC
060C
060C
060C
FFEC
060D
0605
0605
0603
0601
ENDCHAR

STARTCHAR jisx0212_302C
ENCODING 12332
SWIDTH 960 0
DWIDTH 16 0
BBX 16 16 0 -2
BITMAP
0180
019C
0170
07C0
7D80
019C
0170
07C0
7D80
018E
0178
07C0
FD80
0180
0180
0180
ENDCHAR

STARTCHAR jisx0212_302D
ENCODING 12333
SWIDTH 960 0
DWIDTH 16 0
BBX 16 16 0 -2
BITMAP
0180
0180
0180
7FFE
0180
0180
0180
3FFC
0180
0180
0180
FFFF
0180
0180
0180
0180
ENDCHAR

STARTCHAR jisx0212_302E
ENCODING 12334
SWIDTH 960 0
DWIDTH 16 0
BBX 16 16 0 -2
BITMAP
0660
366C
366C
366C
366C
FFFF
0C30
0630
0660
7FFE
0180
0180
FFFF
0180
0180
0180
ENDCHAR

STARTCHAR jisx0212_302F
ENCODING 12335
SWIDTH 960 0
DWIDTH 16 0
BBX 16 16 0 -2
BITMAP
0000
0000
0C00
0C00
1C00
1600
3600
6300
0300
0180
00C0
0060
0038
000E
0003
0000
ENDCHAR

STARTCHAR jisx0212_3030
ENCODING 12336
SWIDTH 960 0
DWIDTH 16 0
BBX 16 16 0 -2
BITMAP
0000
1FF0
0030
0030
0030
0030
0030
0030
0018
0018
0018
000C
000C
0006
0003
0001
ENDCHAR

STARTCHAR jisx0212_3031
ENCODING 12337
SWIDTH 960 0
DWIDTH 16 0
BBX 16 16 0 -2
BITMAP
0018
0018
0018
0030
1C30
0730
0160
00E0
00B0
0198
018C
0306
6600
6C00
5800
7000
ENDCHAR

STARTCHAR jisx0212_3032
ENCODING 12338
SWIDTH 960 0
DWIDTH 16 0
BBX 16 16 0 -2
BITMAP
001C
00F0
0F80
FB00
0300
0300
0300
037F
FFC0
0300
0300
0300
0303
0303
0303
01FF
ENDCHAR

STARTCHAR jisx0212_3033
ENCODING 12339
SWIDTH 960 0
DWIDTH 16 0
BBX 16 16 0 -2
BITMAP
001C
03F0
7D80
0180
0D86
19CC
19D8
3170
6560
CDB0
0D98
198C
3187
6181
C180
0180
ENDCHAR

STARTCHAR jisx0212_3034
ENCODING 12340
SWIDTH 960 0
DWIDTH 16 0
BBX 16 16 0 -2
BITMAP
0000
3000
3000
3000
3000
3000
3000
3000
3000
3000
3000
3006
3006
3006
1FFE
0000
ENDCHAR

STARTCHAR jisx0212_3035
ENCODING 12341
SWIDTH 960 0
DWIDTH 16 0
BBX 16 16 0 -2
BITMAP
0C00
0C00
0C00
0C0E
0C76
0BC6
1E06
EC06
0C0C
0C0C
0C38
0C00
0C03
0C03
0C03
07FF
ENDCHAR

STARTCHAR jisx0212_3036
ENCODING 12342
SWIDTH 960 0
DWIDTH 16 0
BBX 16 16 0 -2
BITMAP
0C30
0C30
1830
1830
3030
B330
6330
3630
1630
0C30
1B30
1B30
31B1
6FB1
F8B1
00DF
ENDCHAR

STARTCHAR jisx0212_3037
ENCODING 12343
SWIDTH 960 0
DWIDTH 16 0
BBX 16 16 0 -2
BITMAP
0C30
1830
1830
3330
31B0
6FB0
F8B0
00B0
0030
7FB0
61B0
61B0
61B1
61B1
7FB1
619F
ENDCHAR

STARTCHAR jisx0212_3038
ENCODING 12344
SWIDTH 960 0
DWIDTH 16 0
BBX 16 16 0 -2
BITMAP
0C30
0C30
0C30
0C30
0FB0
0C30
0C30
0C30
0C30
7FB0
61B0
61B0
61B1
61B1
7FB1
619F
ENDCHAR

STARTCHAR jisx0212_3039
ENCODING 12345
SWIDTH 960 0
DWIDTH 16 0
BBX 16 16 0 -2
BITMAP
1807
18FC
FEC0
18C0
1EFF
F8CC
18CC
198C
770C
000C
7FC0
0180
0301
0601
0C01
07FF
ENDCHAR

STARTCHAR jisx0212_303A
ENCODING 12346
SWIDTH 960 0
DWIDTH 16 0
BBX 16 16 0 -2
BITMAP
0C30
0C30
0C30
7FB0
3330
3330
1630
1630
FFB0
0C30
0C30
7FB0
0C31
0C31
0C31
0C1F
ENDCHAR

STARTCHAR jisx0212_303B
ENCODING 12347
SWIDTH 960 0
DWIDTH 16 0
BBX 16 16 0 -2
BITMAP
0C30
0C30
FFB0
0C30
0C30
7FB0
61B0
7FB0
61B0
7FB0
0C30
0C30
FFB1
0C31
0C31
0C1F
ENDCHAR

STARTCHAR jisx0212_303C
ENCODING 12348
SWIDTH 960 0
DWIDTH 16 0
BBX 16 16 0 -2
BITMAP
03B0
3E30
61B0
6CB0
C6B0
0C30
5B30
3630
1B30
19B0
FEB0
0CB0
2B31
2DB1
6DB1
CC1F
ENDCHAR

STARTCHAR jisx0212_303D
ENCODING 12349
SWIDTH 960 0
DWIDTH 16 0
BBX 16 16 0 -2
BITMAP
0000
7FFE
0000
0000
0000
0000
FFFF
0180
0180
0180
0180
0180
0180
0180
0180
0F80
ENDCHAR

STARTCHAR jisx0212_303E
ENCODING 12350
SWIDTH 960 0
DWIDTH 16 0
BBX 16 16 0 -2
BITMAP
0000
3FFC
0000
0000
0000
0000
7FFF
0000
0000
0000
3FFE
0000
0000
0000
0000
FFFF
ENDCHAR

STARTCHAR jisx0212_303F
ENCODING 12351
SWIDTH 960 0
DWIDTH 16 0
BBX 16 16 0 -2
BITMAP
0180
0180
6186
6186
6186
6186
7FFE
6006
0000
0000
3FFC
0000
0000
0000
0000
FFFF
ENDCHAR

STARTCHAR jisx0212_3040
ENCODING 12352
SWIDTH 960 0
DWIDTH 16 0
BBX 16 16 0 -2
BITMAP
0180
0330
0318
06FC
3F86
1818
1616
3333
2FAF
F8F9
0000
0000
1FFC
0000
0000
7FFF
ENDCHAR

STARTCHAR jisx0212_3041
ENCODING 12353
SWIDTH 960 0
DWIDTH 16 0
BBX 16 16 0 -2
BITMAP
0180
0180
FFFF
0000
1FF8
1818
1818
1FF8
0000
7FFE
6006
6006
7FFE
6006
6006
7FFE
ENDCHAR

STARTCHAR jisx0212_3042
ENCODING 12354
SWIDTH 960 0
DWIDTH 16 0
BBX 16 16 0 -2
BITMAP
0180
FFFF
1800
77DE
6666
775E
6666
775E
6566
FFFF
D81B
DFFB
1818
1FF8
1818
FFFF
ENDCHAR

STARTCHAR jisx0212_3043
ENCODING 12355
SWIDTH 960 0
DWIDTH 16 0
BBX 16 16 0 -2
BITMAP
1800
1800
17FF
3030
3030
7030
7030
B030
3030
3030
3030
3030
3030
3030
3030
30F0
ENDCHAR

STARTCHAR jisx0212_3044
ENCODING 12356
SWIDTH 960 0
DWIDTH 16 0
BBX 16 16 0 -2
BITMAP
0180
02C0
0660
0C30
1818
718E
C183
0180
0180
7FFE
0180
0180
0180
0180
0180
0180
ENDCHAR

STARTCHAR jisx0212_3045
ENCODING 12357
SWIDTH 960 0
DWIDTH 16 0
BBX 16 16 0 -2
BITMAP
0180
02C0
0660
0C30
1818
700E
C183
0180
0180
6186
6186
6186
6186
6186
7FFE
6006
ENDCHAR

STARTCHAR jisx0212_3046
ENCODING 12358
SWIDTH 960 0
DWIDTH 16 0
BBX 16 16 0 -2
BITMAP
1800
180E
1878
37C0
30C0
70C0
70C0
B0BF
2FE0
30C0
30C0
30C0
30C0
30C3
30C3
307F
ENDCHAR

STARTCHAR jisx0212_3047
ENCODING 12359
SWIDTH 960 0
DWIDTH 16 0
BBX 16 16 0 -2
BITMAP
1800
1BFF
1830
3030
3030
7030
7030
B7FF
3030
3030
3030
3030
3030
3030
3030
3030
ENDCHAR

STARTCHAR jisx0212_3048
ENCODING 12360
SWIDTH 960 0
DWIDTH 16 0
BBX 16 16 0 -2
BITMAP
18C0
18C0
1980
31FF
3300
7300
7600
ABF0
3030
3060
30C0
3180
3181
3301
3301
31FF
ENDCHAR

STARTCHAR jisx0212_3049
ENCODING 12361
SWIDTH 960 0
DWIDTH 16 0
BBX 16 16 0 -2
BITMAP
18C0
18C0
1980
31FF
3303
7303
7603
ACC3
3063
3033
3033
3003
3003
3006
3006
303C
ENDCHAR

STARTCHAR jisx0212_304A
ENCODING 12362
SWIDTH 960 0
DWIDTH 16 0
BBX 16 16 0 -2
BITMAP
1800
17FF
1800
3000
3000
7000
7000
B3FE
3000
3000
3000
3000
3000
3000
2FFF
3000
ENDCHAR

STARTCHAR jisx0212_304B
ENCODING 12363
SWIDTH 960 0
DWIDTH 16 0
BBX 16 16 0 -2
BITMAP
1830
1830
1830
31AC
31B6
71B3
7333
B331
3635
3635
2CEC
300C
3018
3070
31C0
2F00
ENDCHAR

STARTCHAR jisx0212_304C
ENCODING 12364
SWIDTH 960 0
DWIDTH 16 0
BBX 16 16 0 -2
BITMAP
18E0
18B0
1998
318C
3306
7603
6DF9
B000
3000
37FE
3006
300C
300C
3018
3018
3030
ENDCHAR

STARTCHAR jisx0212_304D
ENCODING 12365
SWIDTH 960 0
DWIDTH 16 0
BBX 16 16 0 -2
BITMAP
1B18
1B18
1B18
3318
3319
731B
73D6
B31C
3318
3318
3318
3318
3318
3359
33D9
2F0F
ENDCHAR

STARTCHAR jisx0212_304E
ENCODING 12366
SWIDTH 960 0
DWIDTH 16 0
BBX 16 16 0 -2
BITMAP
1980
1980
1980
33FF
3330
7330
7630
AC30
3030
2FFF
3030
3030
3030
3030
3030
3030
ENDCHAR

STARTCHAR jisx0212_304F
ENCODING 12367
SWIDTH 960 0
DWIDTH 16 0
BBX 16 16 0 -2
BITMAP
19FC
180C
198C
318C
3306
7306
7603
ABFD
30C6
30C6
30C6
3186
3186
330C
360C
2C78
ENDCHAR

STARTCHAR jisx0212_3050
ENCODING 12368
SWIDTH 960 0
DWIDTH 16 0
BBX 16 16 0 -2
BITMAP
1800
17FF
1980
3180
3180
73FE
7306
B306
3306
360C
37FC
360C
360C
3018
3018
2FFF
ENDCHAR

STARTCHAR jisx0212_3051
ENCODING 12369
SWIDTH 960 0
DWIDTH 16 0
BBX 16 16 0 -2
BITMAP
1860
1860
1860
2FFF
30C0
70C0
70C0
B0FE
30C6
3186
3186
3186
3306
330C
360C
2C78
ENDCHAR

STARTCHAR jisx0212_3052
ENCODING 12370
SWIDTH 960 0
DWIDTH 16 0
BBX 16 16 0 -2
BITMAP
18FC
180C
198C
3186
3306
7303
7663
AC61
30C0
30C0
30CC
3186
3183
333F
2FE1
3001
ENDCHAR

STARTCHAR jisx0212_3053
ENCODING 12371
SWIDTH 960 0
DWIDTH 16 0
BBX 16 16 0 -2
BITMAP
1830
1830
1830
37FF
3030
7030
73FF
B333
3333
3333
3333
3333
3333
332F
3030
3030
ENDCHAR

STARTCHAR jisx0212_3054
ENCODING 12372
SWIDTH 960 0
DWIDTH 16 0
BBX 16 16 0 -2
BITMAP
1800
17FF
1806
318C
30D8
7070
7030
AFFF
3031
3033
3036
3030
3030
3030
3030
31F0
ENDCHAR

STARTCHAR jisx0212_3055
ENCODING 12373
SWIDTH 960 0
DWIDTH 16 0
BBX 16 16 0 -2
BITMAP
1800
1870
181C
3006
30C0
70C0
70C6
B6C3
36C3
36C1
36C1
2CC1
2CC1
30C6
30C6
307E
ENDCHAR

STARTCHAR jisx0212_3056
ENCODING 12374
SWIDTH 960 0
DWIDTH 16 0
BBX 16 16 0 -2
BITMAP
1800
17FE
18C6
30C6
30CC
70CC
71FF
B163
3163
31B6
31B6
331C
331C
3636
36E3
2B81
ENDCHAR

STARTCHAR jisx0212_3057
ENCODING 12375
SWIDTH 960 0
DWIDTH 16 0
BBX 16 16 0 -2
BITMAP
1800
1BFF
1B00
3300
3300
737F
7363
B363
3363
3363
336F
3360
3660
3661
3661
2C3F
ENDCHAR

STARTCHAR jisx0212_3058
ENCODING 12376
SWIDTH 960 0
DWIDTH 16 0
BBX 16 16 0 -2
BITMAP
1803
181E
19F0
3180
3180
7180
71FF
B18C
318C
318C
318C
330C
330C
330C
360C
2C0C
ENDCHAR

STARTCHAR jisx0212_3059
ENCODING 12377
SWIDTH 960 0
DWIDTH 16 0
BBX 16 16 0 -2
BITMAP
1830
1830
1830
33FF
3030
7030
7030
B7FF
3030
3030
3058
3058
30CC
3186
3303
2E01
ENDCHAR

STARTCHAR jisx0212_305A
ENCODING 12378
SWIDTH 960 0
DWIDTH 16 0
BBX 16 16 0 -2
BITMAP
18C0
18C0
18C0
2FFF
30C0
70C0
70FE
B0C6
31C6
316C
316C
3338
3338
366C
2DC7
3701
ENDCHAR

STARTCHAR jisx0212_305B
ENCODING 12379
SWIDTH 960 0
DWIDTH 16 0
BBX 16 16 0 -2
BITMAP
01C0
0360
0630
0C18
180C
7007
C001
0C30
0C30
0C30
0C30
1658
1B58
32CC
6186
C703
ENDCHAR

STARTCHAR jisx0212_305C
ENCODING 12380
SWIDTH 960 0
DWIDTH 16 0
BBX 16 16 0 -2
BITMAP
1830
1830
1830
3031
3333
7336
732C
B330
3670
3658
3058
30CC
30CC
3186
3303
2E01
ENDCHAR

STARTCHAR jisx0212_305D
ENCODING 12381
SWIDTH 960 0
DWIDTH 16 0
BBX 16 16 0 -2
BITMAP
1B00
1B7F
1B33
3333
2FB3
76B3
76B3
B6B3
36D6
36D6
2ED6
2D8C
2DCC
3356
3633
2C61
ENDCHAR

STARTCHAR jisx0212_305E
ENCODING 12382
SWIDTH 960 0
DWIDTH 16 0
BBX 16 16 0 -2
BITMAP
1830
1858
18CC
3186
3303
7631
6C30
B030
31B6
31B3
3333
3331
3631
2C31
3030
30F0
ENDCHAR

STARTCHAR jisx0212_305F
ENCODING 12383
SWIDTH 960 0
DWIDTH 16 0
BBX 16 16 0 -2
BITMAP
1980
1980
1980
33FF
3331
7333
7630
ADAC
31B6
31B3
3333
3331
3631
2C31
3030
31F0
ENDCHAR

STARTCHAR jisx0212_3060
ENCODING 12384
SWIDTH 960 0
DWIDTH 16 0
BBX 16 16 0 -2
BITMAP
186C
1B6C
1B6C
336C
336C
6FFF
736C
B36C
336C
336C
337C
336C
3300
3300
33FF
3300
ENDCHAR

STARTCHAR jisx0212_3061
ENCODING 12385
SWIDTH 960 0
DWIDTH 16 0
BBX 16 16 0 -2
BITMAP
1800
17FF
16DB
36DB
36DB
76DB
76DB
B6DB
36DB
359B
359F
3703
3603
3603
37FF
3603
ENDCHAR

STARTCHAR jisx0212_3062
ENCODING 12386
SWIDTH 960 0
DWIDTH 16 0
BBX 16 16 0 -2
BITMAP
1830
1830
1830
3030
33FF
7333
7333
B333
3333
33FF
3333
3333
3333
3333
33FF
3303
ENDCHAR

STARTCHAR jisx0212_3063
ENCODING 12387
SWIDTH 960 0
DWIDTH 16 0
BBX 16 16 0 -2
BITMAP
1800
1BFE
1B06
3306
3306
73FE
7306
B306
3306
33FE
3306
3306
3306
3306
2FFF
3000
ENDCHAR

STARTCHAR jisx0212_3064
ENCODING 12388
SWIDTH 960 0
DWIDTH 16 0
BBX 16 16 0 -2
BITMAP
1800
1BFF
1830
31B6
31B3
7333
7331
B631
3030
2FFF
3030
3030
3030
3030
3030
3030
ENDCHAR

STARTCHAR jisx0212_3065
ENCODING 12389
SWIDTH 960 0
DWIDTH 16 0
BBX 16 16 0 -2
BITMAP
1800
17FF
1830
3060
3060
70C0
70D8
B16C
3366
3663
2C61
3060
3060
3060
3000
2FFF
ENDCHAR

STARTCHAR jisx0212_3066
ENCODING 12390
SWIDTH 960 0
DWIDTH 16 0
BBX 16 16 0 -2
BITMAP
1800
1BFE
1B06
3306
3306
7306
73FE
B300
3300
33FF
3303
3303
3303
3303
33FF
3303
ENDCHAR

STARTCHAR jisx0212_3067
ENCODING 12391
SWIDTH 960 0
DWIDTH 16 0
BBX 16 16 0 -2
BITMAP
1800
17FF
1830
3030
3030
7030
7330
B33F
3330
3330
3330
3330
3330
3330
2FFF
3000
ENDCHAR

STARTCHAR jisx0212_3068
ENCODING 12392
SWIDTH 960 0
DWIDTH 16 0
BBX 16 16 0 -2
BITMAP
18C0
18C0
18C0
2FFF
3180
71B0
7330
B3FF
3733
2B33
3B33
3333
3333
332F
3030
3030
ENDCHAR

STARTCHAR jisx0212_3069
ENCODING 12393
SWIDTH 960 0
DWIDTH 16 0
BBX 16 16 0 -2
BITMAP
1830
1830
1830
33FF
3030
7030
7030
B7FF
3030
3060
306C
30C6
30C3
31BF
37E1
3001
ENDCHAR

STARTCHAR jisx0212_306A
ENCODING 12394
SWIDTH 960 0
DWIDTH 16 0
BBX 16 16 0 -2
BITMAP
1800
17FF
18C3
30C3
30C3
7183
7186
B33C
2E00
33FF
3303
3303
3303
3303
33FF
3303
ENDCHAR

STARTCHAR jisx0212_306B
ENCODING 12395
SWIDTH 960 0
DWIDTH 16 0
BBX 16 16 0 -2
BITMAP
18CC
18CC
18CC
30CC
36CD
76CB
76EE
B6CC
36CC
36CC
36CC
36CC
36CC
36ED
37CD
2E0F
ENDCHAR

STARTCHAR jisx0212_306C
ENCODING 12396
SWIDTH 960 0
DWIDTH 16 0
BBX 16 16 0 -2
BITMAP
1830
1830
1830
33FF
3333
7333
7333
B333
3333
2FFF
3030
3058
3058
30CC
3387
2E01
ENDCHAR

STARTCHAR jisx0212_306D
ENCODING 12397
SWIDTH 960 0
DWIDTH 16 0
BBX 16 16 0 -2
BITMAP
1860
1860
1860
3060
307F
7060
7060
B060
3060
33FF
3303
3303
3303
3303
33FF
3303
ENDCHAR

STARTCHAR jisx0212_306E
ENCODING 12398
SWIDTH 960 0
DWIDTH 16 0
BBX 16 16 0 -2
BITMAP
18C0
1860
1836
3186
318C
718C
7198
B596
35B3
35B3
2D61
2DC1
318C
338C
36FC
2C00
ENDCHAR

STARTCHAR jisx0212_306F
ENCODING 12399
SWIDTH 960 0
DWIDTH 16 0
BBX 16 16 0 -2
BITMAP
0180
02C0
0660
0C30
1818
700E
DFFB
0000
0000
7FFE
0180
0DB0
199C
7186
C183
0780
ENDCHAR

STARTCHAR jisx0212_3070
ENCODING 12400
SWIDTH 960 0
DWIDTH 16 0
BBX 16 16 0 -2
BITMAP
18C0
18C0
18FE
3186
318C
72CC
7658
AC70
30D8
338E
2EE3
3038
3000
3007
307C
33C0
ENDCHAR

STARTCHAR jisx0212_3071
ENCODING 12401
SWIDTH 960 0
DWIDTH 16 0
BBX 16 16 0 -2
BITMAP
1800
17FF
1663
3663
3663
77FF
7663
B663
3663
37FF
3663
3663
3663
3663
2C63
2C0F
ENDCHAR

STARTCHAR jisx0212_3072
ENCODING 12402
SWIDTH 960 0
DWIDTH 16 0
BBX 16 16 0 -2
BITMAP
1800
17FF
1603
3603
36FB
76DB
76DB
B6DB
36DB
36DB
36DB
36FB
3603
3603
37FF
3603
ENDCHAR

STARTCHAR jisx0212_3073
ENCODING 12403
SWIDTH 960 0
DWIDTH 16 0
BBX 16 16 0 -2
BITMAP
18C0
18C3
17F6
30C6
30CC
70D8
6FFF
B030
3160
31C6
339C
2DF0
3180
3183
3183
30FF
ENDCHAR

STARTCHAR jisx0212_3074
ENCODING 12404
SWIDTH 960 0
DWIDTH 16 0
BBX 16 16 0 -2
BITMAP
1870
18D8
18D8
318C
318C
7306
75FB
AC01
3000
33FE
3306
3306
3306
3306
33FE
3306
ENDCHAR

STARTCHAR jisx0212_3075
ENCODING 12405
SWIDTH 960 0
DWIDTH 16 0
BBX 16 16 0 -2
BITMAP
01C0
0360
0630
0C18
180C
77F7
C001
0000
7FFF
00C0
18C0
18FE
18C0
18C0
18C0
FFFF
ENDCHAR

STARTCHAR jisx0212_3076
ENCODING 12406
SWIDTH 960 0
DWIDTH 16 0
BBX 16 16 0 -2
BITMAP
1800
1BFF
1B03
3303
33FF
7303
7303
B3FF
3330
3331
331B
3316
330C
3376
33C3
2E01
ENDCHAR

STARTCHAR jisx0212_3077
ENCODING 12407
SWIDTH 960 0
DWIDTH 16 0
BBX 16 16 0 -2
BITMAP
1800
180F
1BF8
3030
3030
77FF
7030
B030
3030
33FF
3303
3303
3303
3303
33FF
3303
ENDCHAR

STARTCHAR jisx0212_3078
ENCODING 12408
SWIDTH 960 0
DWIDTH 16 0
BBX 16 16 0 -2
BITMAP
18C0
18C0
19FC
318C
3318
77FF
6B00
B37E
3366
3366
3366
335E
3660
3661
3661
2C3F
ENDCHAR

STARTCHAR jisx0212_3079
ENCODING 12409
SWIDTH 960 0
DWIDTH 16 0
BBX 16 16 0 -2
BITMAP
1800
1BF0
1858
30CC
3186
7303
7601
ABFF
3030
3030
3030
31FE
3030
3030
3030
37FF
ENDCHAR

STARTCHAR jisx0212_307A
ENCODING 12410
SWIDTH 960 0
DWIDTH 16 0
BBX 16 16 0 -2
BITMAP
1830
1830
1830
2F60
307F
70D9
70DB
B19B
30D6
3398
2E2C
302C
3066
30C6
3383
2E01
ENDCHAR

STARTCHAR jisx0212_307B
ENCODING 12411
SWIDTH 960 0
DWIDTH 16 0
BBX 16 16 0 -2
BITMAP
19FC
180C
1B06
3306
3603
6BFD
7306
B306
33FE
3306
3306
33FE
3306
3306
3606
2C1E
ENDCHAR

STARTCHAR jisx0212_307C
ENCODING 12412
SWIDTH 960 0
DWIDTH 16 0
BBX 16 16 0 -2
BITMAP
1860
1B60
1B60
37FF
3660
6C60
7060
AFFF
3198
3198
3198
3198
3318
3319
3619
2C0F
ENDCHAR

STARTCHAR jisx0212_307D
ENCODING 12413
SWIDTH 960 0
DWIDTH 16 0
BBX 16 16 0 -2
BITMAP
1830
1830
17FF
3600
3606
763C
75F0
B630
3630
363F
35F0
3630
3630
3631
2C31
2C1F
ENDCHAR

STARTCHAR jisx0212_307E
ENCODING 12414
SWIDTH 960 0
DWIDTH 16 0
BBX 16 16 0 -2
BITMAP
1800
17FF
1860
3060
30CC
70C6
71BB
B7E1
3030
3030
3030
33FF
3030
3030
3030
37FF
ENDCHAR

STARTCHAR jisx0212_3121
ENCODING 12577
SWIDTH 960 0
DWIDTH 16 0
BBX 16 16 0 -2
BITMAP
1830
1830
1830
37FF
3030
7060
72CC
B198
30B3
3066
30CC
3398
362C
3066
31C3
3701
ENDCHAR

STARTCHAR jisx0212_3122
ENCODING 12578
SWIDTH 960 0
DWIDTH 16 0
BBX 16 16 0 -2
BITMAP
18C0
18C0
1FFF
31B0
3318
73EC
7607
AC01
37FE
3180
3180
33FE
3306
3306
300C
3078
ENDCHAR

STARTCHAR jisx0212_3123
ENCODING 12579
SWIDTH 960 0
DWIDTH 16 0
BBX 16 16 0 -2
BITMAP
1860
1863
1663
3666
3366
736C
7060
AFFF
3198
3198
3198
3198
3318
3319
3619
2C0F
ENDCHAR

STARTCHAR jisx0212_3124
ENCODING 12580
SWIDTH 960 0
DWIDTH 16 0
BBX 16 16 0 -2
BITMAP
01C0
0360
0630
0C18
37EE
E003
1FF8
0018
0030
3FFE
0000
FFFF
0330
061C
0DF6
7F03
ENDCHAR

STARTCHAR jisx0212_3125
ENCODING 12581
SWIDTH 960 0
DWIDTH 16 0
BBX 16 16 0 -2
BITMAP
1860
1663
1663
3366
3366
736C
7060
AFFF
30F0
3158
316C
3366
3663
2C61
3060
3060
ENDCHAR

STARTCHAR jisx0212_3126
ENCODING 12582
SWIDTH 960 0
DWIDTH 16 0
BBX 16 16 0 -2
BITMAP
1860
1860
18C0
37FF
36DB
76DB
76DB
B6DB
36DB
36DB
36DB
36DB
36DB
36DB
36DB
2FFF
ENDCHAR

STARTCHAR jisx0212_3127
ENCODING 12583
SWIDTH 960 0
DWIDTH 16 0
BBX 16 16 0 -2
BITMAP
1860
1860
17FF
3603
3663
7060
70C0
AFFF
318C
318C
3318
33D8
3638
306C
31C6
2F03
ENDCHAR

STARTCHAR jisx0212_3128
ENCODING 12584
SWIDTH 960 0
DWIDTH 16 0
BBX 16 16 0 -2
BITMAP
1860
1860
17FE
3066
2FFF
7066
77FE
B060
3060
37FF
3060
3060
2FFF
3060
3060
3060
ENDCHAR

STARTCHAR jisx0212_3129
ENCODING 12585
SWIDTH 960 0
DWIDTH 16 0
BBX 16 16 0 -2
BITMAP
1860
18CC
18C6
31BB
37E1
7030
7330
B3FF
3630
3630
3030
2FFF
3030
3030
3030
3030
ENDCHAR

STARTCHAR jisx0212_312A
ENCODING 12586
SWIDTH 960 0
DWIDTH 16 0
BBX 16 16 0 -2
BITMAP
1800
17FF
1603
3603
35FB
7603
7603
B6FB
36DB
36DB
36DB
36FB
36C3
36C3
3603
360F
ENDCHAR

STARTCHAR jisx0212_312B
ENCODING 12587
SWIDTH 960 0
DWIDTH 16 0
BBX 16 16 0 -2
BITMAP
1818
1816
181B
3018
2FFF
7018
7018
B018
37D8
318C
318C
318C
31B5
31E5
2F03
3001
ENDCHAR

STARTCHAR jisx0212_312C
ENCODING 12588
SWIDTH 960 0
DWIDTH 16 0
BBX 16 16 0 -2
BITMAP
1980
1980
1B00
33FF
3603
7603
6BF3
B333
3333
33F3
3333
3333
33F3
3306
3006
303C
ENDCHAR

STARTCHAR jisx0212_312D
ENCODING 12589
SWIDTH 960 0
DWIDTH 16 0
BBX 16 16 0 -2
BITMAP
1B00
1B00
1B3F
3333
2FB3
76B3
76B3
B6B3
36B3
2CB3
2DB3
2BB3
31B3
32BF
3633
2C30
ENDCHAR

STARTCHAR jisx0212_312E
ENCODING 12590
SWIDTH 960 0
DWIDTH 16 0
BBX 16 16 0 -2
BITMAP
18C0
18C0
1980
2FFF
3180
7300
72FF
B706
371C
2B18
3AFF
3318
3318
3318
3318
3378
ENDCHAR

STARTCHAR jisx0212_312F
ENCODING 12591
SWIDTH 960 0
DWIDTH 16 0
BBX 16 16 0 -2
BITMAP
1800
17FF
1600
3600
36FE
7600
7600
B7FF
36D8
36D9
36DB
36CE
36CC
36C6
2CFB
2BC1
ENDCHAR

STARTCHAR jisx0212_3130
ENCODING 12592
SWIDTH 960 0
DWIDTH 16 0
BBX 16 16 0 -2
BITMAP
1800
1BFF
1B03
3303
33FF
7300
7300
B3FF
3301
32FD
32CD
32CD
36FD
36C1
3603
2C1E
ENDCHAR

STARTCHAR jisx0212_3131
ENCODING 12593
SWIDTH 960 0
DWIDTH 16 0
BBX 16 16 0 -2
BITMAP
1800
1783
19BE
318C
330C
730C
77BF
B6CC
30CC
36CC
36CC
2B8C
31BF
32C0
3670
2C1F
ENDCHAR

STARTCHAR jisx0212_3132
ENCODING 12594
SWIDTH 960 0
DWIDTH 16 0
BBX 16 16 0 -2
BITMAP
19FC
180C
198C
3186
3306
77FF
6B05
B306
3306
33FE
30D8
30D8
30D8
3199
3319
2E0F
ENDCHAR

STARTCHAR jisx0212_3133
ENCODING 12595
SWIDTH 960 0
DWIDTH 16 0
BBX 16 16 0 -2
BITMAP
1830
1830
17FF
3030
3030
77FF
7601
B5FD
300C
3038
3030
37FF
3030
3030
3030
30F0
ENDCHAR

STARTCHAR jisx0212_3134
ENCODING 12596
SWIDTH 960 0
DWIDTH 16 0
BBX 16 16 0 -2
BITMAP
1800
17FF
1663
3663
37FF
7663
7663
B7FF
3060
3060
2FFF
30C1
30C1
3181
3303
2E1E
ENDCHAR

STARTCHAR jisx0212_3135
ENCODING 12597
SWIDTH 960 0
DWIDTH 16 0
BBX 16 16 0 -2
BITMAP
18C0
18C3
17F6
30CC
30D8
6FFF
7060
B0FE
318C
3738
3C30
37FF
3030
3030
3030
30F0
ENDCHAR

STARTCHAR jisx0212_3136
ENCODING 12598
SWIDTH 960 0
DWIDTH 16 0
BBX 16 16 0 -2
BITMAP
180F
1BF8
1B0C
3366
3333
7619
7600
AC60
3060
2FFF
30C6
3186
31EC
331E
3073
2FC1
ENDCHAR

STARTCHAR jisx0212_3137
ENCODING 12599
SWIDTH 960 0
DWIDTH 16 0
BBX 16 16 0 -2
BITMAP
1800
18FE
16C6
36C6
36C6
76FE
7600
B600
37FE
3066
3066
2FFF
3070
30D8
338E
2E03
ENDCHAR

STARTCHAR jisx0212_3138
ENCODING 12600
SWIDTH 960 0
DWIDTH 16 0
BBX 16 16 0 -2
BITMAP
186C
1866
1860
2FFF
3060
7663
7676
B36C
3358
3058
316C
3366
3663
2C61
3060
31E0
ENDCHAR

STARTCHAR jisx0212_3139
ENCODING 12601
SWIDTH 960 0
DWIDTH 16 0
BBX 16 16 0 -2
BITMAP
1830
1858
18CC
3186
3303
7601
6DFE
B030
3030
37FF
3030
3336
3333
3631
2C31
30F0
ENDCHAR

STARTCHAR jisx0212_313A
ENCODING 12602
SWIDTH 960 0
DWIDTH 16 0
BBX 16 16 0 -2
BITMAP
1830
19B0
19B0
33FF
3330
7630
7030
B7FF
3030
3000
33FF
3303
3303
3303
33FF
3303
ENDCHAR

STARTCHAR jisx0212_313B
ENCODING 12603
SWIDTH 960 0
DWIDTH 16 0
BBX 16 16 0 -2
BITMAP
1800
17FF
18C0
30C0
37FC
718C
718C
AFFF
3000
3000
33FE
3306
3306
3306
33FE
3306
ENDCHAR

STARTCHAR jisx0212_313C
ENCODING 12604
SWIDTH 960 0
DWIDTH 16 0
BBX 16 16 0 -2
BITMAP
1800
1BFE
1B06
3306
33FE
7000
77FF
B663
3663
3663
37FF
3603
3600
3601
3601
33FF
ENDCHAR

STARTCHAR jisx0212_313D
ENCODING 12605
SWIDTH 960 0
DWIDTH 16 0
BBX 16 16 0 -2
BITMAP
186C
1866
1FFF
3060
3060
77FF
7663
B663
37FF
3663
3663
37FF
3663
3663
3663
366F
ENDCHAR

STARTCHAR jisx0212_313E
ENCODING 12606
SWIDTH 960 0
DWIDTH 16 0
BBX 16 16 0 -2
BITMAP
1830
1830
1BFF
3303
3303
73FF
7303
B303
33FF
3331
3333
3316
331C
330C
32F6
2F83
ENDCHAR

STARTCHAR jisx0212_313F
ENCODING 12607
SWIDTH 960 0
DWIDTH 16 0
BBX 16 16 0 -2
BITMAP
1860
196C
1B66
3363
3661
6BFD
7306
B306
33FE
3306
3306
33FE
3306
3306
3306
331E
ENDCHAR

STARTCHAR jisx0212_3140
ENCODING 12608
SWIDTH 960 0
DWIDTH 16 0
BBX 16 16 0 -2
BITMAP
1830
1830
17FF
3601
3601
71FE
7000
B000
37FF
30D8
30D8
30D8
3198
3199
3319
2E0F
ENDCHAR

STARTCHAR jisx0212_3141
ENCODING 12609
SWIDTH 960 0
DWIDTH 16 0
BBX 16 16 0 -2
BITMAP
1860
17FF
1663
3663
37FF
7663
7663
B7FF
3000
2FFF
3180
31FF
3303
3303
3006
303C
ENDCHAR

STARTCHAR jisx0212_3142
ENCODING 12610
SWIDTH 960 0
DWIDTH 16 0
BBX 16 16 0 -2
BITMAP
1860
1860
1860
2FFF
3060
7366
7366
B366
356B
356B
2C58
30B0
30D8
318C
3307
2E01
ENDCHAR

STARTCHAR jisx0212_3143
ENCODING 12611
SWIDTH 960 0
DWIDTH 16 0
BBX 16 16 0 -2
BITMAP
1980
1980
1BFF
338C
36D8
6C70
70D8
B38E
2E63
30CC
3398
2E73
31C6
371C
30F0
3780
ENDCHAR

STARTCHAR jisx0212_3144
ENCODING 12612
SWIDTH 960 0
DWIDTH 16 0
BBX 16 16 0 -2
BITMAP
1800
19C0
173F
3333
3333
6FB3
7333
B333
37B3
36B3
36B3
2B33
2B33
333F
3333
3330
ENDCHAR

STARTCHAR jisx0212_3145
ENCODING 12613
SWIDTH 960 0
DWIDTH 16 0
BBX 16 16 0 -2
BITMAP
198C
198C
198C
2FEC
303F
76CD
766D
AC6D
30CD
36CD
3399
3199
32D9
36B3
2C63
30CE
ENDCHAR

STARTCHAR jisx0212_3146
ENCODING 12614
SWIDTH 960 0
DWIDTH 16 0
BBX 16 16 0 -2
BITMAP
1860
1860
17FF
30C0
30CC
71BE
77E3
B001
33FE
3306
33FE
3306
33FE
3306
3306
331E
ENDCHAR

STARTCHAR jisx0212_3147
ENCODING 12615
SWIDTH 960 0
DWIDTH 16 0
BBX 16 16 0 -2
BITMAP
180C
18EC
1798
3618
361F
762D
77ED
B6CB
36CB
36CC
36CC
36D6
36D6
36DB
2CB3
2CB1
ENDCHAR

STARTCHAR jisx0212_3148
ENCODING 12616
SWIDTH 960 0
DWIDTH 16 0
BBX 16 16 0 -2
BITMAP
1860
187E
1860
37FF
3661
7663
77FC
B663
367F
3600
36D8
36D8
36D8
2CD9
2D99
2B0F
ENDCHAR

STARTCHAR jisx0212_3149
ENCODING 12617
SWIDTH 960 0
DWIDTH 16 0
BBX 16 16 0 -2
BITMAP
1800
1BFF
1B00
33FE
3300
73FE
7300
B300
2FFF
3330
3333
3316
331C
330C
32F6
2F83
ENDCHAR

STARTCHAR jisx0212_314A
ENCODING 12618
SWIDTH 960 0
DWIDTH 16 0
BBX 16 16 0 -2
BITMAP
1B00
1B00
1B1F
37DB
359B
759B
6D9B
B19B
2FDB
319B
319B
31DB
335B
335F
361B
2C18
ENDCHAR

STARTCHAR jisx0212_314B
ENCODING 12619
SWIDTH 960 0
DWIDTH 16 0
BBX 16 16 0 -2
BITMAP
1B86
18EC
1878
37CC
3066
6FFF
70C0
B180
31FE
3386
35FE
2D86
31FE
3186
3186
319E
ENDCHAR

STARTCHAR jisx0212_314C
ENCODING 12620
SWIDTH 960 0
DWIDTH 16 0
BBX 16 16 0 -2
BITMAP
1860
1860
1FFF
2C01
2B01
7300
73BF
B6B3
36B3
36B3
2AB3
39AF
31B0
3331
3631
2C1F
ENDCHAR

STARTCHAR jisx0212_314D
ENCODING 12621
SWIDTH 960 0
DWIDTH 16 0
BBX 16 16 0 -2
BITMAP
19FC
180C
198C
3366
3366
76DB
6CCD
B1BE
37E3
3000
3060
31B6
359B
3581
2D8D
2CFC
ENDCHAR

STARTCHAR jisx0212_314E
ENCODING 12622
SWIDTH 960 0
DWIDTH 16 0
BBX 16 16 0 -2
BITMAP
1830
1830
17FF
3601
3601
71FE
7186
B186
31FE
3180
3180
31FF
3183
3183
31FF
3183
ENDCHAR

STARTCHAR jisx0212_314F
ENCODING 12623
SWIDTH 960 0
DWIDTH 16 0
BBX 16 16 0 -2
BITMAP
18D8
18D8
17FF
36DB
36DB
76DB
77FF
B6DB
36DB
36DB
2FFF
3000
318C
3306
3603
2C01
ENDCHAR

STARTCHAR jisx0212_3150
ENCODING 12624
SWIDTH 960 0
DWIDTH 16 0
BBX 16 16 0 -2
BITMAP
1830
1860
187F
36E3
35B6
761C
766E
B5C3
3618
36D9
36DB
36D6
3598
302C
30E7
3381
ENDCHAR

STARTCHAR jisx0212_3151
ENCODING 12625
SWIDTH 960 0
DWIDTH 16 0
BBX 16 16 0 -2
BITMAP
1830
19B3
19B6
332C
3658
7058
70CE
B3B3
2E30
31B3
31B6
335C
3658
30CC
3387
2E01
ENDCHAR

STARTCHAR jisx0212_3152
ENCODING 12626
SWIDTH 960 0
DWIDTH 16 0
BBX 16 16 0 -2
BITMAP
1800
17DF
16DB
36DB
36DB
76DB
75D7
B6DB
36DB
36DB
35D7
36DB
36DB
2CB3
2CB3
2BAF
ENDCHAR

STARTCHAR jisx0212_3153
ENCODING 12627
SWIDTH 960 0
DWIDTH 16 0
BBX 16 16 0 -2
BITMAP
1860
1B6C
1B66
3663
3661
6FFF
7603
B603
36FB
36DB
36DB
36DB
36FB
36C3
3603
360F
ENDCHAR

STARTCHAR jisx0212_3154
ENCODING 12628
SWIDTH 960 0
DWIDTH 16 0
BBX 16 16 0 -2
BITMAP
198C
198C
17FF
318C
318C
71FC
718C
B18C
31FC
318C
318C
2FFF
3000
319C
3306
2E03
ENDCHAR

STARTCHAR jisx0212_3155
ENCODING 12629
SWIDTH 960 0
DWIDTH 16 0
BBX 16 16 0 -2
BITMAP
1800
17FF
1603
3663
35FB
7663
7663
B5FB
3663
3603
35FB
359B
359B
2DFB
2D83
2C0F
ENDCHAR

STARTCHAR jisx0212_3156
ENCODING 12630
SWIDTH 960 0
DWIDTH 16 0
BBX 16 16 0 -2
BITMAP
0C18
0C18
FFD8
0C18
0C18
7F98
6198
7F98
6198
7FAC
0C2C
0C2C
FFE6
0C66
0CC3
0B81
ENDCHAR

STARTCHAR jisx0212_3157
ENCODING 12631
SWIDTH 960 0
DWIDTH 16 0
BBX 16 16 0 -2
BITMAP
1830
1830
17FF
3000
3000
73FF
7303
B303
3303
33FF
3030
31B6
3333
3631
2C31
30F0
ENDCHAR

STARTCHAR jisx0212_3158
ENCODING 12632
SWIDTH 960 0
DWIDTH 16 0
BBX 16 16 0 -2
BITMAP
1830
1830
17FF
3030
33FF
7033
77FF
B033
33FF
3030
31B0
31BF
3330
33B0
36B0
2C7F
ENDCHAR

STARTCHAR jisx0212_3159
ENCODING 12633
SWIDTH 960 0
DWIDTH 16 0
BBX 16 16 0 -2
BITMAP
1830
1830
17FF
3601
3601
7000
71FE
B000
3000
37FF
3030
31B6
3333
3631
2C31
30F0
ENDCHAR

STARTCHAR jisx0212_315A
ENCODING 12634
SWIDTH 960 0
DWIDTH 16 0
BBX 16 16 0 -2
BITMAP
1800
1BFF
1B33
3333
33FF
7333
7333
B3FF
3030
3030
37FF
3078
30AC
33B7
2E31
3030
ENDCHAR

STARTCHAR jisx0212_315B
ENCODING 12635
SWIDTH 960 0
DWIDTH 16 0
BBX 16 16 0 -2
BITMAP
1830
1830
1BFF
3030
3030
77FF
70D8
B0D9
315F
36C0
30FE
31C6
336C
3638
30EE
3783
ENDCHAR

STARTCHAR jisx0212_315C
ENCODING 12636
SWIDTH 960 0
DWIDTH 16 0
BBX 16 16 0 -2
BITMAP
1830
1830
17FF
3030
3030
73FF
7333
B3FF
3333
33FF
3078
30AC
31B6
3733
2C31
3030
ENDCHAR

STARTCHAR jisx0212_315D
ENCODING 12637
SWIDTH 960 0
DWIDTH 16 0
BBX 16 16 0 -2
BITMAP
1860
1860
1FFF
3060
37FE
7666
77FE
B060
37FE
3066
2FFF
3066
37FE
3060
3060
31E0
ENDCHAR

STARTCHAR jisx0212_315E
ENCODING 12638
SWIDTH 960 0
DWIDTH 16 0
BBX 16 16 0 -2
BITMAP
1818
1816
17DB
3019
3018
6FFF
70D8
B0D8
36D8
36EC
36CC
36CD
36C5
36B5
35E3
2F01
ENDCHAR

STARTCHAR jisx0212_315F
ENCODING 12639
SWIDTH 960 0
DWIDTH 16 0
BBX 16 16 0 -2
BITMAP
18CC
18CC
17FF
30CC
30AC
7030
73FF
B333
3333
3333
37FF
3030
3058
30CC
3387
2E01
ENDCHAR

STARTCHAR jisx0212_3160
ENCODING 12640
SWIDTH 960 0
DWIDTH 16 0
BBX 16 16 0 -2
BITMAP
180E
1BF8
1B66
3333
3619
7630
6BFF
B333
3333
37FF
3333
3333
37FF
3303
3303
330F
ENDCHAR

STARTCHAR jisx0212_3161
ENCODING 12641
SWIDTH 960 0
DWIDTH 16 0
BBX 16 16 0 -2
BITMAP
1B0C
198C
1998
2FFF
3000
7000
77C3
B6DB
36DB
35DB
36DB
36DB
35DB
36C3
36C3
35CF
ENDCHAR

STARTCHAR jisx0212_3162
ENCODING 12642
SWIDTH 960 0
DWIDTH 16 0
BBX 16 16 0 -2
BITMAP
180F
1BF8
1830
37FF
3030
73FF
7333
B3FF
3333
33FF
3030
3030
33FF
3030
3030
37FF
ENDCHAR

STARTCHAR jisx0212_3163
ENCODING 12643
SWIDTH 960 0
DWIDTH 16 0
BBX 16 16 0 -2
BITMAP
1860
1860
17FF
3060
33FF
70D8
70CC
B7FF
3186
33FF
3585
2DFE
3186
3186
31FE
3186
ENDCHAR

STARTCHAR jisx0212_3164
ENCODING 12644
SWIDTH 960 0
DWIDTH 16 0
BBX 16 16 0 -2
BITMAP
181F
1BF0
1830
33FF
3333
7333
73FF
B030
3030
37FF
3631
362D
363D
35E5
3601
3607
ENDCHAR

STARTCHAR jisx0212_3165
ENCODING 12645
SWIDTH 960 0
DWIDTH 16 0
BBX 16 16 0 -2
BITMAP
198C
198C
1FFF
318C
318C
70C0
70C0
AFFF
3180
3180
33FF
3583
2D83
3183
31FF
3183
ENDCHAR

STARTCHAR jisx0212_3166
ENCODING 12646
SWIDTH 960 0
DWIDTH 16 0
BBX 16 16 0 -2
BITMAP
1800
1BFF
1B33
3333
33FF
7333
7333
B3FF
3000
2FFF
3333
3336
331C
330C
32F7
2F81
ENDCHAR

STARTCHAR jisx0212_3167
ENCODING 12647
SWIDTH 960 0
DWIDTH 16 0
BBX 16 16 0 -2
BITMAP
1800
17FE
1606
3636
35E6
7666
75F6
B556
3556
3556
35F6
3665
3655
2C6B
2BCB
2C01
ENDCHAR

STARTCHAR jisx0212_3168
ENCODING 12648
SWIDTH 960 0
DWIDTH 16 0
BBX 16 16 0 -2
BITMAP
1800
1BFE
1B06
33FE
3306
73FE
7000
AFFF
3300
33FF
36DB
2CDB
31B3
3733
2CE6
339C
ENDCHAR

STARTCHAR jisx0212_3169
ENCODING 12649
SWIDTH 960 0
DWIDTH 16 0
BBX 16 16 0 -2
BITMAP
1800
17FF
1603
3603
37FF
7600
77FF
B660
36CC
37FE
3603
3630
2BFF
2C30
3830
37FF
ENDCHAR

STARTCHAR jisx0212_316A
ENCODING 12650
SWIDTH 960 0
DWIDTH 16 0
BBX 16 16 0 -2
BITMAP
1830
19AC
19B6
3333
3335
76EC
7018
B070
33FF
2D83
31FF
3183
31FF
3183
31FF
3183
ENDCHAR

STARTCHAR jisx0212_316B
ENCODING 12651
SWIDTH 960 0
DWIDTH 16 0
BBX 16 16 0 -2
BITMAP
1830
1830
17FF
3186
30C6
70CC
77FF
B631
3631
33FF
3333
3333
3333
3333
332F
3030
ENDCHAR

STARTCHAR jisx0212_316C
ENCODING 12652
SWIDTH 960 0
DWIDTH 16 0
BBX 16 16 0 -2
BITMAP
1860
18C0
1BFF
3303
33FF
7303
73FF
B000
3000
37FF
3030
3030
33FF
3030
3030
2FFF
ENDCHAR

STARTCHAR jisx0212_316D
ENCODING 12653
SWIDTH 960 0
DWIDTH 16 0
BBX 16 16 0 -2
BITMAP
1800
1FFF
18D8
37FF
36DB
76DB
76FB
B603
30C0
2FFF
318C
330C
33D8
362E
30E3
2F81
ENDCHAR

STARTCHAR jisx0212_316E
ENCODING 12654
SWIDTH 960 0
DWIDTH 16 0
BBX 16 16 0 -2
BITMAP
18CC
1B8C
1F0C
330D
332D
6FAB
732B
B36E
378C
36CC
2AD6
2B16
3B16
3333
3363
32C1
ENDCHAR

STARTCHAR jisx0212_316F
ENCODING 12655
SWIDTH 960 0
DWIDTH 16 0
BBX 16 16 0 -2
BITMAP
1860
1860
17FF
330C
318C
7198
6FFF
B000
33FE
3306
3306
33FE
3306
3306
33FE
3306
ENDCHAR

STARTCHAR jisx0212_3170
ENCODING 12656
SWIDTH 960 0
DWIDTH 16 0
BBX 16 16 0 -2
BITMAP
1800
17FF
1833
31B0
31BE
72B0
767F
AC00
33FF
3303
33FF
3303
33FF
3303
3303
330F
ENDCHAR

STARTCHAR jisx0212_3171
ENCODING 12657
SWIDTH 960 0
DWIDTH 16 0
BBX 16 16 0 -2
BITMAP
18C0
18C0
17FF
31B0
3318
76CE
7DFB
B318
2DB0
30D8
33BF
2E63
31B6
301C
3078
37C0
ENDCHAR

STARTCHAR jisx0212_3172
ENCODING 12658
SWIDTH 960 0
DWIDTH 16 0
BBX 16 16 0 -2
BITMAP
1800
1BFF
1800
31FF
3183
7183
71FF
B000
33FF
3331
3331
33FF
3331
3331
33FF
3301
ENDCHAR

STARTCHAR jisx0212_3173
ENCODING 12659
SWIDTH 960 0
DWIDTH 16 0
BBX 16 16 0 -2
BITMAP
1800
1FFF
1860
3060
30C0
77FF
76DB
B6DB
36FB
36DB
36DB
36FB
36DB
36DB
37FF
3603
ENDCHAR

STARTCHAR jisx0212_3174
ENCODING 12660
SWIDTH 960 0
DWIDTH 16 0
BBX 16 16 0 -2
BITMAP
1B00
1B5F
1BCD
2F6D
33CD
6F6D
73D9
AF19
3337
3360
3060
2FFF
3070
30D8
338E
2E03
ENDCHAR

STARTCHAR jisx0212_3175
ENCODING 12661
SWIDTH 960 0
DWIDTH 16 0
BBX 16 16 0 -2
BITMAP
180F
1BF8
1B18
3318
33FF
7330
7330
B2FF
32C3
32FF
32C3
36FF
36C3
36C3
2CFF
30C3
ENDCHAR

STARTCHAR jisx0212_3176
ENCODING 12662
SWIDTH 960 0
DWIDTH 16 0
BBX 16 16 0 -2
BITMAP
1800
1FDF
16D9
36DB
37DB
76D6
76D6
B6DB
37DB
36D9
36D9
36D9
37D7
3ED8
30D8
30D8
ENDCHAR

STARTCHAR jisx0212_3177
ENCODING 12663
SWIDTH 960 0
DWIDTH 16 0
BBX 16 16 0 -2
BITMAP
1960
175F
1663
3663
375F
7663
7663
B75F
3663
3000
37FE
3186
30CC
3078
31CE
2F03
ENDCHAR

STARTCHAR jisx0212_3178
ENCODING 12664
SWIDTH 960 0
DWIDTH 16 0
BBX 16 16 0 -2
BITMAP
1830
17FF
1830
33FF
3030
77FF
706C
B2D8
31B6
30DF
37F1
3030
31B6
3333
2E31
3030
ENDCHAR

STARTCHAR jisx0212_3179
ENCODING 12665
SWIDTH 960 0
DWIDTH 16 0
BBX 16 16 0 -2
BITMAP
1860
1860
1FFF
30B0
36DB
7396
730E
B7FF
2B05
33FE
3306
33FE
3306
3306
33FE
3306
ENDCHAR

STARTCHAR jisx0212_317A
ENCODING 12666
SWIDTH 960 0
DWIDTH 16 0
BBX 16 16 0 -2
BITMAP
1800
17FF
1618
3630
36FF
76C3
76C3
B6FF
36C3
36C3
36FF
3618
36D6
2D9B
2B19
2C78
ENDCHAR

STARTCHAR jisx0212_317B
ENCODING 12667
SWIDTH 960 0
DWIDTH 16 0
BBX 16 16 0 -2
BITMAP
1BFE
1B06
1B06
33FE
3000
77FF
7603
B7FF
3603
37FF
3603
37FF
3000
30DC
3387
2E01
ENDCHAR

STARTCHAR jisx0212_317C
ENCODING 12668
SWIDTH 960 0
DWIDTH 16 0
BBX 16 16 0 -2
BITMAP
1987
19FC
1981
31FF
3000
70FF
76C3
B6FF
36C3
36FF
36C3
36FF
3600
37FF
31CE
2F03
ENDCHAR

STARTCHAR jisx0212_317D
ENCODING 12669
SWIDTH 960 0
DWIDTH 16 0
BBX 16 16 0 -2
BITMAP
1830
1830
1BFF
3318
32FF
731B
73FF
B31B
32FF
3318
3300
32FF
36C3
36C3
2CFF
30C3
ENDCHAR

STARTCHAR jisx0212_317E
ENCODING 12670
SWIDTH 960 0
DWIDTH 16 0
BBX 16 16 0 -2
BITMAP
1830
1830
17FF
3000
31FE
7186
7186
B1FE
3000
37FF
3601
36FD
36CD
36CD
36FD
3607
ENDCHAR

STARTCHAR jisx0212_3221
ENCODING 12833
SWIDTH 960 0
DWIDTH 16 0
BBX 16 16 0 -2
BITMAP
180F
1BF8
1B66
3333
3631
756C
70D8
B076
305F
37F1
3030
37FF
3030
3058
31CE
2F03
ENDCHAR

STARTCHAR jisx0212_3222
ENCODING 12834
SWIDTH 960 0
DWIDTH 16 0
BBX 16 16 0 -2
BITMAP
180F
17F8
1600
37FF
3603
7603
77FF
B600
37DF
36E5
356D
375B
2CE5
2D6D
3B59
36E7
ENDCHAR

STARTCHAR jisx0212_3223
ENCODING 12835
SWIDTH 960 0
DWIDTH 16 0
BBX 16 16 0 -2
BITMAP
1866
1BBC
18D8
2FFF
30D8
77FF
70DB
AFFF
30DB
37FF
30D8
31DC
32D6
36DB
2CD9
30D8
ENDCHAR

STARTCHAR jisx0212_3224
ENCODING 12836
SWIDTH 960 0
DWIDTH 16 0
BBX 16 16 0 -2
BITMAP
1870
18D8
198C
32F7
3601
6BFE
7306
B3FE
3306
33FE
3300
33FF
3583
3583
2DFF
3183
ENDCHAR

STARTCHAR jisx0212_3225
ENCODING 12837
SWIDTH 960 0
DWIDTH 16 0
BBX 16 16 0 -2
BITMAP
1830
1830
17FF
3601
36D9
718C
7376
B6DB
318C
3306
35FF
2D85
3186
3186
31FE
3186
ENDCHAR

STARTCHAR jisx0212_3226
ENCODING 12838
SWIDTH 960 0
DWIDTH 16 0
BBX 16 16 0 -2
BITMAP
1830
1860
18FE
31C6
376C
71B8
71E0
B6FF
31B0
3330
37FF
3030
3333
3333
33FF
3303
ENDCHAR

STARTCHAR jisx0212_3227
ENCODING 12839
SWIDTH 960 0
DWIDTH 16 0
BBX 16 16 0 -2
BITMAP
1B0C
1998
17FF
3060
3060
73FE
7060
B060
2FFF
3180
3180
33FF
3330
3630
2C30
37FF
ENDCHAR

STARTCHAR jisx0212_3228
ENCODING 12840
SWIDTH 960 0
DWIDTH 16 0
BBX 16 16 0 -2
BITMAP
19FC
180C
1B66
365B
2CCD
73F6
7000
B000
2FDF
32C5
36CD
2DDB
32C5
36CD
2CD9
33C7
ENDCHAR

STARTCHAR jisx0212_3229
ENCODING 12841
SWIDTH 960 0
DWIDTH 16 0
BBX 16 16 0 -2
BITMAP
1803
17C3
1803
2FE3
303F
77C3
7003
B7B3
301B
300B
37CB
36C3
36C3
36C3
37C3
360F
ENDCHAR

STARTCHAR jisx0212_322A
ENCODING 12842
SWIDTH 960 0
DWIDTH 16 0
BBX 16 16 0 -2
BITMAP
1B0C
1B0C
1B0C
330C
2FBF
7000
6CB3
ACB3
36DB
359B
3596
3596
3356
33CC
3E7F
3000
ENDCHAR

STARTCHAR jisx0212_322B
ENCODING 12843
SWIDTH 960 0
DWIDTH 16 0
BBX 16 16 0 -2
BITMAP
1830
1830
17FF
3601
3601
73FF
7060
B0C3
3366
2E6C
30D8
33BC
2E56
30DB
3399
2E70
ENDCHAR

STARTCHAR jisx0212_322C
ENCODING 12844
SWIDTH 960 0
DWIDTH 16 0
BBX 16 16 0 -2
BITMAP
1860
18CC
17FE
3003
330C
755B
7FBF
B199
336C
2EC7
3B99
2E73
31C6
371C
30F0
3780
ENDCHAR

STARTCHAR jisx0212_322D
ENCODING 12845
SWIDTH 960 0
DWIDTH 16 0
BBX 16 16 0 -2
BITMAP
1860
18C0
17FF
3633
357B
76EB
75BB
B67B
35CB
37FF
3060
31B6
35B3
358D
2D8D
30FC
ENDCHAR

STARTCHAR jisx0212_322E
ENCODING 12846
SWIDTH 960 0
DWIDTH 16 0
BBX 16 16 0 -2
BITMAP
1830
1B33
1B33
33FF
3303
7000
77DF
B6D9
36DD
35D5
36D9
36DD
35D5
2CD9
2CB1
2BB7
ENDCHAR

STARTCHAR jisx0212_322F
ENCODING 12847
SWIDTH 960 0
DWIDTH 16 0
BBX 16 16 0 -2
BITMAP
1830
1830
1BFF
3186
30CC
77FF
7000
B3FF
3303
33FF
3303
33FF
30D8
30D9
3199
2F0F
ENDCHAR

STARTCHAR jisx0212_3230
ENCODING 12848
SWIDTH 960 0
DWIDTH 16 0
BBX 16 16 0 -2
BITMAP
1980
1998
1BDF
336D
35CB
6EC6
7386
B2FB
3601
3000
37FF
3030
31B6
3333
2E31
30F0
ENDCHAR

STARTCHAR jisx0212_3231
ENCODING 12849
SWIDTH 960 0
DWIDTH 16 0
BBX 16 16 0 -2
BITMAP
1830
1830
1BFF
3186
30CC
77FF
7000
B3FF
3303
33FF
3303
33FF
3030
37FF
3030
3030
ENDCHAR

STARTCHAR jisx0212_3232
ENCODING 12850
SWIDTH 960 0
DWIDTH 16 0
BBX 16 16 0 -2
BITMAP
1956
1956
17FF
3156
3355
7677
7000
B7FF
3631
3631
33FF
3333
3333
3333
332F
3030
ENDCHAR

STARTCHAR jisx0212_3233
ENCODING 12851
SWIDTH 960 0
DWIDTH 16 0
BBX 16 16 0 -2
BITMAP
1998
1998
1FFF
3198
3300
77FF
7603
AFFB
36DB
37FB
36DB
37FB
36DB
36DB
36BB
300E
ENDCHAR

STARTCHAR jisx0212_3234
ENCODING 12852
SWIDTH 960 0
DWIDTH 16 0
BBX 16 16 0 -2
BITMAP
1800
1FFF
18D8
37FF
36DB
76DB
77FF
B000
37FF
3000
2FFF
3030
31B6
3333
2E31
30F0
ENDCHAR

STARTCHAR jisx0212_3235
ENCODING 12853
SWIDTH 960 0
DWIDTH 16 0
BBX 16 16 0 -2
BITMAP
1800
1FBF
1ACB
36DB
2DB7
72CB
76FB
B0D8
33AE
2E63
31D8
3733
30E6
379C
3070
37C0
ENDCHAR

STARTCHAR jisx0212_3236
ENCODING 12854
SWIDTH 960 0
DWIDTH 16 0
BBX 16 16 0 -2
BITMAP
1B0C
1B0C
1FEC
3318
331F
6FBB
6ABB
AFDB
2ADB
2FDB
3316
330E
3FEC
3316
3333
3361
ENDCHAR

STARTCHAR jisx0212_3237
ENCODING 12855
SWIDTH 960 0
DWIDTH 16 0
BBX 16 16 0 -2
BITMAP
17DF
16DB
17DF
3618
3659
77DF
7000
B18C
37FF
318C
318C
2FFF
3000
30DC
3387
2E01
ENDCHAR

STARTCHAR jisx0212_3238
ENCODING 12856
SWIDTH 960 0
DWIDTH 16 0
BBX 16 16 0 -2
BITMAP
1986
18CC
17FF
3030
33FF
7030
77FF
B1B6
30AC
37FF
3000
33FF
3303
3303
33FF
3303
ENDCHAR

STARTCHAR jisx0212_3239
ENCODING 12857
SWIDTH 960 0
DWIDTH 16 0
BBX 16 16 0 -2
BITMAP
1830
1BFF
1B33
33FF
3030
77FF
7000
B3FF
3303
33FF
3303
33FF
3303
33FF
31CE
2F03
ENDCHAR

STARTCHAR jisx0212_323A
ENCODING 12858
SWIDTH 960 0
DWIDTH 16 0
BBX 16 16 0 -2
BITMAP
18FE
1B06
1AFB
3659
2BFF
735B
72DF
B303
33FF
3303
33FF
3006
2FFF
3186
30C6
301E
ENDCHAR

STARTCHAR jisx0212_323B
ENCODING 12859
SWIDTH 960 0
DWIDTH 16 0
BBX 16 16 0 -2
BITMAP
198C
198C
15CC
356C
2DBF
799B
6FDB
AC7B
2F5B
2D5B
2D6B
2D6E
2F66
2C6E
2C5B
2DF1
ENDCHAR

STARTCHAR jisx0212_323C
ENCODING 12860
SWIDTH 960 0
DWIDTH 16 0
BBX 16 16 0 -2
BITMAP
1830
17B6
18DC
36D9
338B
73F6
7603
AC01
33FE
3306
3306
33FE
318C
30CC
30D8
2FFF
ENDCHAR

STARTCHAR jisx0212_323D
ENCODING 12861
SWIDTH 960 0
DWIDTH 16 0
BBX 16 16 0 -2
BITMAP
17FF
1603
17FF
3600
36FE
760C
75FF
B618
3678
3600
37EF
2C63
2CF6
2BDF
38C6
33CE
ENDCHAR

STARTCHAR jisx0212_323E
ENCODING 12862
SWIDTH 960 0
DWIDTH 16 0
BBX 16 16 0 -2
BITMAP
1966
1B6C
1EFB
3556
336C
76DB
6FFF
B06D
3066
2FFF
3633
3736
359C
2D9D
3875
33C3
ENDCHAR

STARTCHAR jisx0212_323F
ENCODING 12863
SWIDTH 960 0
DWIDTH 16 0
BBX 16 16 0 -2
BITMAP
180F
17F8
1B63
31B3
31B6
6FFF
6C01
AB05
33C6
36BF
36B6
2BB6
397F
3306
3606
2C06
ENDCHAR

STARTCHAR jisx0212_3240
ENCODING 12864
SWIDTH 960 0
DWIDTH 16 0
BBX 16 16 0 -2
BITMAP
1800
17DF
1659
3659
37DF
7000
73FF
B333
33FF
3333
33FF
3030
37FF
3030
3030
3030
ENDCHAR

STARTCHAR jisx0212_3241
ENCODING 12865
SWIDTH 960 0
DWIDTH 16 0
BBX 16 16 0 -2
BITMAP
198C
198B
198D
2FEC
303F
77EC
766C
B66C
37EE
318E
35D6
3556
2D56
2DB5
39B5
3767
ENDCHAR

STARTCHAR jisx0212_3242
ENCODING 12866
SWIDTH 960 0
DWIDTH 16 0
BBX 16 16 0 -2
BITMAP
1830
1BFF
1830
30CC
37FF
70CC
7000
B3FF
3303
33FF
3303
33FF
3303
33FF
31CE
2F03
ENDCHAR

STARTCHAR jisx0212_3243
ENCODING 12867
SWIDTH 960 0
DWIDTH 16 0
BBX 16 16 0 -2
BITMAP
1800
17DF
1659
37DF
3659
77DF
7601
B6FD
36CD
36FD
36CD
36FD
36CD
358D
35BD
3607
ENDCHAR

STARTCHAR jisx0212_3244
ENCODING 12868
SWIDTH 960 0
DWIDTH 16 0
BBX 16 16 0 -2
BITMAP
0030
1B33
19B6
17FF
3078
30AC
73B6
6E33
B306
33C6
36BF
36B6
2BB6
397F
3306
3606
ENDCHAR

STARTCHAR jisx0212_3245
ENCODING 12869
SWIDTH 960 0
DWIDTH 16 0
BBX 16 16 0 -2
BITMAP
180F
17F8
1600
37FF
3603
77FF
7666
B6CC
36FF
35CC
36FF
36CC
36FF
2CCC
2CFF
2CC0
ENDCHAR

STARTCHAR jisx0212_3246
ENCODING 12870
SWIDTH 960 0
DWIDTH 16 0
BBX 16 16 0 -2
BITMAP
1800
17FF
16DB
36DB
37DF
70D8
77DF
B6DB
36DB
37DF
36DB
36DB
37DF
36D9
30C1
307F
ENDCHAR

STARTCHAR jisx0212_3247
ENCODING 12871
SWIDTH 960 0
DWIDTH 16 0
BBX 16 16 0 -2
BITMAP
19FE
1986
1986
31FE
3000
77DF
7659
B659
37DF
3030
37FF
3078
30AC
33B7
2E31
3030
ENDCHAR

STARTCHAR jisx0212_3248
ENCODING 12872
SWIDTH 960 0
DWIDTH 16 0
BBX 16 16 0 -2
BITMAP
180F
17F8
1B63
31B3
31B6
77FF
7661
B6B5
32CB
36FD
3060
30FE
31C6
376C
307C
2FC7
ENDCHAR

STARTCHAR jisx0212_3249
ENCODING 12873
SWIDTH 960 0
DWIDTH 16 0
BBX 16 16 0 -2
BITMAP
1830
17FF
1800
33FF
32CB
72FB
7303
B3FF
3000
31FE
3186
31FE
3186
31FE
3000
2FFF
ENDCHAR

STARTCHAR jisx0212_324A
ENCODING 12874
SWIDTH 960 0
DWIDTH 16 0
BBX 16 16 0 -2
BITMAP
16CC
16CC
1FEC
36CC
36DF
761B
6FDB
AC7B
2F5B
356B
356B
356E
3766
306E
30DB
33B1
ENDCHAR

STARTCHAR jisx0212_324B
ENCODING 12875
SWIDTH 960 0
DWIDTH 16 0
BBX 16 16 0 -2
BITMAP
1BFF
1B5B
1B5B
33FF
3000
77FF
7000
B3FF
3303
3303
33FF
30D9
339B
2D8E
3176
37C3
ENDCHAR

STARTCHAR jisx0212_324C
ENCODING 12876
SWIDTH 960 0
DWIDTH 16 0
BBX 16 16 0 -2
BITMAP
1870
18D8
198C
3307
2DFD
7000
77FF
B56B
36DB
37FF
3000
33FE
3306
33FE
3306
33FE
ENDCHAR

STARTCHAR jisx0212_324D
ENCODING 12877
SWIDTH 960 0
DWIDTH 16 0
BBX 16 16 0 -2
BITMAP
1980
19FC
1B18
33FF
375B
6ADF
7380
B2FF
3300
33FF
3300
32FF
3300
36FF
36C3
2CFF
ENDCHAR

STARTCHAR jisx0212_324E
ENCODING 12878
SWIDTH 960 0
DWIDTH 16 0
BBX 16 16 0 -2
BITMAP
198C
1B0C
17EC
366C
37DF
765B
77DB
B1BB
319B
2FEB
330B
33EE
3366
366E
365B
2BB1
ENDCHAR

STARTCHAR jisx0212_324F
ENCODING 12879
SWIDTH 960 0
DWIDTH 16 0
BBX 16 16 0 -2
BITMAP
186C
15DB
1777
36DB
356B
77FF
70D8
B0D9
339F
2EC0
30FE
31C6
336C
3638
30EE
2F83
ENDCHAR

STARTCHAR jisx0212_3250
ENCODING 12880
SWIDTH 960 0
DWIDTH 16 0
BBX 16 16 0 -2
BITMAP
198C
17EB
198D
2FFF
318C
6FEC
718D
AFED
2DAD
2FEB
2DAB
2FF6
3185
3FED
319B
31B1
ENDCHAR

STARTCHAR jisx0212_3251
ENCODING 12881
SWIDTH 960 0
DWIDTH 16 0
BBX 16 16 0 -2
BITMAP
1800
1FFF
18D8
37FF
36DB
76DB
77FF
B300
3306
37BF
36C6
2DB6
3B7F
3366
3606
2C06
ENDCHAR

STARTCHAR jisx0212_3252
ENCODING 12882
SWIDTH 960 0
DWIDTH 16 0
BBX 16 16 0 -2
BITMAP
1830
17FF
1601
35FD
3030
71B6
772C
B3FF
2F03
33FF
3303
33FF
3303
33FF
31CE
2F03
ENDCHAR

STARTCHAR jisx0212_3253
ENCODING 12883
SWIDTH 960 0
DWIDTH 16 0
BBX 16 16 0 -2
BITMAP
1600
16BF
1783
3616
36CC
77C6
707F
B60D
2FCB
2B2C
332F
2FAC
332C
356C
355C
2CCF
ENDCHAR

STARTCHAR jisx0212_3254
ENCODING 12884
SWIDTH 960 0
DWIDTH 16 0
BBX 16 16 0 -2
BITMAP
1818
1CFF
16DB
32FF
3018
6DFF
7600
B37F
3063
2F7F
3360
337F
3363
337F
3580
2CFF
ENDCHAR

STARTCHAR jisx0212_3255
ENCODING 12885
SWIDTH 960 0
DWIDTH 16 0
BBX 16 16 0 -2
BITMAP
1B00
1B00
17FF
2AB6
2FFF
72B6
72B6
B7FF
3306
33C6
36BF
36B6
2BB6
317F
3306
2E06
ENDCHAR

STARTCHAR jisx0212_3256
ENCODING 12886
SWIDTH 960 0
DWIDTH 16 0
BBX 16 16 0 -2
BITMAP
1860
17FF
1663
31B6
358B
6DFD
7000
B7FF
36DB
36DB
2FFF
3000
37FF
3030
3030
30F0
ENDCHAR

STARTCHAR jisx0212_3257
ENCODING 12887
SWIDTH 960 0
DWIDTH 16 0
BBX 16 16 0 -2
BITMAP
1986
1555
15D7
2DB6
32CB
7659
6C30
B7FF
3601
3030
37FF
3078
30AC
33B7
2E31
3030
ENDCHAR

STARTCHAR jisx0212_3258
ENCODING 12888
SWIDTH 960 0
DWIDTH 16 0
BBX 16 16 0 -2
BITMAP
1800
17FF
19B6
3333
2E31
77FF
7631
B6B5
35AD
36B5
3631
36B5
35AD
36B5
3631
3637
ENDCHAR

STARTCHAR jisx0212_3259
ENCODING 12889
SWIDTH 960 0
DWIDTH 16 0
BBX 16 16 0 -2
BITMAP
1830
17FF
16CC
37FF
36CC
76FC
7600
B7FF
3630
35FF
35B3
35FF
2DB3
2DFF
38EE
3783
ENDCHAR

STARTCHAR jisx0212_325A
ENCODING 12890
SWIDTH 960 0
DWIDTH 16 0
BBX 16 16 0 -2
BITMAP
198C
17FF
198C
37FF
318C
72D6
6E73
B3FF
3303
33FF
3303
33FF
3303
33FF
31CE
2F03
ENDCHAR

STARTCHAR jisx0212_325B
ENCODING 12891
SWIDTH 960 0
DWIDTH 16 0
BBX 16 16 0 -2
BITMAP
18C3
179E
1618
37FF
36DB
76DB
6C30
B3FF
3303
33FF
3303
33FF
3303
33FF
31CE
2F03
ENDCHAR

STARTCHAR jisx0212_325C
ENCODING 12892
SWIDTH 960 0
DWIDTH 16 0
BBX 16 16 0 -2
BITMAP
1B00
1B3F
1FB3
3333
2FBF
7333
6FB3
B03F
2FB3
2AB3
2ABF
2FD6
2CD6
2CD5
2CB5
2BB7
ENDCHAR

STARTCHAR jisx0212_325D
ENCODING 12893
SWIDTH 960 0
DWIDTH 16 0
BBX 16 16 0 -2
BITMAP
1B00
1B3F
1FB3
2CB3
36BF
75B3
6FB3
B03F
3333
2FB3
333F
3796
36D6
2B35
3B65
32C7
ENDCHAR

STARTCHAR jisx0212_325E
ENCODING 12894
SWIDTH 960 0
DWIDTH 16 0
BBX 16 16 0 -2
BITMAP
1860
1B6E
15FB
30B0
2FFF
7198
73FC
B767
2BFD
3360
33FC
3360
33FF
355B
3563
2C1E
ENDCHAR

STARTCHAR jisx0212_325F
ENCODING 12895
SWIDTH 960 0
DWIDTH 16 0
BBX 16 16 0 -2
BITMAP
1998
1998
1FDF
36D8
32DF
72C1
6FDF
B018
37DF
3658
37DF
3658
37DF
3658
3659
35EF
ENDCHAR

STARTCHAR jisx0212_3260
ENCODING 12896
SWIDTH 960 0
DWIDTH 16 0
BBX 16 16 0 -2
BITMAP
1980
19F8
1B30
37FF
2B03
73FF
7319
AFDF
31F0
3330
37FF
2B33
33FF
306C
31B5
2F3F
ENDCHAR

STARTCHAR jisx0212_3261
ENCODING 12897
SWIDTH 960 0
DWIDTH 16 0
BBX 16 16 0 -2
BITMAP
1830
17FF
1800
33DF
335B
73DF
70CC
B7FF
30CC
37FF
30CC
2FFF
31B3
3796
3DEE
3783
ENDCHAR

STARTCHAR jisx0212_3262
ENCODING 12898
SWIDTH 960 0
DWIDTH 16 0
BBX 16 16 0 -2
BITMAP
1860
18FF
18CC
2D58
2B38
6CEE
6B83
ADFF
2DAB
2DBB
2DFF
2C30
2BFF
32DB
336D
366D
ENDCHAR

STARTCHAR jisx0212_3263
ENCODING 12899
SWIDTH 960 0
DWIDTH 16 0
BBX 16 16 0 -2
BITMAP
17FF
16DB
16DB
37FF
3300
7636
7D6C
AAFF
366C
2D7F
3EEC
337F
2B6C
2AEC
3B7F
3360
ENDCHAR

STARTCHAR jisx0212_3264
ENCODING 12900
SWIDTH 960 0
DWIDTH 16 0
BBX 16 16 0 -2
BITMAP
1596
17DF
1DB6
2FFF
3596
75D5
6B37
B3FE
3306
33FE
3306
33FE
3306
33FE
31CE
2F03
ENDCHAR

STARTCHAR jisx0212_3265
ENCODING 12901
SWIDTH 960 0
DWIDTH 16 0
BBX 16 16 0 -2
BITMAP
00C0
00C0
00C0
1FFF
18C0
18C0
18C0
18C0
FFFF
00C0
0160
0160
0360
0661
1C61
F03F
ENDCHAR

STARTCHAR jisx0212_3266
ENCODING 12902
SWIDTH 960 0
DWIDTH 16 0
BBX 16 16 0 -2
BITMAP
0000
03F0
0C30
0D98
198C
3367
E331
06F8
3F8C
0000
0660
0660
0663
0C63
3863
E03F
ENDCHAR

STARTCHAR jisx0212_3267
ENCODING 12903
SWIDTH 960 0
DWIDTH 16 0
BBX 16 16 0 -2
BITMAP
000E
00F8
3F80
30C0
30C0
30FE
30C0
30C0
3FFF
3330
3330
3330
3330
6631
6C31
B81F
ENDCHAR

STARTCHAR jisx0212_3268
ENCODING 12904
SWIDTH 960 0
DWIDTH 16 0
BBX 16 16 0 -2
BITMAP
0C0C
0C0C
0C0C
7F7F
6C6C
6C6C
6C6C
6C6C
FFFF
1818
1C1C
1C1C
2DAC
2DAD
676D
C0C7
ENDCHAR

STARTCHAR jisx0212_3269
ENCODING 12905
SWIDTH 960 0
DWIDTH 16 0
BBX 16 16 0 -2
BITMAP
0000
7E7E
6666
6666
6666
6666
67E6
6006
6006
7FFE
0660
0660
0660
0C63
3863
E03F
ENDCHAR

STARTCHAR jisx0212_326A
ENCODING 12906
SWIDTH 960 0
DWIDTH 16 0
BBX 16 16 0 -2
BITMAP
0180
0180
FFFF
0000
03F0
0C30
1818
3FFC
D817
1818
1FF8
0660
0660
0C63
3863
E03F
ENDCHAR

STARTCHAR jisx0212_326B
ENCODING 12907
SWIDTH 960 0
DWIDTH 16 0
BBX 16 16 0 -2
BITMAP
0018
7F18
0030
0036
0063
FF6F
36F9
3600
367F
3663
3663
3663
667F
6661
6601
C3FF
ENDCHAR

STARTCHAR jisx0212_326C
ENCODING 12908
SWIDTH 960 0
DWIDTH 16 0
BBX 16 16 0 -2
BITMAP
0C18
2C58
2C58
7FFF
6CD8
CD98
0C18
FFFF
366C
366C
366C
366C
35CC
66CD
5D8D
C307
ENDCHAR

STARTCHAR jisx0212_326D
ENCODING 12909
SWIDTH 960 0
DWIDTH 16 0
BBX 16 16 0 -2
BITMAP
1818
D5FF
55AC
55FF
5DAC
19AC
FFFF
2D98
2D7F
2D5B
2D7F
2B5B
6B7F
6E6C
6CC5
C7FF
ENDCHAR

STARTCHAR jisx0212_326E
ENCODING 12910
SWIDTH 960 0
DWIDTH 16 0
BBX 16 16 0 -2
BITMAP
0000
67E0
6060
6060
6060
60B0
60B0
60B0
6198
6198
630C
6606
6C03
5801
6000
3FFF
ENDCHAR

STARTCHAR jisx0212_326F
ENCODING 12911
SWIDTH 960 0
DWIDTH 16 0
BBX 16 16 0 -2
BITMAP
03F0
0C18
380E
DFFB
198C
1FFC
198C
1FFC
0630
7FFF
0630
0630
FFFF
0638
1C0E
7003
ENDCHAR

STARTCHAR jisx0212_3270
ENCODING 12912
SWIDTH 960 0
DWIDTH 16 0
BBX 16 16 0 -2
BITMAP
0000
7FFF
6003
6003
6003
6FFB
6003
6003
6003
5FFB
6003
6003
6003
6003
6003
601F
ENDCHAR

STARTCHAR jisx0212_3271
ENCODING 12913
SWIDTH 960 0
DWIDTH 16 0
BBX 16 16 0 -2
BITMAP
0000
1FFC
180C
180C
180C
FFFF
180C
180C
180C
FFFF
180C
180C
180C
180C
180C
187C
ENDCHAR

STARTCHAR jisx0212_3272
ENCODING 12914
SWIDTH 960 0
DWIDTH 16 0
BBX 16 16 0 -2
BITMAP
0000
7FFF
6003
6003
6003
67F3
6633
6633
6633
6633
67F3
6603
6603
6003
6003
601F
ENDCHAR

STARTCHAR jisx0212_3273
ENCODING 12915
SWIDTH 960 0
DWIDTH 16 0
BBX 16 16 0 -2
BITMAP
0000
1FFC
180C
180C
18FC
18CC
18CC
18CC
7FFF
6003
6003
6003
6003
6003
6003
601F
ENDCHAR

STARTCHAR jisx0212_3274
ENCODING 12916
SWIDTH 960 0
DWIDTH 16 0
BBX 16 16 0 -2
BITMAP
0180
0180
0180
7FFF
6183
6183
61C3
02C0
02C0
02C0
06C0
06C0
0CC0
18C3
70C3
C07F
ENDCHAR

STARTCHAR jisx0212_3275
ENCODING 12917
SWIDTH 960 0
DWIDTH 16 0
BBX 16 16 0 -2
BITMAP
0000
7FFF
6003
6003
0000
1FFC
180C
180C
1FFC
180C
180C
1FFC
180C
180C
180C
FFFF
ENDCHAR

STARTCHAR jisx0212_3276
ENCODING 12918
SWIDTH 960 0
DWIDTH 16 0
BBX 16 16 0 -2
BITMAP
0000
7FFF
6003
6003
1FFC
0000
7FFF
0300
0D87
7ADC
0EF0
7958
076C
1C67
F0C1
0780
ENDCHAR

STARTCHAR jisx0212_3277
ENCODING 12919
SWIDTH 960 0
DWIDTH 16 0
BBX 16 16 0 -2
BITMAP
0000
7FFF
6003
6003
FFC0
3300
32FF
3F63
3363
3336
3F36
331C
331C
2F36
FB63
02C1
ENDCHAR

STARTCHAR jisx0212_3278
ENCODING 12920
SWIDTH 960 0
DWIDTH 16 0
BBX 16 16 0 -2
BITMAP
0180
0180
0300
FFFF
0660
0630
0C18
180C
7387
C0E1
0000
000C
0038
00E0
0780
1C00
ENDCHAR

STARTCHAR jisx0212_3279
ENCODING 12921
SWIDTH 960 0
DWIDTH 16 0
BBX 16 16 0 -2
BITMAP
0030
C1AC
61B6
3333
0333
0631
0BFF
0030
3030
3030
6FFF
6030
6030
C030
C030
0030
ENDCHAR

STARTCHAR jisx0212_327A
ENCODING 12922
SWIDTH 960 0
DWIDTH 16 0
BBX 16 16 0 -2
BITMAP
0000
63FF
3303
1B03
0303
03FF
0318
0318
1BFF
1B18
3318
330C
630D
6335
C3E3
0F01
ENDCHAR

STARTCHAR jisx0212_327B
ENCODING 12923
SWIDTH 960 0
DWIDTH 16 0
BBX 16 16 0 -2
BITMAP
0030
C1B0
61B0
33FF
0330
0630
0030
07FF
30D8
30D8
60D8
6198
6198
C319
C619
0C0F
ENDCHAR

STARTCHAR jisx0212_327C
ENCODING 12924
SWIDTH 960 0
DWIDTH 16 0
BBX 16 16 0 -2
BITMAP
00E0
C1B0
6198
3318
030C
0606
0BFB
1801
0000
37FE
3606
6606
6606
C606
C7FE
0606
ENDCHAR

STARTCHAR jisx0212_327D
ENCODING 12925
SWIDTH 960 0
DWIDTH 16 0
BBX 16 16 0 -2
BITMAP
0060
C7FE
6066
3066
0FFF
0066
0066
07FE
3060
3060
6FFF
6060
6060
DFFF
C060
0060
ENDCHAR

STARTCHAR jisx0212_327E
ENCODING 12926
SWIDTH 960 0
DWIDTH 16 0
BBX 16 16 0 -2
BITMAP
00C0
C0C0
61FC
318C
0318
07FF
0B33
0333
3333
33FF
6360
6070
60B0
C1B1
C731
1C1F
ENDCHAR

STARTCHAR jisx0212_3321
ENCODING 13089
SWIDTH 960 0
DWIDTH 16 0
BBX 16 16 0 -2
BITMAP
001E
C3F0
6366
3333
0631
0600
0BFE
0066
3066
2FFF
6066
6066
67FE
C066
C060
01E0
ENDCHAR

STARTCHAR jisx0212_3322
ENCODING 13090
SWIDTH 960 0
DWIDTH 16 0
BBX 16 16 0 -2
BITMAP
0016
C01B
6018
37FF
0618
0618
05DB
061B
35D6
3556
656C
6D6C
6DD5
CDB5
D863
30C1
ENDCHAR

STARTCHAR jisx0212_3323
ENCODING 13091
SWIDTH 960 0
DWIDTH 16 0
BBX 16 16 0 -2
BITMAP
0060
C060
6FFF
30C0
07FE
0198
1FFF
030C
3336
35E3
6C61
57FE
6060
C0B0
C39C
1E07
ENDCHAR

STARTCHAR jisx0212_3324
ENCODING 13092
SWIDTH 960 0
DWIDTH 16 0
BBX 16 16 0 -2
BITMAP
0030
C333
6333
3333
03FF
0000
07FF
0000
33FF
3303
6303
63FF
6186
C0C6
C0CC
0FFF
ENDCHAR

STARTCHAR jisx0212_3325
ENCODING 13093
SWIDTH 960 0
DWIDTH 16 0
BBX 16 16 0 -2
BITMAP
0000
CFFF
60D8
30D8
07FF
06DB
06DB
07FF
3060
3060
6FFF
60F0
6158
C76E
DC63
0060
ENDCHAR

STARTCHAR jisx0212_3326
ENCODING 13094
SWIDTH 960 0
DWIDTH 16 0
BBX 16 16 0 -2
BITMAP
0000
C7FF
6603
3603
03FE
0306
03FE
0306
33FE
3060
6060
6FFF
6000
C19C
C707
1C01
ENDCHAR

STARTCHAR jisx0212_3327
ENCODING 13095
SWIDTH 960 0
DWIDTH 16 0
BBX 16 16 0 -2
BITMAP
06C3
C6DE
66D8
2FD8
06D8
07D8
06DF
06DB
37DB
36DB
66DB
5FFB
601B
C5B3
CCB3
1863
ENDCHAR

STARTCHAR jisx0212_3328
ENCODING 13096
SWIDTH 960 0
DWIDTH 16 0
BBX 16 16 0 -2
BITMAP
0000
CBDF
6ADB
2ADB
0BDB
0B5F
0B58
0BD8
2AD9
2AD9
5BEF
5800
6DB6
CDB3
CCD9
18D9
ENDCHAR

STARTCHAR jisx0212_3329
ENCODING 13097
SWIDTH 960 0
DWIDTH 16 0
BBX 16 16 0 -2
BITMAP
0180
0180
0300
0FF0
0C30
0C30
0C30
0C30
0C30
0C30
0C30
0C30
1831
1831
3031
E01F
ENDCHAR

STARTCHAR jisx0212_332A
ENCODING 13098
SWIDTH 960 0
DWIDTH 16 0
BBX 16 16 0 -2
BITMAP
0000
3FFF
3003
3003
3FFF
3000
3000
33F8
3318
3318
3318
3318
6619
6619
6C19
D80F
ENDCHAR

STARTCHAR jisx0212_332B
ENCODING 13099
SWIDTH 960 0
DWIDTH 16 0
BBX 16 16 0 -2
BITMAP
0000
3FFE
3006
3006
2FF6
3186
3306
37F6
3636
3636
37F6
3635
6635
67F3
6633
C001
ENDCHAR

STARTCHAR jisx0212_332C
ENCODING 13100
SWIDTH 960 0
DWIDTH 16 0
BBX 16 16 0 -2
BITMAP
0000
3FFE
31B6
36E6
2FF6
32C6
2FF6
32B6
3FFE
32B6
2FF6
32E5
66B5
6ADB
5ACB
C2C1
ENDCHAR

STARTCHAR jisx0212_332D
ENCODING 13101
SWIDTH 960 0
DWIDTH 16 0
BBX 16 16 0 -2
BITMAP
3ECC
035B
3636
1BDC
380E
EFFB
0C18
0FF8
0630
0360
FFFF
0000
0FF0
0C31
1831
F01F
ENDCHAR

STARTCHAR jisx0212_332E
ENCODING 13102
SWIDTH 960 0
DWIDTH 16 0
BBX 16 16 0 -2
BITMAP
0000
63FF
3330
1BFE
0330
1BFE
1B30
33FF
355B
6D5B
C00E
0FF0
0C30
0C31
1831
F01F
ENDCHAR

STARTCHAR jisx0212_332F
ENCODING 13103
SWIDTH 960 0
DWIDTH 16 0
BBX 16 16 0 -2
BITMAP
0180
C183
C183
C183
DFFB
C183
C183
C183
C183
C183
C183
BFFB
C003
C003
FFFF
C003
ENDCHAR

STARTCHAR jisx0212_3330
ENCODING 13104
SWIDTH 960 0
DWIDTH 16 0
BBX 16 16 0 -2
BITMAP
0000
7FFF
0003
0003
0003
0003
0003
007B
07C3
7C03
0003
0003
0006
0006
000C
00F8
ENDCHAR

STARTCHAR jisx0212_3331
ENCODING 13105
SWIDTH 960 0
DWIDTH 16 0
BBX 16 16 0 -2
BITMAP
0030
0030
0C30
0C30
0C30
0C30
0C30
0C30
0C30
0C30
0C30
0C30
0C30
0030
0030
01F0
ENDCHAR

STARTCHAR jisx0212_3332
ENCODING 13106
SWIDTH 960 0
DWIDTH 16 0
BBX 16 16 0 -2
BITMAP
0000
7FFC
030C
030C
330E
330B
330B
330D
660D
660D
C60C
0C0C
0C0C
1818
3018
E1F0
ENDCHAR

STARTCHAR jisx0212_3333
ENCODING 13107
SWIDTH 960 0
DWIDTH 16 0
BBX 16 16 0 -2
BITMAP
1801
1601
1B19
1BD9
FE19
1819
1999
1999
0D99
0B19
0B19
0619
0E01
1B61
7161
C0E7
ENDCHAR

STARTCHAR jisx0212_3334
ENCODING 13108
SWIDTH 960 0
DWIDTH 16 0
BBX 16 16 0 -2
BITMAP
0001
7FC1
0019
0019
0019
0019
FFD9
1B19
1B19
1B19
1B19
1B19
3301
3371
63C1
CE07
ENDCHAR

STARTCHAR jisx0212_3335
ENCODING 13109
SWIDTH 960 0
DWIDTH 16 0
BBX 16 16 0 -2
BITMAP
0000
1FFE
0186
0186
0306
060C
1C0C
7078
0000
7F7F
1999
1999
31B1
3333
6363
CECE
ENDCHAR

STARTCHAR jisx0212_3336
ENCODING 13110
SWIDTH 960 0
DWIDTH 16 0
BBX 16 16 0 -2
BITMAP
0001
3F81
3199
3199
3199
3F99
3199
3199
3199
3F99
3199
3199
3181
6181
6181
C787
ENDCHAR

STARTCHAR jisx0212_3337
ENCODING 13111
SWIDTH 960 0
DWIDTH 16 0
BBX 16 16 0 -2
BITMAP
0C01
0C01
0C19
FFD9
0019
0199
0199
7319
1B19
0619
0719
0D99
18C1
30C1
6001
C007
ENDCHAR

STARTCHAR jisx0212_3338
ENCODING 13112
SWIDTH 960 0
DWIDTH 16 0
BBX 16 16 0 -2
BITMAP
0C01
0F01
1999
18D9
3059
7F59
C019
0019
FFD9
0CD9
0CD9
0CD9
0CC1
0BC1
0C01
0C07
ENDCHAR

STARTCHAR jisx0212_3339
ENCODING 13113
SWIDTH 960 0
DWIDTH 16 0
BBX 16 16 0 -2
BITMAP
3001
3001
3FD9
60D9
60D9
FED9
66D9
66D9
66D9
7ED9
60D9
6799
6001
6061
6061
3FE7
ENDCHAR

STARTCHAR jisx0212_333A
ENCODING 13114
SWIDTH 960 0
DWIDTH 16 0
BBX 16 16 0 -2
BITMAP
3600
36FE
3636
3636
FFB6
36B6
36B6
35B7
3635
FFB5
3665
3666
3666
66CC
66CC
C5B8
ENDCHAR

STARTCHAR jisx0212_333B
ENCODING 13115
SWIDTH 960 0
DWIDTH 16 0
BBX 16 16 0 -2
BITMAP
0C01
0C01
7FD9
0C19
0C19
0C19
FFD9
0C19
0C19
0C19
7FD9
0C19
0C01
0DE1
1F01
F007
ENDCHAR

STARTCHAR jisx0212_333C
ENCODING 13116
SWIDTH 960 0
DWIDTH 16 0
BBX 16 16 0 -2
BITMAP
0001
FFE1
3199
3199
3F99
3199
3199
3F99
3199
3199
3199
3799
3D81
E181
0181
0187
ENDCHAR

STARTCHAR jisx0212_333D
ENCODING 13117
SWIDTH 960 0
DWIDTH 16 0
BBX 16 16 0 -2
BITMAP
1800
19FF
181B
FF1B
18DB
18DB
195B
FF5B
183B
181B
362B
3337
3363
5D66
F0C6
019C
ENDCHAR

STARTCHAR jisx0212_333E
ENCODING 13118
SWIDTH 960 0
DWIDTH 16 0
BBX 16 16 0 -2
BITMAP
0001
FFE1
0019
0019
7FD9
60D9
60D9
60D9
7FD9
0019
6199
3319
3301
3601
07E1
FC07
ENDCHAR

STARTCHAR jisx0212_333F
ENCODING 13119
SWIDTH 960 0
DWIDTH 16 0
BBX 16 16 0 -2
BITMAP
0601
36C1
36CD
36CD
36CD
556D
556D
D76D
C60D
060D
7FED
060D
0601
06F1
0F81
F807
ENDCHAR

STARTCHAR jisx0212_3340
ENCODING 13120
SWIDTH 960 0
DWIDTH 16 0
BBX 16 16 0 -2
BITMAP
0D81
0D81
0D8D
7DED
0D8D
0D8D
0D8D
7DED
0D8D
0D8D
3D8D
EDED
1981
1981
3181
6187
ENDCHAR

STARTCHAR jisx0212_3341
ENCODING 13121
SWIDTH 960 0
DWIDTH 16 0
BBX 16 16 0 -2
BITMAP
1B01
1981
1FED
EC0D
058D
076D
1D6D
70ED
1B0D
198D
1FED
EC0D
0581
0761
1D61
70E7
ENDCHAR

STARTCHAR jisx0212_3342
ENCODING 13122
SWIDTH 960 0
DWIDTH 16 0
BBX 16 16 0 -2
BITMAP
3181
3181
FFD9
3199
3199
3F99
3199
3199
3F99
3199
3199
FFD9
0001
1B81
70C1
C067
ENDCHAR

STARTCHAR jisx0212_3343
ENCODING 13123
SWIDTH 960 0
DWIDTH 16 0
BBX 16 16 0 -2
BITMAP
0601
0601
FFED
060D
3FCD
36CD
3FCD
060D
7FCD
06CD
FFED
06CD
7FC1
0601
0601
1E07
ENDCHAR

STARTCHAR jisx0212_3344
ENCODING 13124
SWIDTH 960 0
DWIDTH 16 0
BBX 16 16 0 -2
BITMAP
0C01
0C01
FFED
C06D
B06D
300D
3BED
6B6D
6B6D
6B6D
AB6D
DAED
1B01
3331
6331
C1F7
ENDCHAR

STARTCHAR jisx0212_3345
ENCODING 13125
SWIDTH 960 0
DWIDTH 16 0
BBX 16 16 0 -2
BITMAP
0001
7BE1
0C6D
6B6D
39CD
18CD
2D6D
6B6D
C60D
7BED
0C6D
6B6D
39C1
38C1
6D61
CB37
ENDCHAR

STARTCHAR jisx0212_3346
ENCODING 13126
SWIDTH 960 0
DWIDTH 16 0
BBX 16 16 0 -2
BITMAP
0C01
0C01
FFD9
0019
0019
7F99
6199
6199
6199
7F99
0C19
6D99
6D81
CCC1
CCC1
3C07
ENDCHAR

STARTCHAR jisx0212_3347
ENCODING 13127
SWIDTH 960 0
DWIDTH 16 0
BBX 16 16 0 -2
BITMAP
0601
3661
36D9
3799
6619
0B19
19D9
7659
C619
3659
36D9
3599
6601
0B01
39C1
E077
ENDCHAR

STARTCHAR jisx0212_3348
ENCODING 13128
SWIDTH 960 0
DWIDTH 16 0
BBX 16 16 0 -2
BITMAP
0C01
0C01
FFD9
1B19
2D99
6CD9
FFD9
6CD9
6CD9
7FD9
6CD9
6CD9
7FC1
0C61
0C61
07E7
ENDCHAR

STARTCHAR jisx0212_3349
ENCODING 13129
SWIDTH 960 0
DWIDTH 16 0
BBX 16 16 0 -2
BITMAP
0001
3FC1
30CD
30CD
37CD
36CD
36CD
FFED
C06D
DF6D
DB6D
DB6D
DF61
D861
C061
C1E7
ENDCHAR

STARTCHAR jisx0212_334A
ENCODING 13130
SWIDTH 960 0
DWIDTH 16 0
BBX 16 16 0 -2
BITMAP
0601
0601
7FED
0D8D
070D
1DCD
7FED
6B0D
6B0D
5FED
5B0D
730D
5FE1
6301
C3E1
BE07
ENDCHAR

STARTCHAR jisx0212_334B
ENCODING 13131
SWIDTH 960 0
DWIDTH 16 0
BBX 16 16 0 -2
BITMAP
0601
FFF1
060D
7FED
666D
7FED
666D
7FED
06CD
07ED
FCAD
00CD
FFF1
30C1
18C1
03C7
ENDCHAR

STARTCHAR jisx0212_334C
ENCODING 13132
SWIDTH 960 0
DWIDTH 16 0
BBX 16 16 0 -2
BITMAP
0001
FFE1
2D6D
6B6D
DCED
2D6D
6E6D
DB8D
76CD
CD6D
3B0D
E66D
1CC1
F381
0E01
F807
ENDCHAR

STARTCHAR jisx0212_334D
ENCODING 13133
SWIDTH 960 0
DWIDTH 16 0
BBX 16 16 0 -2
BITMAP
7FC1
1981
0B0D
FFED
0E6D
36CD
EE0D
000D
7FED
6B6D
5BED
706D
5F61
5B61
5F61
60E7
ENDCHAR

STARTCHAR jisx0212_334E
ENCODING 13134
SWIDTH 960 0
DWIDTH 16 0
BBX 16 16 0 -2
BITMAP
0001
7FF9
6061
7365
5AC5
56F5
7F55
6675
5565
5565
5565
5F65
66B1
66B1
CD99
DB17
ENDCHAR

STARTCHAR jisx0212_334F
ENCODING 13135
SWIDTH 960 0
DWIDTH 16 0
BBX 16 16 0 -2
BITMAP
0001
7FE1
6B6D
6B6D
7FED
180D
3FED
606D
CC6D
7F6D
6D6D
7F6D
0B61
0F61
F961
03C7
ENDCHAR

STARTCHAR jisx0212_3350
ENCODING 13136
SWIDTH 960 0
DWIDTH 16 0
BBX 16 16 0 -2
BITMAP
0C01
0F01
19CD
3F6D
602D
FFED
666D
756D
576D
7FED
000D
3FCD
30C1
3FC1
30C1
3FC7
ENDCHAR

STARTCHAR jisx0212_3351
ENCODING 13137
SWIDTH 960 0
DWIDTH 16 0
BBX 16 16 0 -2
BITMAP
0601
37E1
360D
FFED
006D
01AD
7FED
618D
7F6D
6D6D
5D6D
6ACD
5EB1
CDB1
DB71
B637
ENDCHAR

STARTCHAR jisx0212_3352
ENCODING 13138
SWIDTH 960 0
DWIDTH 16 0
BBX 16 16 0 -2
BITMAP
0601
0C01
3FCD
30CD
3FCD
30CD
7FED
666D
7FED
666D
7FED
000D
FFF1
1981
3181
E187
ENDCHAR

STARTCHAR jisx0212_3353
ENCODING 13139
SWIDTH 960 0
DWIDTH 16 0
BBX 16 16 0 -2
BITMAP
0C61
7BC1
630D
7FED
6B6D
6B6D
C60D
7FED
606D
7FED
606D
7FED
6061
7FE1
39C1
E077
ENDCHAR

STARTCHAR jisx0212_3354
ENCODING 13140
SWIDTH 960 0
DWIDTH 16 0
BBX 16 16 0 -2
BITMAP
1801
3F81
630D
FFED
606D
7FED
632D
FBED
3E0D
660D
FFED
666D
7FE1
0D81
36B1
E7F7
ENDCHAR

STARTCHAR jisx0212_3355
ENCODING 13141
SWIDTH 960 0
DWIDTH 16 0
BBX 16 16 0 -2
BITMAP
5AC1
7BE1
D6CD
FFED
5ACD
5AAD
B6ED
7FED
606D
7FED
606D
7FED
6061
7FE1
39C1
E077
ENDCHAR

STARTCHAR jisx0212_3356
ENCODING 13142
SWIDTH 960 0
DWIDTH 16 0
BBX 16 16 0 -2
BITMAP
0301
7FF9
6CCD
7FFD
6CCD
5AAD
6AAD
6CBD
658D
7DED
658D
7DED
6781
7DF9
CD81
B987
ENDCHAR

STARTCHAR jisx0212_3357
ENCODING 13143
SWIDTH 960 0
DWIDTH 16 0
BBX 16 16 0 -2
BITMAP
7FF1
6031
7FED
630D
5AED
630D
5FED
556D
5FED
6C0D
5FED
75AD
5FAD
C5B1
BEB1
C0E7
ENDCHAR

STARTCHAR jisx0212_3358
ENCODING 13144
SWIDTH 960 0
DWIDTH 16 0
BBX 16 16 0 -2
BITMAP
1830
1830
1830
1830
FFB0
19B0
19B0
19B0
19B0
19B0
31B0
31B0
31B1
6331
6331
DE1F
ENDCHAR

STARTCHAR jisx0212_3359
ENCODING 13145
SWIDTH 960 0
DWIDTH 16 0
BBX 16 16 0 -2
BITMAP
01D8
3F18
3018
3018
307F
3FD9
3319
3319
3319
3319
3331
3331
6331
6363
6363
C2DE
ENDCHAR

STARTCHAR jisx0212_335A
ENCODING 13146
SWIDTH 960 0
DWIDTH 16 0
BBX 16 16 0 -2
BITMAP
0C18
0C18
0C18
FFD8
007F
0019
3F19
3319
3319
3319
3319
32B1
32B1
63B3
6063
C0DE
ENDCHAR

STARTCHAR jisx0212_335B
ENCODING 13147
SWIDTH 960 0
DWIDTH 16 0
BBX 16 16 0 -2
BITMAP
0180
0180
3FFE
0186
0306
0606
1C0C
7078
0C0C
0C0C
7F7F
1999
1999
31B1
6363
CECE
ENDCHAR

STARTCHAR jisx0212_335C
ENCODING 13148
SWIDTH 960 0
DWIDTH 16 0
BBX 16 16 0 -2
BITMAP
0198
0F18
7C18
0C18
0C7F
7F99
0C19
0C19
0C19
FFD9
0C31
0C31
0C31
0C63
0CC3
3D9E
ENDCHAR

STARTCHAR jisx0212_335D
ENCODING 13149
SWIDTH 960 0
DWIDTH 16 0
BBX 16 16 0 -2
BITMAP
0018
FF98
1818
1818
18FF
3019
3F19
7319
7319
B319
3331
3331
3331
3F63
30C3
319E
ENDCHAR

STARTCHAR jisx0212_335E
ENCODING 13150
SWIDTH 960 0
DWIDTH 16 0
BBX 16 16 0 -2
BITMAP
0C18
0C18
1818
7F98
617F
6199
6199
6199
7F99
6199
61B1
61B1
61B1
7F63
60C3
619E
ENDCHAR

STARTCHAR jisx0212_335F
ENCODING 13151
SWIDTH 960 0
DWIDTH 16 0
BBX 16 16 0 -2
BITMAP
01D8
7F18
6018
6018
607F
7FD9
6019
6019
5FD9
58D9
58D9
58B1
58B1
DFB3
D863
D8DE
ENDCHAR

STARTCHAR jisx0212_3360
ENCODING 13152
SWIDTH 960 0
DWIDTH 16 0
BBX 16 16 0 -2
BITMAP
6318
3318
3618
FFD8
0C7F
0C19
0C19
7F99
0C19
0C19
0BB1
FE31
1831
1863
30C3
619E
ENDCHAR

STARTCHAR jisx0212_3361
ENCODING 13153
SWIDTH 960 0
DWIDTH 16 0
BBX 16 16 0 -2
BITMAP
0C18
0C18
0C18
7F98
0C7F
0C19
0C19
FFD9
0C19
0C19
7FB1
0C31
0C31
0F63
FCC3
019E
ENDCHAR

STARTCHAR jisx0212_3362
ENCODING 13154
SWIDTH 960 0
DWIDTH 16 0
BBX 16 16 0 -2
BITMAP
0C18
1818
1B18
3198
FFFF
00D9
2C19
2C19
7F99
6C19
CC31
FFB1
0C31
0C63
0CC3
0D9E
ENDCHAR

STARTCHAR jisx0212_3363
ENCODING 13155
SWIDTH 960 0
DWIDTH 16 0
BBX 16 16 0 -2
BITMAP
0018
7FD8
6018
6018
5F7F
6619
6619
5F99
6619
6619
7FB1
6031
6031
7FE3
6063
60DE
ENDCHAR

STARTCHAR jisx0212_3364
ENCODING 13156
SWIDTH 960 0
DWIDTH 16 0
BBX 16 16 0 -2
BITMAP
0003
7FB3
0C33
1FB3
31B3
5B33
0E33
0C03
398F
6180
7FFF
0303
0303
0603
1C06
F03C
ENDCHAR

STARTCHAR jisx0212_3365
ENCODING 13157
SWIDTH 960 0
DWIDTH 16 0
BBX 16 16 0 -2
BITMAP
0C18
0C18
FFD8
0C18
0C7F
7F99
6199
6199
7F99
3619
3631
3631
35B1
6763
5CC3
C19E
ENDCHAR

STARTCHAR jisx0212_3366
ENCODING 13158
SWIDTH 960 0
DWIDTH 16 0
BBX 16 16 0 -2
BITMAP
1818
1818
3FD8
3018
607F
BF99
2D99
3599
3199
FFD9
5B31
6B31
6331
FF63
C2C3
0D9E
ENDCHAR

STARTCHAR jisx0212_3367
ENCODING 13159
SWIDTH 960 0
DWIDTH 16 0
BBX 16 16 0 -2
BITMAP
0C18
0C18
7F98
6198
617F
7F99
6199
6199
7F99
60D9
6DB1
6731
6331
6D63
78C3
E19E
ENDCHAR

STARTCHAR jisx0212_3368
ENCODING 13160
SWIDTH 960 0
DWIDTH 16 0
BBX 16 16 0 -2
BITMAP
0018
FF98
3198
1718
0C7F
7F99
6D99
6D99
7F99
6D99
6D99
7FB1
6DB1
6DB3
6D63
6B5E
ENDCHAR

STARTCHAR jisx0212_3369
ENCODING 13161
SWIDTH 960 0
DWIDTH 16 0
BBX 16 16 0 -2
BITMAP
0C0C
2B0C
2D8C
7FCC
DB3F
1B0D
FFED
318D
318D
7ECD
B359
3319
3719
3033
31B3
1F6E
ENDCHAR

STARTCHAR jisx0212_336A
ENCODING 13162
SWIDTH 960 0
DWIDTH 16 0
BBX 16 16 0 -2
BITMAP
0C18
0C18
FFD8
0018
637F
3319
3619
FFD9
0019
7F99
61B1
61B1
61B1
6163
7F63
60DE
ENDCHAR

STARTCHAR jisx0212_336B
ENCODING 13163
SWIDTH 960 0
DWIDTH 16 0
BBX 16 16 0 -2
BITMAP
0C18
0C18
0C18
FFD8
0C7F
6D99
6D99
6D99
AAD9
AAD9
1E31
1B31
2DB1
6C63
CCC3
0D9E
ENDCHAR

STARTCHAR jisx0212_336C
ENCODING 13164
SWIDTH 960 0
DWIDTH 16 0
BBX 16 16 0 -2
BITMAP
000C
FFEC
0C0C
0C0C
183F
7FCD
56CD
56CD
5ECD
56CD
56D9
5ED9
56D9
56B3
7FB3
606E
ENDCHAR

STARTCHAR jisx0212_336D
ENCODING 13165
SWIDTH 960 0
DWIDTH 16 0
BBX 16 16 0 -2
BITMAP
000C
FFCC
C0CC
BECC
C0BF
BECD
C0CD
000D
7F8D
618D
7F99
6199
7F99
61B3
7FB3
606E
ENDCHAR

STARTCHAR jisx0212_336E
ENCODING 13166
SWIDTH 960 0
DWIDTH 16 0
BBX 16 16 0 -2
BITMAP
000C
3F8C
318C
3F8C
003F
7FCD
60CD
7FCD
60CD
7FCD
60D9
60D9
7FD9
1B33
71B3
C06E
ENDCHAR

STARTCHAR jisx0212_336F
ENCODING 13167
SWIDTH 960 0
DWIDTH 16 0
BBX 16 16 0 -2
BITMAP
3F0C
030C
318C
6CCC
CB7F
198D
7ECD
000D
F7CD
39CD
5AD9
D6D9
39D9
5AB3
D6E3
39CE
ENDCHAR

STARTCHAR jisx0212_3370
ENCODING 13168
SWIDTH 960 0
DWIDTH 16 0
BBX 16 16 0 -2
BITMAP
0018
FFD8
1618
7F98
557F
5599
7F99
0019
7F99
0019
FFB1
0C31
2B31
6D63
CC63
3CDE
ENDCHAR

STARTCHAR jisx0212_3371
ENCODING 13169
SWIDTH 960 0
DWIDTH 16 0
BBX 16 16 0 -2
BITMAP
0030
7E66
05FF
7E19
60FF
FEDB
C6FF
0616
3DFF
0181
0180
7FFF
0303
0603
1C06
F03C
ENDCHAR

STARTCHAR jisx0212_3372
ENCODING 13170
SWIDTH 960 0
DWIDTH 16 0
BBX 16 16 0 -2
BITMAP
180C
3F0C
330C
660C
FFBF
6CCD
6CCD
7FCD
18CD
2D8D
EF19
3599
EED9
36B3
E663
1CCE
ENDCHAR

STARTCHAR jisx0212_3373
ENCODING 13171
SWIDTH 960 0
DWIDTH 16 0
BBX 16 16 0 -2
BITMAP
6B18
6B18
FFD8
6B18
6B7F
6F19
6019
7FD9
6199
7F99
6199
7FB1
61B1
7FB3
3363
E15E
ENDCHAR

STARTCHAR jisx0212_3374
ENCODING 13172
SWIDTH 960 0
DWIDTH 16 0
BBX 16 16 0 -2
BITMAP
038C
7E0C
180C
FFEC
31BF
7ECD
B36D
3F0D
000D
FFCD
C0D9
BED9
B2D9
BEB3
B0E3
C3CE
ENDCHAR

STARTCHAR jisx0212_3375
ENCODING 13173
SWIDTH 960 0
DWIDTH 16 0
BBX 16 16 0 -2
BITMAP
0C0C
2D8C
6CCC
BF6C
1B3F
FFED
318D
6CCD
BB6D
160D
0D99
FFD9
2CD9
2B33
6DB3
CC6E
ENDCHAR

STARTCHAR jisx0212_3376
ENCODING 13174
SWIDTH 960 0
DWIDTH 16 0
BBX 16 16 0 -2
BITMAP
1800
187F
FF6D
196D
317F
316D
6F6D
C06D
667F
6618
FF8C
555B
5559
5559
DDDB
AB1F
ENDCHAR

STARTCHAR jisx0212_3377
ENCODING 13175
SWIDTH 960 0
DWIDTH 16 0
BBX 16 16 0 -2
BITMAP
330C
330C
FFCC
330C
7FBF
6D8D
7F8D
6D8D
7F8D
0C0D
FFD9
CCD9
CAD9
BDB3
C0E3
C3CE
ENDCHAR

STARTCHAR jisx0212_3378
ENCODING 13176
SWIDTH 960 0
DWIDTH 16 0
BBX 16 16 0 -2
BITMAP
0C0C
0F8C
0C0C
7FEC
6CBF
7F0D
6CCD
5FCD
56CD
5FCD
56D9
5FD9
6619
CAB3
AD73
AF6E
ENDCHAR

STARTCHAR jisx0212_3379
ENCODING 13177
SWIDTH 960 0
DWIDTH 16 0
BBX 16 16 0 -2
BITMAP
198C
2FEC
636F
DFFB
301B
77EB
B66B
37E6
366E
37DB
3671
0180
FFFF
0301
0E03
F83E
ENDCHAR

STARTCHAR jisx0212_337A
ENCODING 13178
SWIDTH 960 0
DWIDTH 16 0
BBX 16 16 0 -2
BITMAP
060C
FFEC
000C
7BCC
5ABF
7BCD
1B0D
7FCD
1B0D
7FCD
1B19
FFD9
36D9
5BB3
DDB3
78EE
ENDCHAR

STARTCHAR jisx0212_337B
ENCODING 13179
SWIDTH 960 0
DWIDTH 16 0
BBX 16 16 0 -2
BITMAP
0C00
0C00
1FFF
1803
3003
3003
6003
BFF3
0003
0003
0073
07C3
7C03
0006
0006
003C
ENDCHAR

STARTCHAR jisx0212_337C
ENCODING 13180
SWIDTH 960 0
DWIDTH 16 0
BBX 16 16 0 -2
BITMAP
0C00
0C00
1FFF
1803
30C3
30C3
60C3
B183
31E3
3333
361B
2C1B
3003
3FF6
3006
003C
ENDCHAR

STARTCHAR jisx0212_337D
ENCODING 13181
SWIDTH 960 0
DWIDTH 16 0
BBX 16 16 0 -2
BITMAP
0C00
0C00
1FFF
1801
3199
3999
6DB1
CDB1
7FFD
0181
03C1
0571
0D99
398B
6183
018E
ENDCHAR

STARTCHAR jisx0212_337E
ENCODING 13182
SWIDTH 960 0
DWIDTH 16 0
BBX 16 16 0 -2
BITMAP
0C00
0C00
1FFF
1601
3601
2FF9
6D81
D981
3FFD
0181
1999
1999
1999
1FFB
1803
001E
ENDCHAR

STARTCHAR jisx0212_3421
ENCODING 13345
SWIDTH 960 0
DWIDTH 16 0
BBX 16 16 0 -2
BITMAP
0C00
0C00
1FFF
1803
3383
66C3
CC63
1833
6FDB
C00B
1FE3
1863
1863
1866
1FE6
181C
ENDCHAR

STARTCHAR jisx0212_3422
ENCODING 13346
SWIDTH 960 0
DWIDTH 16 0
BBX 16 16 0 -2
BITMAP
1800
1800
3FFF
3601
6C7D
BF0D
330D
3F7D
3361
3F61
337D
2F0D
F70D
0B0D
3B1B
EF6E
ENDCHAR

STARTCHAR jisx0212_3423
ENCODING 13347
SWIDTH 960 0
DWIDTH 16 0
BBX 16 16 0 -2
BITMAP
1800
1800
3FFF
2C01
58F9
BED9
32D5
3EDD
3381
3EFD
006D
376D
3C39
3039
336B
1ECE
ENDCHAR

STARTCHAR jisx0212_3424
ENCODING 13348
SWIDTH 960 0
DWIDTH 16 0
BBX 16 16 0 -2
BITMAP
60DB
60DB
61B6
636C
65B6
6CDB
58DB
7030
61FF
6185
616D
6199
65AD
6565
3DFF
0181
ENDCHAR

STARTCHAR jisx0212_3425
ENCODING 13349
SWIDTH 960 0
DWIDTH 16 0
BBX 16 16 0 -2
BITMAP
0000
7FFF
6300
6300
63F0
6630
6660
6C60
6CB0
58B0
6198
6318
660C
6C06
7FFF
6000
ENDCHAR

STARTCHAR jisx0212_3426
ENCODING 13350
SWIDTH 960 0
DWIDTH 16 0
BBX 16 16 0 -2
BITMAP
0000
7FFF
60C0
66C0
66BC
67EC
5ECC
66CC
66B8
6606
6606
63FE
6000
6000
7FFF
6000
ENDCHAR

STARTCHAR jisx0212_3427
ENCODING 13351
SWIDTH 960 0
DWIDTH 16 0
BBX 16 16 0 -2
BITMAP
0000
7FFF
6000
6000
6FFC
60C0
60C0
60C0
60C0
60C0
60C0
5FFE
6000
6000
7FFF
6000
ENDCHAR

STARTCHAR jisx0212_3428
ENCODING 13352
SWIDTH 960 0
DWIDTH 16 0
BBX 16 16 0 -2
BITMAP
0000
7FFF
60C0
60C0
5FFF
6000
63F0
6330
6330
6330
6633
6633
6C1F
5800
7FFF
6000
ENDCHAR

STARTCHAR jisx0212_3429
ENCODING 13353
SWIDTH 960 0
DWIDTH 16 0
BBX 16 16 0 -2
BITMAP
0000
7FFF
60C0
6198
630C
6FFE
6003
6198
6198
5FFF
6198
6198
6318
6618
7FFF
6000
ENDCHAR

STARTCHAR jisx0212_342A
ENCODING 13354
SWIDTH 960 0
DWIDTH 16 0
BBX 16 16 0 -2
BITMAP
0000
7FFF
60C0
60C0
5FFF
60C0
66CC
66CC
6AD6
6D5B
5973
6330
661C
6C06
7FFF
6000
ENDCHAR

STARTCHAR jisx0212_342B
ENCODING 13355
SWIDTH 960 0
DWIDTH 16 0
BBX 16 16 0 -2
BITMAP
0000
7FFF
6000
6D8C
6D8C
6D8C
6F7F
6D8C
618C
5F8C
6D8C
6D8C
6DBF
5980
7FFF
6000
ENDCHAR

STARTCHAR jisx0212_342C
ENCODING 13356
SWIDTH 960 0
DWIDTH 16 0
BBX 16 16 0 -2
BITMAP
0000
7FFF
6060
6666
6666
67FE
6666
6000
6FFF
6060
67FE
6060
6FFF
6000
7FFF
6000
ENDCHAR

STARTCHAR jisx0212_342D
ENCODING 13357
SWIDTH 960 0
DWIDTH 16 0
BBX 16 16 0 -2
BITMAP
0000
7FFF
6300
67FE
65B6
6DB6
5B66
66DC
6FFE
6606
67FE
6606
67FE
6000
7FFF
6000
ENDCHAR

STARTCHAR jisx0212_342E
ENCODING 13358
SWIDTH 960 0
DWIDTH 16 0
BBX 16 16 0 -2
BITMAP
0000
7FFF
6000
67F0
6318
6DEE
7803
6F9B
6DB6
6DB6
6B6C
6D6C
6BB6
6D9B
7FFF
6000
ENDCHAR

STARTCHAR jisx0212_342F
ENCODING 13359
SWIDTH 960 0
DWIDTH 16 0
BBX 16 16 0 -2
BITMAP
0000
7FFF
6630
7FB0
6630
5FFE
55B6
5FB6
55B6
5FB6
6635
7FE5
6667
66C0
7FFF
6000
ENDCHAR

STARTCHAR jisx0212_3430
ENCODING 13360
SWIDTH 960 0
DWIDTH 16 0
BBX 16 16 0 -2
BITMAP
0000
7FFF
6000
6FBF
6CB3
6FBF
6000
67FE
6666
67FE
6666
5FFF
6060
6060
7FFF
6000
ENDCHAR

STARTCHAR jisx0212_3431
ENCODING 13361
SWIDTH 960 0
DWIDTH 16 0
BBX 16 16 0 -2
BITMAP
0000
7FFF
60C0
6180
5FFF
630C
67FE
5B0B
73FC
6000
6FBF
6CB3
6FBF
6000
7FFF
6000
ENDCHAR

STARTCHAR jisx0212_3432
ENCODING 13362
SWIDTH 960 0
DWIDTH 16 0
BBX 16 16 0 -2
BITMAP
0000
7FFF
6060
6FFF
6060
6FFF
6DB3
6FFF
6606
67FE
6606
67FE
630E
6E03
7FFF
6000
ENDCHAR

STARTCHAR jisx0212_3433
ENCODING 13363
SWIDTH 960 0
DWIDTH 16 0
BBX 16 16 0 -2
BITMAP
0000
FFFF
6000
60E0
61B0
6318
67FE
5C03
6000
67FC
660C
660C
67FC
660C
6000
3FFF
ENDCHAR

STARTCHAR jisx0212_3434
ENCODING 13364
SWIDTH 960 0
DWIDTH 16 0
BBX 16 16 0 -2
BITMAP
0000
7FFF
6000
67FC
660C
67FC
660C
67FC
6180
5FFF
6318
67B0
6CDC
6786
7FFF
6000
ENDCHAR

STARTCHAR jisx0212_3435
ENCODING 13365
SWIDTH 960 0
DWIDTH 16 0
BBX 16 16 0 -2
BITMAP
0000
FFFF
6007
6FFC
6C00
6FFF
6C03
6FFF
6C00
6FFF
56DB
57FF
76DB
66D7
6000
3FFF
ENDCHAR

STARTCHAR jisx0212_3436
ENCODING 13366
SWIDTH 960 0
DWIDTH 16 0
BBX 16 16 0 -2
BITMAP
0000
FFFC
000C
060C
060C
060C
060C
060C
FFEC
060C
060C
0605
0605
0605
0603
0601
ENDCHAR

STARTCHAR jisx0212_3437
ENCODING 13367
SWIDTH 960 0
DWIDTH 16 0
BBX 16 16 0 -2
BITMAP
1B6C
1B6C
1B6C
1B6C
1B6C
1B6C
FFFF
1B6C
1B6C
1B6C
1B6C
1B6C
1B6C
1B6C
1B6C
1B6C
ENDCHAR

STARTCHAR jisx0212_3438
ENCODING 13368
SWIDTH 960 0
DWIDTH 16 0
BBX 16 16 0 -2
BITMAP
0180
0180
0180
7FFF
0180
198C
198C
180C
FFFF
180C
180C
180C
180C
180C
1FFC
180C
ENDCHAR

STARTCHAR jisx0212_3439
ENCODING 13369
SWIDTH 960 0
DWIDTH 16 0
BBX 16 16 0 -2
BITMAP
318C
318C
FFEC
318C
3F8C
317F
3F8C
318C
318C
FFEC
6B0C
6B6C
5BEC
700C
7FEC
600C
ENDCHAR

STARTCHAR jisx0212_343A
ENCODING 13370
SWIDTH 960 0
DWIDTH 16 0
BBX 16 16 0 -2
BITMAP
3006
63EC
D81B
77EE
6C0D
FBDF
3006
ABD5
AB55
ABD5
3186
0180
FFFF
0180
0180
0180
ENDCHAR

STARTCHAR jisx0212_343B
ENCODING 13371
SWIDTH 960 0
DWIDTH 16 0
BBX 16 16 0 -2
BITMAP
0180
0180
0180
01FF
0180
0180
0180
FFFF
0180
0170
019C
0186
0183
0180
0180
0180
ENDCHAR

STARTCHAR jisx0212_343C
ENCODING 13372
SWIDTH 960 0
DWIDTH 16 0
BBX 16 16 0 -2
BITMAP
0180
0180
01FF
0180
0180
7FFF
6003
6003
7FC3
60C3
60C3
7FC3
6003
6003
7FFF
6003
ENDCHAR

STARTCHAR jisx0212_343D
ENCODING 13373
SWIDTH 960 0
DWIDTH 16 0
BBX 16 16 0 -2
BITMAP
0180
01FF
0180
0180
7FFF
60C3
619B
5D9B
6733
65B3
6C63
58B3
639B
6603
7FFF
6003
ENDCHAR

STARTCHAR jisx0212_343E
ENCODING 13374
SWIDTH 960 0
DWIDTH 16 0
BBX 16 16 0 -2
BITMAP
0380
3E7F
3063
3063
3063
3063
3063
3063
3063
3063
3763
3C6F
F060
0060
0060
0060
ENDCHAR

STARTCHAR jisx0212_343F
ENCODING 13375
SWIDTH 960 0
DWIDTH 16 0
BBX 16 16 0 -2
BITMAP
0000
FF7F
1863
1863
1863
1863
1863
1863
1863
1863
1B63
1E6F
F060
0060
0060
0060
ENDCHAR

STARTCHAR jisx0212_3440
ENCODING 13376
SWIDTH 960 0
DWIDTH 16 0
BBX 16 16 0 -2
BITMAP
0000
FFBF
19B1
19B1
19B1
31B1
31B1
6731
C031
7FB1
61B1
61B7
61B0
61B0
7FB0
61B0
ENDCHAR

STARTCHAR jisx0212_3441
ENCODING 13377
SWIDTH 960 0
DWIDTH 16 0
BBX 16 16 0 -2
BITMAP
0C00
0C00
183F
7FB3
55B3
55B3
55B3
55B3
55B3
55B3
55B3
55B3
55AF
5F30
F030
0030
ENDCHAR

STARTCHAR jisx0212_3442
ENCODING 13378
SWIDTH 960 0
DWIDTH 16 0
BBX 16 16 0 -2
BITMAP
0000
F7BF
D6B3
D6B3
F7B3
0033
7FB3
0033
FFB3
3033
3033
7F2F
6330
6330
0330
1E30
ENDCHAR

STARTCHAR jisx0212_3443
ENCODING 13379
SWIDTH 960 0
DWIDTH 16 0
BBX 16 16 0 -2
BITMAP
0600
0600
0FF0
0C30
1860
3FFF
5800
D800
1800
1800
1800
1800
3000
3000
6000
C000
ENDCHAR

STARTCHAR jisx0212_3444
ENCODING 13380
SWIDTH 960 0
DWIDTH 16 0
BBX 16 16 0 -2
BITMAP
0000
3FFF
3000
300E
3078
37E0
3060
3060
307F
3FE0
3060
3060
3060
6061
6061
C03F
ENDCHAR

STARTCHAR jisx0212_3445
ENCODING 13381
SWIDTH 960 0
DWIDTH 16 0
BBX 16 16 0 -2
BITMAP
0000
7FFF
6000
6000
6FFF
6060
6060
6060
6060
5FFF
6060
6060
6060
C060
C060
C060
ENDCHAR

STARTCHAR jisx0212_3446
ENCODING 13382
SWIDTH 960 0
DWIDTH 16 0
BBX 16 16 0 -2
BITMAP
0000
7FFF
6000
600E
67F8
6630
6630
6630
67FF
6618
6618
6618
65EC
BF0D
C005
DFFB
ENDCHAR

STARTCHAR jisx0212_3447
ENCODING 13383
SWIDTH 960 0
DWIDTH 16 0
BBX 16 16 0 -2
BITMAP
0000
7FFF
6000
6060
6060
67FE
6060
6060
6FFF
6000
6060
6060
67FE
C060
C060
DFFF
ENDCHAR

STARTCHAR jisx0212_3448
ENCODING 13384
SWIDTH 960 0
DWIDTH 16 0
BBX 16 16 0 -2
BITMAP
0000
7FFF
6000
6000
6FFF
60C0
6198
618C
637E
6FC3
6060
6060
6FFF
C060
C060
DFFF
ENDCHAR

STARTCHAR jisx0212_3449
ENCODING 13385
SWIDTH 960 0
DWIDTH 16 0
BBX 16 16 0 -2
BITMAP
0000
7FFF
6060
6060
5FFF
6060
67FE
6666
67FE
6666
6666
67FE
6060
DFFF
C060
C060
ENDCHAR

STARTCHAR jisx0212_344A
ENCODING 13386
SWIDTH 960 0
DWIDTH 16 0
BBX 16 16 0 -2
BITMAP
0000
7FFF
6198
6198
6FFF
6198
6198
5FFF
6000
6000
67FE
6606
67FE
C606
C7FE
C606
ENDCHAR

STARTCHAR jisx0212_344B
ENCODING 13387
SWIDTH 960 0
DWIDTH 16 0
BBX 16 16 0 -2
BITMAP
0000
7FFF
6060
60C0
67FE
6606
67FE
6606
67FE
6063
6F76
616C
6358
CE6E
B863
C1E0
ENDCHAR

STARTCHAR jisx0212_344C
ENCODING 13388
SWIDTH 960 0
DWIDTH 16 0
BBX 16 16 0 -2
BITMAP
0000
7FFF
6000
61C7
5F7C
6618
6618
5F7F
663C
6F3C
6D56
5656
56DB
B599
C618
C618
ENDCHAR

STARTCHAR jisx0212_344D
ENCODING 13389
SWIDTH 960 0
DWIDTH 16 0
BBX 16 16 0 -2
BITMAP
0000
7FFF
630C
5FFF
630C
63FC
6060
6FFF
6C63
6FFF
6060
6FFF
6060
CFFE
C060
BFFF
ENDCHAR

STARTCHAR jisx0212_344E
ENCODING 13390
SWIDTH 960 0
DWIDTH 16 0
BBX 16 16 0 -2
BITMAP
0000
7FFF
6618
6618
5F98
663F
7FB6
6636
7FF6
6CB6
6C16
6F9C
6D8C
D996
D973
B6C1
ENDCHAR

STARTCHAR jisx0212_344F
ENCODING 13391
SWIDTH 960 0
DWIDTH 16 0
BBX 16 16 0 -2
BITMAP
0000
7FFF
6618
6618
7FFF
6618
6F3C
5556
76DB
6618
6180
66CC
6666
C61B
C61B
C3F8
ENDCHAR

STARTCHAR jisx0212_3450
ENCODING 13392
SWIDTH 960 0
DWIDTH 16 0
BBX 16 16 0 -2
BITMAP
0000
7FFF
6198
5FFF
6198
67FE
6666
67FE
6666
67FE
6060
5FFF
5859
D87D
D7E5
D803
ENDCHAR

STARTCHAR jisx0212_3451
ENCODING 13393
SWIDTH 960 0
DWIDTH 16 0
BBX 16 16 0 -2
BITMAP
0000
7FFF
6D8B
5FCD
58FF
5FCC
58D6
5FB3
58E1
6FFF
6C63
6FFF
6C63
CFFF
C060
C060
ENDCHAR

STARTCHAR jisx0212_3452
ENCODING 13394
SWIDTH 960 0
DWIDTH 16 0
BBX 16 16 0 -2
BITMAP
1FFF
1860
17FE
1606
17FE
1958
336E
6EE3
0000
7F7F
6C6C
5F5F
5B5B
5F5F
AAAD
AAAD
ENDCHAR

STARTCHAR jisx0212_3453
ENCODING 13395
SWIDTH 960 0
DWIDTH 16 0
BBX 16 16 0 -2
BITMAP
0300
0300
0300
FFFF
0600
0660
0660
0CC0
0CC0
18C0
1998
318C
3306
637E
DFC3
0003
ENDCHAR

STARTCHAR jisx0212_3454
ENCODING 13396
SWIDTH 960 0
DWIDTH 16 0
BBX 16 16 0 -2
BITMAP
0000
0C0C
0C0C
0C0C
1818
1818
1818
1818
2C2C
3636
3636
6363
6363
5F5F
F2F1
0001
ENDCHAR

STARTCHAR jisx0212_3455
ENCODING 13397
SWIDTH 960 0
DWIDTH 16 0
BBX 16 16 0 -2
BITMAP
0300
0300
0300
7FFF
0630
0C18
0D98
198C
3306
6303
C331
0618
060C
0DFC
7F06
0006
ENDCHAR

STARTCHAR jisx0212_3456
ENCODING 13398
SWIDTH 960 0
DWIDTH 16 0
BBX 16 16 0 -2
BITMAP
0180
0300
0330
0618
060C
0CFC
7F86
0006
1818
1818
3030
3636
6363
6F6F
F9F9
0181
ENDCHAR

STARTCHAR jisx0212_3457
ENCODING 13399
SWIDTH 960 0
DWIDTH 16 0
BBX 16 16 0 -2
BITMAP
0180
0180
FFFF
0180
3FFE
3186
3FFE
3186
3186
3FFE
3300
0618
0C0C
19FE
FF03
0001
ENDCHAR

STARTCHAR jisx0212_3458
ENCODING 13400
SWIDTH 960 0
DWIDTH 16 0
BBX 16 16 0 -2
BITMAP
0180
0330
0618
3FEC
1806
318C
6ADB
FE7F
0C31
1B1C
7307
DAD9
1B6C
3336
6333
0F00
ENDCHAR

STARTCHAR jisx0212_3459
ENCODING 13401
SWIDTH 960 0
DWIDTH 16 0
BBX 16 16 0 -2
BITMAP
0180
0180
3FFC
018C
018C
018C
FFFF
0180
0180
3FFC
0C0C
0618
0330
01E0
0F3C
F807
ENDCHAR

STARTCHAR jisx0212_345A
ENCODING 13402
SWIDTH 960 0
DWIDTH 16 0
BBX 16 16 0 -2
BITMAP
0000
3FF8
0C18
0630
0360
01C0
0F78
780F
0000
FEFF
6363
6666
2C2C
1818
6E6E
C2C3
ENDCHAR

STARTCHAR jisx0212_345B
ENCODING 13403
SWIDTH 960 0
DWIDTH 16 0
BBX 16 16 0 -2
BITMAP
0180
0180
FFFF
0180
3FFE
3186
3186
3FFE
0180
3FFC
0C0C
0618
0330
01E0
0F3C
F807
ENDCHAR

STARTCHAR jisx0212_345C
ENCODING 13404
SWIDTH 960 0
DWIDTH 16 0
BBX 16 16 0 -2
BITMAP
0000
FEFF
6363
6666
2C2C
1818
6E6E
C2C3
0000
FEFF
6363
6666
2C2C
1818
6E6E
C2C3
ENDCHAR

STARTCHAR jisx0212_345D
ENCODING 13405
SWIDTH 960 0
DWIDTH 16 0
BBX 16 16 0 -2
BITMAP
0000
7F7F
6303
6303
6303
7F7F
6000
6000
7EFF
6063
6063
6036
7F1C
602C
60E7
6381
ENDCHAR

STARTCHAR jisx0212_345E
ENCODING 13406
SWIDTH 960 0
DWIDTH 16 0
BBX 16 16 0 -2
BITMAP
1800
18FF
18C3
7EC3
18C3
18CF
18C0
FFFF
18B3
16B3
36D6
32D6
5F8C
F196
0373
06C1
ENDCHAR

STARTCHAR jisx0212_345F
ENCODING 13407
SWIDTH 960 0
DWIDTH 16 0
BBX 16 16 0 -2
BITMAP
0000
7F7F
61B3
61B3
7FB3
6033
6033
5F96
6016
7FD6
660C
558C
56D6
B6B6
B663
DEC1
ENDCHAR

STARTCHAR jisx0212_3460
ENCODING 13408
SWIDTH 960 0
DWIDTH 16 0
BBX 16 16 0 -2
BITMAP
1FFC
0018
0F70
03E0
FF7F
3333
1E1E
363B
E2E1
FFFF
D80D
DFFD
180C
1FFC
180C
FFFF
ENDCHAR

STARTCHAR jisx0212_3461
ENCODING 13409
SWIDTH 960 0
DWIDTH 16 0
BBX 16 16 0 -2
BITMAP
0000
1FFE
1806
1806
1806
1806
1FFE
0180
0180
7FFF
0183
0303
0303
0603
1C06
F07C
ENDCHAR

STARTCHAR jisx0212_3462
ENCODING 13410
SWIDTH 960 0
DWIDTH 16 0
BBX 16 16 0 -2
BITMAP
0000
1FFE
1806
1806
1806
1806
1FFE
0000
0000
7FFF
0303
0303
0603
0C03
3806
E07C
ENDCHAR

STARTCHAR jisx0212_3463
ENCODING 13411
SWIDTH 960 0
DWIDTH 16 0
BBX 16 16 0 -2
BITMAP
0000
7FFF
6000
6000
6000
63FC
630C
630C
630C
630C
63FC
6300
6000
6000
7FFF
6000
ENDCHAR

STARTCHAR jisx0212_3464
ENCODING 13412
SWIDTH 960 0
DWIDTH 16 0
BBX 16 16 0 -2
BITMAP
0180
0180
7FFF
6000
6000
6000
3FFF
0000
0000
3FFE
3006
3006
3006
3006
3FFE
3006
ENDCHAR

STARTCHAR jisx0212_3465
ENCODING 13413
SWIDTH 960 0
DWIDTH 16 0
BBX 16 16 0 -2
BITMAP
0000
0000
FBFF
CC30
CC30
CC30
CC30
CC3C
CC36
CC33
FC31
C030
C030
0030
0030
0030
ENDCHAR

STARTCHAR jisx0212_3466
ENCODING 13414
SWIDTH 960 0
DWIDTH 16 0
BBX 16 16 0 -2
BITMAP
0000
03FE
F866
D866
D866
D7FF
D866
D866
D866
DBFE
F866
C066
C0C0
00C0
0380
0E00
ENDCHAR

STARTCHAR jisx0212_3467
ENCODING 13415
SWIDTH 960 0
DWIDTH 16 0
BBX 16 16 0 -2
BITMAP
0318
0318
FB18
DB18
DB19
DB1B
DBD6
DB1C
DB18
DB18
DB18
FB18
C318
C359
03D9
1E0F
ENDCHAR

STARTCHAR jisx0212_3468
ENCODING 13416
SWIDTH 960 0
DWIDTH 16 0
BBX 16 16 0 -2
BITMAP
0000
03FF
FB33
DB33
DB33
DB33
DB33
DB33
DBFF
DB03
DB00
FB00
C301
C301
0301
01FF
ENDCHAR

STARTCHAR jisx0212_3469
ENCODING 13417
SWIDTH 960 0
DWIDTH 16 0
BBX 16 16 0 -2
BITMAP
0030
0033
F83E
D7F0
D830
DB33
DB33
DB33
DB33
DB33
DBFF
FB30
C330
C031
0031
001F
ENDCHAR

STARTCHAR jisx0212_346A
ENCODING 13418
SWIDTH 960 0
DWIDTH 16 0
BBX 16 16 0 -2
BITMAP
00D8
00D8
F8D8
D998
D999
D99B
DB96
DB9C
D5B8
DD58
D998
F998
C198
C199
0199
018F
ENDCHAR

STARTCHAR jisx0212_346B
ENCODING 13419
SWIDTH 960 0
DWIDTH 16 0
BBX 16 16 0 -2
BITMAP
000F
3FF8
3000
3000
3FFF
3003
3003
3FFF
3000
3000
2FFF
2C03
6C03
6C03
6FFF
CC03
ENDCHAR

STARTCHAR jisx0212_346C
ENCODING 13420
SWIDTH 960 0
DWIDTH 16 0
BBX 16 16 0 -2
BITMAP
0030
0030
FC30
CBFF
CC30
CC30
CC30
CBFF
CCC3
CCC6
CC66
FC6C
C038
C058
01CE
0F03
ENDCHAR

STARTCHAR jisx0212_346D
ENCODING 13421
SWIDTH 960 0
DWIDTH 16 0
BBX 16 16 0 -2
BITMAP
0000
3FFE
3006
3006
3006
3FFE
0000
0000
7FFF
0180
0180
FFFF
02C0
0670
1C1C
F007
ENDCHAR

STARTCHAR jisx0212_346E
ENCODING 13422
SWIDTH 960 0
DWIDTH 16 0
BBX 16 16 0 -2
BITMAP
0030
0030
FC30
CDAC
CDB6
CDB3
CB33
CB31
CE35
CC36
CCEC
FC18
C030
C0E0
0380
0E00
ENDCHAR

STARTCHAR jisx0212_346F
ENCODING 13423
SWIDTH 960 0
DWIDTH 16 0
BBX 16 16 0 -2
BITMAP
0000
03FF
FB00
DB00
DB00
DB7F
DB63
DB63
DB63
DB63
DB63
FB6F
C660
C661
0C61
183F
ENDCHAR

STARTCHAR jisx0212_3470
ENCODING 13424
SWIDTH 960 0
DWIDTH 16 0
BBX 16 16 0 -2
BITMAP
0000
7FF0
0630
067F
0C63
1803
719E
C180
FFFF
0180
0180
3FFE
3006
3006
3FFE
3006
ENDCHAR

STARTCHAR jisx0212_3471
ENCODING 13425
SWIDTH 960 0
DWIDTH 16 0
BBX 16 16 0 -2
BITMAP
0180
0186
7DCC
05D8
0D70
0DB0
1998
318E
E783
0000
3FFC
300C
300C
300C
3FFC
300C
ENDCHAR

STARTCHAR jisx0212_3472
ENCODING 13426
SWIDTH 960 0
DWIDTH 16 0
BBX 16 16 0 -2
BITMAP
0000
03FF
FC00
CC00
CC00
CC00
CFFF
CC60
CC60
CCC0
CCCC
FD86
C183
C33F
0FE1
0001
ENDCHAR

STARTCHAR jisx0212_3473
ENCODING 13427
SWIDTH 960 0
DWIDTH 16 0
BBX 16 16 0 -2
BITMAP
0036
0066
F9C6
D6C6
D8C6
D8C6
D8C6
D7FF
D8C6
D8C6
D8C6
F8C6
C186
C186
0306
0606
ENDCHAR

STARTCHAR jisx0212_3474
ENCODING 13428
SWIDTH 960 0
DWIDTH 16 0
BBX 16 16 0 -2
BITMAP
0000
03FF
FC01
CC01
CBFD
CC01
CC01
CDF9
CD99
CD99
CD99
FDF9
C181
C001
0001
000F
ENDCHAR

STARTCHAR jisx0212_3475
ENCODING 13429
SWIDTH 960 0
DWIDTH 16 0
BBX 16 16 0 -2
BITMAP
0000
03FF
FB03
DB03
DBFF
DB00
DB60
DB60
DB63
DB6E
DB78
FB60
C660
C661
0C61
183F
ENDCHAR

STARTCHAR jisx0212_3476
ENCODING 13430
SWIDTH 960 0
DWIDTH 16 0
BBX 16 16 0 -2
BITMAP
0030
0058
FCCC
CD86
CB03
CDFD
CC00
CC00
CBFF
CC63
CC63
FC63
C063
C06F
0060
0060
ENDCHAR

STARTCHAR jisx0212_3477
ENCODING 13431
SWIDTH 960 0
DWIDTH 16 0
BBX 16 16 0 -2
BITMAP
00CC
00CC
F98C
D98C
DB6C
D67F
DACD
DACD
D98D
D98D
DAD9
FB59
C5D9
DF33
0063
00DE
ENDCHAR

STARTCHAR jisx0212_3478
ENCODING 13432
SWIDTH 960 0
DWIDTH 16 0
BBX 16 16 0 -2
BITMAP
0003
001E
FBF8
DB18
DB18
DB18
DBFF
DB18
DB18
DB0C
DB0C
FB6C
C3C5
CE05
0003
07FD
ENDCHAR

STARTCHAR jisx0212_3479
ENCODING 13433
SWIDTH 960 0
DWIDTH 16 0
BBX 16 16 0 -2
BITMAP
0000
01FF
FC00
CC00
CC00
CC00
CBFF
CC30
CC30
CDB6
CDB3
FB33
C331
C631
0C31
00F0
ENDCHAR

STARTCHAR jisx0212_347A
ENCODING 13434
SWIDTH 960 0
DWIDTH 16 0
BBX 16 16 0 -2
BITMAP
0030
0030
FC30
CC3F
CC30
CC30
CC30
CC30
CBFF
CB03
CB03
FB03
C303
C303
03FF
0303
ENDCHAR

STARTCHAR jisx0212_347B
ENCODING 13435
SWIDTH 960 0
DWIDTH 16 0
BBX 16 16 0 -2
BITMAP
006C
036C
FB6C
DB6C
DB6C
DFFF
DB6C
DB6C
DB6C
DB6C
DB7C
FB00
C300
C300
03FF
0300
ENDCHAR

STARTCHAR jisx0212_347C
ENCODING 13436
SWIDTH 960 0
DWIDTH 16 0
BBX 16 16 0 -2
BITMAP
0000
03FF
FB03
DB03
DB03
DB03
DB03
DB03
DB03
DBFF
F800
C0CC
C186
0303
0E01
1801
ENDCHAR

STARTCHAR jisx0212_347D
ENCODING 13437
SWIDTH 960 0
DWIDTH 16 0
BBX 16 16 0 -2
BITMAP
00C0
00C0
FDFF
CD81
CB01
CB01
CDF9
CD99
CD99
CD99
FD99
C1F9
C181
0183
0003
001E
ENDCHAR

STARTCHAR jisx0212_347E
ENCODING 13438
SWIDTH 960 0
DWIDTH 16 0
BBX 16 16 0 -2
BITMAP
0030
0030
FC30
CBFF
CC30
CC30
CC30
CFFF
CC60
CC60
CCCC
FCC6
C183
C1BF
0FE1
0001
ENDCHAR

STARTCHAR jisx0212_3521
ENCODING 13601
SWIDTH 960 0
DWIDTH 16 0
BBX 16 16 0 -2
BITMAP
0186
0186
FD86
CFFF
CD86
CD86
CD86
CD86
CDFE
CD86
CD86
FD86
C186
C186
01FE
0186
ENDCHAR

STARTCHAR jisx0212_3522
ENCODING 13602
SWIDTH 960 0
DWIDTH 16 0
BBX 16 16 0 -2
BITMAP
0198
0158
F958
DB57
DB5B
DB7B
D6DB
D75B
DB5B
DB5B
DB57
FB58
C358
C361
0361
033F
ENDCHAR

STARTCHAR jisx0212_3523
ENCODING 13603
SWIDTH 960 0
DWIDTH 16 0
BBX 16 16 0 -2
BITMAP
0180
0180
7FFF
0C18
0C18
0630
0630
FFFF
0000
0000
1FFC
180C
180C
180C
1FFC
180C
ENDCHAR

STARTCHAR jisx0212_3524
ENCODING 13604
SWIDTH 960 0
DWIDTH 16 0
BBX 16 16 0 -2
BITMAP
00D8
00D8
F7FF
D8DB
D8DB
DBFF
DAD8
DAD8
D6D8
D7FF
D6D9
F8D9
C199
C197
0318
0618
ENDCHAR

STARTCHAR jisx0212_3525
ENCODING 13605
SWIDTH 960 0
DWIDTH 16 0
BBX 16 16 0 -2
BITMAP
0030
0030
F830
DBFF
DB33
DB33
DB33
DB33
DB33
DFFF
D830
F830
C058
C0CC
0387
0E01
ENDCHAR

STARTCHAR jisx0212_3526
ENCODING 13606
SWIDTH 960 0
DWIDTH 16 0
BBX 16 16 0 -2
BITMAP
0030
0030
FC60
CC6C
CCC6
CCDF
CFF1
CC01
CC00
CDFF
CD83
FD83
C183
C183
01FF
0183
ENDCHAR

STARTCHAR jisx0212_3527
ENCODING 13607
SWIDTH 960 0
DWIDTH 16 0
BBX 16 16 0 -2
BITMAP
0180
0180
F9BF
D986
D7F6
D986
D986
D986
D9F6
D786
D986
F986
C186
C186
0186
079E
ENDCHAR

STARTCHAR jisx0212_3528
ENCODING 13608
SWIDTH 960 0
DWIDTH 16 0
BBX 16 16 0 -2
BITMAP
0030
0030
FC30
CC30
CFFF
CC30
CC30
CC30
CC30
CBFF
CB03
FB03
C303
C303
03FF
0303
ENDCHAR

STARTCHAR jisx0212_3529
ENCODING 13609
SWIDTH 960 0
DWIDTH 16 0
BBX 16 16 0 -2
BITMAP
0300
0300
0300
FB0F
D7ED
DB6D
DB6D
DB6D
DB6D
DB6D
DB6D
F66D
C66D
C6CF
0CCD
1B8C
ENDCHAR

STARTCHAR jisx0212_352A
ENCODING 13610
SWIDTH 960 0
DWIDTH 16 0
BBX 16 16 0 -2
BITMAP
0030
0030
FC30
CBFF
CB01
CB01
CAC1
CCC0
CCC7
CCDC
CCF0
FCC0
C0C0
C0C1
00C1
007F
ENDCHAR

STARTCHAR jisx0212_352B
ENCODING 13611
SWIDTH 960 0
DWIDTH 16 0
BBX 16 16 0 -2
BITMAP
0000
03FF
FC30
CC30
CC60
CDFF
CD83
CD83
CD83
CDFF
CD83
FD83
C183
C183
01FF
0183
ENDCHAR

STARTCHAR jisx0212_352C
ENCODING 13612
SWIDTH 960 0
DWIDTH 16 0
BBX 16 16 0 -2
BITMAP
0000
07FF
FD86
CD86
CD86
CDFE
CD86
CD86
CDFE
CD86
CD86
FD8F
C1F6
CF86
0006
0006
ENDCHAR

STARTCHAR jisx0212_352D
ENCODING 13613
SWIDTH 960 0
DWIDTH 16 0
BBX 16 16 0 -2
BITMAP
0060
0060
F7FF
D860
D860
D7FE
D866
DBFE
DB60
D660
D7FF
F863
C0AF
C198
070E
1C03
ENDCHAR

STARTCHAR jisx0212_352E
ENCODING 13614
SWIDTH 960 0
DWIDTH 16 0
BBX 16 16 0 -2
BITMAP
0003
07F3
F983
D99B
D99B
DBDB
DB5B
DB5B
D75B
D5DB
DCDB
F99B
C183
C303
0603
0C0F
ENDCHAR

STARTCHAR jisx0212_352F
ENCODING 13615
SWIDTH 960 0
DWIDTH 16 0
BBX 16 16 0 -2
BITMAP
0186
00C6
FCCC
CBFF
CC30
CC30
CC30
CDFF
CC30
CC30
FC30
C7FF
C030
0030
0030
0030
ENDCHAR

STARTCHAR jisx0212_3530
ENCODING 13616
SWIDTH 960 0
DWIDTH 16 0
BBX 16 16 0 -2
BITMAP
0030
0030
FB33
DB33
D9B6
D9B6
D830
D7FF
D878
D8AC
D8AC
F9B6
C336
C633
0C31
0030
ENDCHAR

STARTCHAR jisx0212_3531
ENCODING 13617
SWIDTH 960 0
DWIDTH 16 0
BBX 16 16 0 -2
BITMAP
0030
0030
F830
D7FF
D830
D830
D830
DBFF
D800
D800
DBFF
FB03
C303
C303
03FF
0303
ENDCHAR

STARTCHAR jisx0212_3532
ENCODING 13618
SWIDTH 960 0
DWIDTH 16 0
BBX 16 16 0 -2
BITMAP
0030
01B0
F9B0
DBFF
DB30
D630
D830
D7FF
D878
D8AC
D8AC
F9B6
C333
C631
0C30
0030
ENDCHAR

STARTCHAR jisx0212_3533
ENCODING 13619
SWIDTH 960 0
DWIDTH 16 0
BBX 16 16 0 -2
BITMAP
0030
0060
FDFF
CD83
CD83
CD83
CDFF
CD83
CD83
CD83
CDFF
FD83
C183
C183
01FF
0183
ENDCHAR

STARTCHAR jisx0212_3534
ENCODING 13620
SWIDTH 960 0
DWIDTH 16 0
BBX 16 16 0 -2
BITMAP
00D8
00D8
F6D9
D6DB
DAD6
DADC
DAD8
D8D8
D8DC
DBD6
DEDB
F999
C198
C319
0619
0C0F
ENDCHAR

STARTCHAR jisx0212_3535
ENCODING 13621
SWIDTH 960 0
DWIDTH 16 0
BBX 16 16 0 -2
BITMAP
0030
0030
F830
D7FF
D601
D661
D860
D7FF
D8CC
D8CC
F98C
C1D8
C338
002E
00E3
0781
ENDCHAR

STARTCHAR jisx0212_3536
ENCODING 13622
SWIDTH 960 0
DWIDTH 16 0
BBX 16 16 0 -2
BITMAP
0000
03FF
FC00
CC00
CDFF
CD83
CD83
CD83
CDFF
CD83
CD83
FD83
C1FF
C000
0000
07FF
ENDCHAR

STARTCHAR jisx0212_3537
ENCODING 13623
SWIDTH 960 0
DWIDTH 16 0
BBX 16 16 0 -2
BITMAP
0198
0198
F998
DB18
DAFF
DB18
D73C
D73C
DB56
DB56
DADB
FADB
C399
C318
0318
0318
ENDCHAR

STARTCHAR jisx0212_3538
ENCODING 13624
SWIDTH 960 0
DWIDTH 16 0
BBX 16 16 0 -2
BITMAP
0180
0180
F9FE
DB36
DB36
DBFF
D736
D736
DB36
DAFE
DB36
FB30
C330
C360
0360
02C0
ENDCHAR

STARTCHAR jisx0212_3539
ENCODING 13625
SWIDTH 960 0
DWIDTH 16 0
BBX 16 16 0 -2
BITMAP
0030
0060
F8FE
D986
D6CC
D858
D870
D9CC
D71F
D831
D8E3
FBB6
C01C
C038
00E0
0780
ENDCHAR

STARTCHAR jisx0212_353A
ENCODING 13626
SWIDTH 960 0
DWIDTH 16 0
BBX 16 16 0 -2
BITMAP
0030
0030
FBFF
CC60
CCC0
CCFF
CDC3
CDC3
CAFF
CCC3
CCC3
FCFF
C0C3
C0C3
00C3
00CF
ENDCHAR

STARTCHAR jisx0212_353B
ENCODING 13627
SWIDTH 960 0
DWIDTH 16 0
BBX 16 16 0 -2
BITMAP
0030
0030
F860
DBFF
DB01
DB01
DB7D
DB6D
DB6D
DB6D
FB6D
C37D
C361
0301
0301
0307
ENDCHAR

STARTCHAR jisx0212_353C
ENCODING 13628
SWIDTH 960 0
DWIDTH 16 0
BBX 16 16 0 -2
BITMAP
00CC
00CC
F7FF
D8CC
D8CC
D800
D986
D986
DACC
DACC
D658
F830
C058
C0CC
0387
0E01
ENDCHAR

STARTCHAR jisx0212_353D
ENCODING 13629
SWIDTH 960 0
DWIDTH 16 0
BBX 16 16 0 -2
BITMAP
0018
00D8
FCD8
CCFF
CD98
CD98
CC18
CBFF
CC18
CC00
CDFF
FD83
C183
C183
01FF
0183
ENDCHAR

STARTCHAR jisx0212_353E
ENCODING 13630
SWIDTH 960 0
DWIDTH 16 0
BBX 16 16 0 -2
BITMAP
0000
0FDF
FB59
DB5B
DB5B
DFF6
DB56
DB5B
DB5B
DFF9
DB59
FB59
C659
C657
0CD8
1B98
ENDCHAR

STARTCHAR jisx0212_353F
ENCODING 13631
SWIDTH 960 0
DWIDTH 16 0
BBX 16 16 0 -2
BITMAP
0180
0180
F9FF
DB03
DB03
DB03
D77B
D75B
DB5B
DB5B
DB5B
FB7B
C363
C303
0303
030F
ENDCHAR

STARTCHAR jisx0212_3540
ENCODING 13632
SWIDTH 960 0
DWIDTH 16 0
BBX 16 16 0 -2
BITMAP
0000
01FF
FD83
CD83
CDFF
CD83
CD83
CDFF
CD83
CD83
CDFF
FC6C
C06C
C0CD
038D
0E0F
ENDCHAR

STARTCHAR jisx0212_3541
ENCODING 13633
SWIDTH 960 0
DWIDTH 16 0
BBX 16 16 0 -2
BITMAP
00CC
00CC
F7CF
D8CC
D8CC
D800
DBFF
D830
D830
D830
D7FF
F830
C030
C030
0030
0030
ENDCHAR

STARTCHAR jisx0212_3542
ENCODING 13634
SWIDTH 960 0
DWIDTH 16 0
BBX 16 16 0 -2
BITMAP
0030
0030
F7FF
D800
DBFF
DB03
DB03
DBFF
D800
D7FF
D807
F83C
C030
C030
0030
00F0
ENDCHAR

STARTCHAR jisx0212_3543
ENCODING 13635
SWIDTH 960 0
DWIDTH 16 0
BBX 16 16 0 -2
BITMAP
0000
00FC
F80C
D98C
DB06
D7FF
DB05
DB06
DB06
DBFE
D8D8
F8D8
C0D8
C199
0719
1C0F
ENDCHAR

STARTCHAR jisx0212_3544
ENCODING 13636
SWIDTH 960 0
DWIDTH 16 0
BBX 16 16 0 -2
BITMAP
1800
187F
FF63
1B63
3363
3363
6E7F
C000
FFFF
0006
1FC6
18C6
18C6
1FC6
1806
003E
ENDCHAR

STARTCHAR jisx0212_3545
ENCODING 13637
SWIDTH 960 0
DWIDTH 16 0
BBX 16 16 0 -2
BITMAP
0007
03FC
F830
D830
D7FF
D878
D8AC
DBB7
D601
DBFE
D866
F86C
C0CF
C199
0301
060F
ENDCHAR

STARTCHAR jisx0212_3546
ENCODING 13638
SWIDTH 960 0
DWIDTH 16 0
BBX 16 16 0 -2
BITMAP
0000
01FF
FC00
CC00
CFFF
CC00
CDFF
CC00
CDFF
CC00
CC00
FDFF
C183
C183
01FF
0183
ENDCHAR

STARTCHAR jisx0212_3547
ENCODING 13639
SWIDTH 960 0
DWIDTH 16 0
BBX 16 16 0 -2
BITMAP
0070
00D8
F98C
DB06
D5FB
DC01
DBFE
D806
D80C
D818
DBFF
FB03
C303
C303
03FF
0303
ENDCHAR

STARTCHAR jisx0212_3548
ENCODING 13640
SWIDTH 960 0
DWIDTH 16 0
BBX 16 16 0 -2
BITMAP
0000
01FF
FD83
CD83
CDFF
CC00
CBFF
CB31
CB31
CB31
CBFF
FB00
C300
C301
0301
01FF
ENDCHAR

STARTCHAR jisx0212_3549
ENCODING 13641
SWIDTH 960 0
DWIDTH 16 0
BBX 16 16 0 -2
BITMAP
0060
00C0
F8CC
D986
D7FB
D981
D980
DBFF
DB30
D630
D7FF
F830
C058
C0CC
0387
1E01
ENDCHAR

STARTCHAR jisx0212_354A
ENCODING 13642
SWIDTH 960 0
DWIDTH 16 0
BBX 16 16 0 -2
BITMAP
0000
07C3
F8BE
D98C
D98C
DB2C
DBAF
D6AC
D8AC
D6AC
F6AC
CAAC
CD9F
0380
06E0
1C3F
ENDCHAR

STARTCHAR jisx0212_354B
ENCODING 13643
SWIDTH 960 0
DWIDTH 16 0
BBX 16 16 0 -2
BITMAP
0030
0030
F7FF
D601
D601
DBFF
D800
D800
D7FF
D8CC
D8CC
F8CC
C0CC
C18D
030D
0E07
ENDCHAR

STARTCHAR jisx0212_354C
ENCODING 13644
SWIDTH 960 0
DWIDTH 16 0
BBX 16 16 0 -2
BITMAP
0071
07C1
F98D
D98D
D98D
D7ED
D98D
D98D
DBCD
DB6D
F5AD
C5AD
CD8D
1981
0181
0187
ENDCHAR

STARTCHAR jisx0212_354D
ENCODING 13645
SWIDTH 960 0
DWIDTH 16 0
BBX 16 16 0 -2
BITMAP
0030
0060
FBFF
DB03
DB03
DBFF
DB03
DB03
DBFF
D830
D830
F7FF
C030
C030
0030
0030
ENDCHAR

STARTCHAR jisx0212_354E
ENCODING 13646
SWIDTH 960 0
DWIDTH 16 0
BBX 16 16 0 -2
BITMAP
0060
0060
F7FF
D860
DBFF
D8D8
DFFF
D98C
D9B6
DB33
D5FD
FC30
C3FF
C030
0030
0030
ENDCHAR

STARTCHAR jisx0212_354F
ENCODING 13647
SWIDTH 960 0
DWIDTH 16 0
BBX 16 16 0 -2
BITMAP
0030
0058
00CC
FD86
CB03
CDFD
CC30
CC30
CBFF
CC30
CB33
CDB3
FDB6
C1AC
C030
07FF
ENDCHAR

STARTCHAR jisx0212_3550
ENCODING 13648
SWIDTH 960 0
DWIDTH 16 0
BBX 16 16 0 -2
BITMAP
0030
00E0
FB9F
DB03
DB03
DBDF
DB03
DB03
DB03
DBFF
D8D8
F8D8
C0D8
C199
0319
0E0F
ENDCHAR

STARTCHAR jisx0212_3551
ENCODING 13649
SWIDTH 960 0
DWIDTH 16 0
BBX 16 16 0 -2
BITMAP
00C0
00C0
F7FF
D998
D98C
DB66
D663
DBFD
DB66
DBFE
DB66
FB66
C3FE
C061
0061
003F
ENDCHAR

STARTCHAR jisx0212_3552
ENCODING 13650
SWIDTH 960 0
DWIDTH 16 0
BBX 16 16 0 -2
BITMAP
00C6
00C6
FBFF
CCC6
CCC6
CCC6
CFFF
CC00
CDFF
CD83
CD83
FDFF
C183
C183
01FF
0183
ENDCHAR

STARTCHAR jisx0212_3553
ENCODING 13651
SWIDTH 960 0
DWIDTH 16 0
BBX 16 16 0 -2
BITMAP
0030
0030
F7FF
D830
D9B6
D9B6
D9B6
DAAB
DAAB
D678
D86C
F8AC
C1B6
C733
1C31
0030
ENDCHAR

STARTCHAR jisx0212_3554
ENCODING 13652
SWIDTH 960 0
DWIDTH 16 0
BBX 16 16 0 -2
BITMAP
0030
0030
FBFF
D98C
D8CC
D8D8
D7FF
D860
D8C0
D7FF
D8CC
F98C
C1D8
C33C
00E7
0781
ENDCHAR

STARTCHAR jisx0212_3555
ENCODING 13653
SWIDTH 960 0
DWIDTH 16 0
BBX 16 16 0 -2
BITMAP
0183
019E
F998
D998
D7D8
D99F
D99B
DBDB
DBDB
DB5B
D55B
F59B
CD9B
C1B3
01B3
0163
ENDCHAR

STARTCHAR jisx0212_3556
ENCODING 13654
SWIDTH 960 0
DWIDTH 16 0
BBX 16 16 0 -2
BITMAP
0000
03FF
FB01
DB31
DAFD
DB31
DB31
DAFD
DB31
DB01
DAFD
FACD
C6CD
C6FD
0CC1
1807
ENDCHAR

STARTCHAR jisx0212_3557
ENCODING 13655
SWIDTH 960 0
DWIDTH 16 0
BBX 16 16 0 -2
BITMAP
0180
0180
FFFF
0C18
0630
7FFF
6183
6183
5FFB
6183
6FFB
6C1B
6C1B
6FFB
6C03
600F
ENDCHAR

STARTCHAR jisx0212_3558
ENCODING 13656
SWIDTH 960 0
DWIDTH 16 0
BBX 16 16 0 -2
BITMAP
018C
018C
F98C
D98C
D7FF
D98C
D99E
DBDE
DB5E
DBAB
D5AB
F56D
CD6D
C1CC
018C
018C
ENDCHAR

STARTCHAR jisx0212_3559
ENCODING 13657
SWIDTH 960 0
DWIDTH 16 0
BBX 16 16 0 -2
BITMAP
0000
07FF
F6C3
D583
D583
D73B
D5AB
D5AB
D6AB
D6AB
D6BB
F6B3
C783
C603
0603
060F
ENDCHAR

STARTCHAR jisx0212_355A
ENCODING 13658
SWIDTH 960 0
DWIDTH 16 0
BBX 16 16 0 -2
BITMAP
0030
0030
F7FF
D800
DBFF
DB03
DBFF
D800
DBFF
D80E
D838
F830
C7FF
C030
0030
00F0
ENDCHAR

STARTCHAR jisx0212_355B
ENCODING 13659
SWIDTH 960 0
DWIDTH 16 0
BBX 16 16 0 -2
BITMAP
0030
0030
F7FF
D800
D98C
D98C
DB9C
DAD6
D673
DC63
D830
F7FF
C030
C030
0030
0030
ENDCHAR

STARTCHAR jisx0212_355C
ENCODING 13660
SWIDTH 960 0
DWIDTH 16 0
BBX 16 16 0 -2
BITMAP
0060
0060
F7FF
D860
DBFE
D866
D7FF
D866
D866
DBFE
D860
FB60
C37F
C760
0D60
18FF
ENDCHAR

STARTCHAR jisx0212_355D
ENCODING 13661
SWIDTH 960 0
DWIDTH 16 0
BBX 16 16 0 -2
BITMAP
0030
0030
F7FF
D601
D581
D99F
D9DB
DB5B
DB5B
DB5B
D55B
FCD7
C0D8
C199
0319
060F
ENDCHAR

STARTCHAR jisx0212_355E
ENCODING 13662
SWIDTH 960 0
DWIDTH 16 0
BBX 16 16 0 -2
BITMAP
0000
3FFC
300C
300C
3FFC
0180
FFFF
0000
7FFE
6006
6FF6
6C36
6FF6
6006
7FFE
6006
ENDCHAR

STARTCHAR jisx0212_355F
ENCODING 13663
SWIDTH 960 0
DWIDTH 16 0
BBX 16 16 0 -2
BITMAP
0060
0060
F7FF
D860
DBFE
D866
DFFF
D866
DBFE
D8C0
D7FF
F98C
C3D8
C62C
00E7
0F81
ENDCHAR

STARTCHAR jisx0212_3560
ENCODING 13664
SWIDTH 960 0
DWIDTH 16 0
BBX 16 16 0 -2
BITMAP
0000
0FFF
F8D8
D8D8
D8D8
D7DF
D6DB
D603
D603
D603
D7DF
F6DB
C0D8
C0D8
00D8
0FFF
ENDCHAR

STARTCHAR jisx0212_3561
ENCODING 13665
SWIDTH 960 0
DWIDTH 16 0
BBX 16 16 0 -2
BITMAP
0387
3E7C
3060
3060
3F7F
3666
3666
66C6
66C6
C180
1FFE
1806
1806
1806
1FFE
1806
ENDCHAR

STARTCHAR jisx0212_3562
ENCODING 13666
SWIDTH 960 0
DWIDTH 16 0
BBX 16 16 0 -2
BITMAP
00D8
00D8
F8D8
D7DF
D8D8
D8D8
D8D8
D7DF
D8D8
D8D8
F8D8
C7DF
DD98
0198
0318
0618
ENDCHAR

STARTCHAR jisx0212_3563
ENCODING 13667
SWIDTH 960 0
DWIDTH 16 0
BBX 16 16 0 -2
BITMAP
0060
00C0
FBFF
DB33
DB33
DBFF
DB33
DB33
DBFF
D858
D8D8
F998
CFFF
C018
0018
0018
ENDCHAR

STARTCHAR jisx0212_3564
ENCODING 13668
SWIDTH 960 0
DWIDTH 16 0
BBX 16 16 0 -2
BITMAP
030C
030C
FB0C
DB7F
DFC0
DB63
DB63
DB33
DBB3
DF36
DB36
FB36
C336
C32C
030C
0EFF
ENDCHAR

STARTCHAR jisx0212_3565
ENCODING 13669
SWIDTH 960 0
DWIDTH 16 0
BBX 16 16 0 -2
BITMAP
018C
018C
F7FF
D98C
D9FC
D98C
D9FC
D98C
DFFF
DB58
DB5B
FADB
C39F
C300
03FF
0300
ENDCHAR

STARTCHAR jisx0212_3566
ENCODING 13670
SWIDTH 960 0
DWIDTH 16 0
BBX 16 16 0 -2
BITMAP
0000
03FF
FB33
DB33
DBFF
DB33
DB33
DBFF
D830
D7FF
D62D
F635
C63D
C5E3
0601
0607
ENDCHAR

STARTCHAR jisx0212_3567
ENCODING 13671
SWIDTH 960 0
DWIDTH 16 0
BBX 16 16 0 -2
BITMAP
0000
03FF
FB33
DB33
DBFF
DB33
DB33
DBFF
D800
D7FF
D9B3
F9B6
C19C
C18C
01F7
0F01
ENDCHAR

STARTCHAR jisx0212_3568
ENCODING 13672
SWIDTH 960 0
DWIDTH 16 0
BBX 16 16 0 -2
BITMAP
1818
1818
1818
FEFF
1818
1818
1818
FF7F
0000
0000
7F7F
6363
6363
6363
7F7F
6363
ENDCHAR

STARTCHAR jisx0212_3569
ENCODING 13673
SWIDTH 960 0
DWIDTH 16 0
BBX 16 16 0 -2
BITMAP
0318
0319
FBD7
DB1C
DB19
DAD9
D7AF
D860
DBFF
DB03
DB03
FBFF
C303
C303
03FF
0303
ENDCHAR

STARTCHAR jisx0212_356A
ENCODING 13674
SWIDTH 960 0
DWIDTH 16 0
BBX 16 16 0 -2
BITMAP
0000
01FE
F986
D986
D9BE
D9B6
D9B6
D7FF
D601
D601
D6FD
F6CD
C6CD
C6FD
06C1
0607
ENDCHAR

STARTCHAR jisx0212_356B
ENCODING 13675
SWIDTH 960 0
DWIDTH 16 0
BBX 16 16 0 -2
BITMAP
00CC
00CC
F7FF
D8CC
D8CC
D860
D860
D7FF
D8C0
D980
D9FF
FB83
C583
CD83
01FF
0183
ENDCHAR

STARTCHAR jisx0212_356C
ENCODING 13676
SWIDTH 960 0
DWIDTH 16 0
BBX 16 16 0 -2
BITMAP
0060
0060
F7FF
DB0C
D98C
D998
DFFF
D800
DBFE
DB06
DB06
FBFE
C306
C306
03FE
0306
ENDCHAR

STARTCHAR jisx0212_356D
ENCODING 13677
SWIDTH 960 0
DWIDTH 16 0
BBX 16 16 0 -2
BITMAP
018C
018C
F9EC
DB6F
DB6C
D5CC
D8CC
D970
DB1F
D600
DBFF
FB03
C3FF
C303
03FF
0303
ENDCHAR

STARTCHAR jisx0212_356E
ENCODING 13678
SWIDTH 960 0
DWIDTH 16 0
BBX 16 16 0 -2
BITMAP
0000
07FF
F858
D858
DBFF
DB5B
DB5B
DB7B
DAC3
D8C0
D7FF
F98C
C3EC
C31C
0077
0FC1
ENDCHAR

STARTCHAR jisx0212_356F
ENCODING 13679
SWIDTH 960 0
DWIDTH 16 0
BBX 16 16 0 -2
BITMAP
0000
07FF
F603
D603
D7FF
D600
D7FF
D66C
D666
D6DB
D7F3
F630
CDFF
CC30
1830
37FF
ENDCHAR

STARTCHAR jisx0212_3570
ENCODING 13680
SWIDTH 960 0
DWIDTH 16 0
BBX 16 16 0 -2
BITMAP
0000
07FF
F631
D631
DBFF
D830
DBFF
DB33
DBFF
DB33
DBFF
F830
C030
CFFF
0030
0030
ENDCHAR

STARTCHAR jisx0212_3571
ENCODING 13681
SWIDTH 960 0
DWIDTH 16 0
BBX 16 16 0 -2
BITMAP
00C0
7EC0
66FF
6583
65FB
66DB
66DB
66DB
7EFB
60C6
601C
0000
3666
3333
6331
C331
ENDCHAR

STARTCHAR jisx0212_3572
ENCODING 13682
SWIDTH 960 0
DWIDTH 16 0
BBX 16 16 0 -2
BITMAP
0030
0060
FBFF
DB03
DBFF
DB03
DB03
DBFF
D800
D7FF
D830
F830
C3FF
C030
0030
0FFF
ENDCHAR

STARTCHAR jisx0212_3573
ENCODING 13683
SWIDTH 960 0
DWIDTH 16 0
BBX 16 16 0 -2
BITMAP
0030
0030
F7FF
D8EC
D838
D8EC
DB86
D7FF
D60C
D63B
D5E6
F61C
C5F1
CC07
0C3C
1BE0
ENDCHAR

STARTCHAR jisx0212_3574
ENCODING 13684
SWIDTH 960 0
DWIDTH 16 0
BBX 16 16 0 -2
BITMAP
0318
0318
F6D8
DCBF
D5B1
DB61
DB01
D6C1
DF7D
DB01
FAC1
CAC1
CB61
1B63
1B03
031E
ENDCHAR

STARTCHAR jisx0212_3575
ENCODING 13685
SWIDTH 960 0
DWIDTH 16 0
BBX 16 16 0 -2
BITMAP
0000
0FF8
0C18
0C18
0FF8
0000
7F7F
6363
6363
7F7F
0180
FFFF
0560
0DB8
398E
E183
ENDCHAR

STARTCHAR jisx0212_3576
ENCODING 13686
SWIDTH 960 0
DWIDTH 16 0
BBX 16 16 0 -2
BITMAP
0007
07FC
F630
D63F
D630
D5FF
D5B3
D5BE
D5F3
D5BF
D580
F5AC
CDAC
CB2D
1B6D
36C7
ENDCHAR

STARTCHAR jisx0212_3577
ENCODING 13687
SWIDTH 960 0
DWIDTH 16 0
BBX 16 16 0 -2
BITMAP
0030
0030
F7FF
D800
D9FE
D986
D9FE
D800
D7FF
D601
D6FD
F6CD
C6CD
C6FD
06C1
0607
ENDCHAR

STARTCHAR jisx0212_3578
ENCODING 13688
SWIDTH 960 0
DWIDTH 16 0
BBX 16 16 0 -2
BITMAP
0070
00D8
F98C
DAF6
D603
DBFD
DB06
DBFE
DB06
DBFE
DB00
FBFF
C583
C583
0DFF
1983
ENDCHAR

STARTCHAR jisx0212_3579
ENCODING 13689
SWIDTH 960 0
DWIDTH 16 0
BBX 16 16 0 -2
BITMAP
0030
0030
F7FF
D830
DBFF
D830
D7FF
D86C
D9D8
D8B6
D863
F7FD
C031
C1B6
0333
0E31
ENDCHAR

STARTCHAR jisx0212_357A
ENCODING 13690
SWIDTH 960 0
DWIDTH 16 0
BBX 16 16 0 -2
BITMAP
0060
03FF
F8C3
D79E
D986
D7DF
DB6D
DB6D
D5D7
DBFF
DB03
FBFF
C303
C3FF
0303
030F
ENDCHAR

STARTCHAR jisx0212_357B
ENCODING 13691
SWIDTH 960 0
DWIDTH 16 0
BBX 16 16 0 -2
BITMAP
0000
007C
018C
F986
DAFB
D601
D87C
D98C
D98C
DB06
D7FF
FAB5
C2B6
C2B6
02B6
0FFF
ENDCHAR

STARTCHAR jisx0212_357C
ENCODING 13692
SWIDTH 960 0
DWIDTH 16 0
BBX 16 16 0 -2
BITMAP
0000
03FF
FB30
DB30
DBFF
DB30
DBFF
DB30
DB30
DBFF
D801
FAAD
C2AD
C6AD
06C3
0C0E
ENDCHAR

STARTCHAR jisx0212_357D
ENCODING 13693
SWIDTH 960 0
DWIDTH 16 0
BBX 16 16 0 -2
BITMAP
0030
0030
FBFF
D830
D830
D7FF
D86C
D8C6
D7FB
D801
D800
FBFF
C35B
C35B
035B
0FFF
ENDCHAR

STARTCHAR jisx0212_357E
ENCODING 13694
SWIDTH 960 0
DWIDTH 16 0
BBX 16 16 0 -2
BITMAP
018C
018C
F7FF
D98C
D98C
D870
D8D8
D98C
DAF6
D603
DC01
FBFE
C306
C306
03FE
0306
ENDCHAR

STARTCHAR jisx0212_3621
ENCODING 13857
SWIDTH 960 0
DWIDTH 16 0
BBX 16 16 0 -2
BITMAP
0000
03FF
F8CE
D878
D8EC
DB86
D7FF
DB5B
D9CE
DB5B
D631
F7FF
C078
C0AC
03B7
0E31
ENDCHAR

STARTCHAR jisx0212_3622
ENCODING 13858
SWIDTH 960 0
DWIDTH 16 0
BBX 16 16 0 -2
BITMAP
0000
01FE
F986
D9BE
D9B6
D9B6
D7FF
D601
D5FD
D986
D9FE
F986
C1FE
C186
0186
019E
ENDCHAR

STARTCHAR jisx0212_3623
ENCODING 13859
SWIDTH 960 0
DWIDTH 16 0
BBX 16 16 0 -2
BITMAP
000F
03FC
FB36
DB1B
D659
DACC
D998
D8B6
D863
D7FD
D830
F7FF
C058
C0CC
0387
0E01
ENDCHAR

STARTCHAR jisx0212_3624
ENCODING 13860
SWIDTH 960 0
DWIDTH 16 0
BBX 16 16 0 -2
BITMAP
0033
00EE
FBB8
D8D8
D7FF
D8D8
DBFF
D8DB
D7FF
D8DB
DBFF
F9DC
C2D6
C6DB
0CD9
18D8
ENDCHAR

STARTCHAR jisx0212_3625
ENCODING 13861
SWIDTH 960 0
DWIDTH 16 0
BBX 16 16 0 -2
BITMAP
018C
018C
F7FF
D98C
D98C
D986
DB0C
DB6D
DEBB
D6DB
DB8E
FB0C
C2CB
C6DB
1F7D
0061
ENDCHAR

STARTCHAR jisx0212_3626
ENCODING 13862
SWIDTH 960 0
DWIDTH 16 0
BBX 16 16 0 -2
BITMAP
0000
03FE
FB36
DB36
DB56
DACE
DB86
DBFE
D800
D7FF
D6DB
F6DB
C6DB
C6DB
06DB
1FFF
ENDCHAR

STARTCHAR jisx0212_3627
ENCODING 13863
SWIDTH 960 0
DWIDTH 16 0
BBX 16 16 0 -2
BITMAP
0060
016C
FB66
D663
DBFD
DB06
DB06
DBFE
DB06
DBFE
DB06
FB06
C3FE
C18C
0707
1C01
ENDCHAR

STARTCHAR jisx0212_3628
ENCODING 13864
SWIDTH 960 0
DWIDTH 16 0
BBX 16 16 0 -2
BITMAP
0000
03FF
FB33
DBFF
DB33
DBFF
D9B6
D9B6
D7FF
D9B6
D9B6
F7FF
C030
C3FF
0030
0030
ENDCHAR

STARTCHAR jisx0212_3629
ENCODING 13865
SWIDTH 960 0
DWIDTH 16 0
BBX 16 16 0 -2
BITMAP
0070
00D8
F98C
D6F7
DC01
DBFE
D80C
DBFE
DB06
DBFE
DB06
FBFE
C306
C3FE
038E
1E03
ENDCHAR

STARTCHAR jisx0212_362A
ENCODING 13866
SWIDTH 960 0
DWIDTH 16 0
BBX 16 16 0 -2
BITMAP
0180
033F
F7E6
D656
D7D6
D656
D656
D7DF
D816
D66E
D5CE
F716
C656
C7F5
0065
00C7
ENDCHAR

STARTCHAR jisx0212_362B
ENCODING 13867
SWIDTH 960 0
DWIDTH 16 0
BBX 16 16 0 -2
BITMAP
0058
0058
F7FF
D858
DBFF
DB5B
DBFF
DB5B
DBFF
D800
D9FE
F986
C1FE
C186
01FE
0186
ENDCHAR

STARTCHAR jisx0212_362C
ENCODING 13868
SWIDTH 960 0
DWIDTH 16 0
BBX 16 16 0 -2
BITMAP
0030
0333
FB33
DBFF
D800
D7FF
D618
D6FF
D618
D618
D5FF
F618
C6FF
CC18
0C18
1BFF
ENDCHAR

STARTCHAR jisx0212_362D
ENCODING 13869
SWIDTH 960 0
DWIDTH 16 0
BBX 16 16 0 -2
BITMAP
0030
03FF
FB33
D7FF
DB33
DBFF
D830
DBFF
DB33
DBFF
D8C0
F7FF
C18C
C3D8
006E
0FC3
ENDCHAR

STARTCHAR jisx0212_362E
ENCODING 13870
SWIDTH 960 0
DWIDTH 16 0
BBX 16 16 0 -2
BITMAP
0000
07FF
F860
DBFF
DB03
DBFF
DB03
DBFF
DB03
DBFF
D866
F87F
C7AC
C019
00ED
0F83
ENDCHAR

STARTCHAR jisx0212_362F
ENCODING 13871
SWIDTH 960 0
DWIDTH 16 0
BBX 16 16 0 -2
BITMAP
3000
33DF
3363
3363
FF63
33DF
3300
3300
7BBF
6B1B
6B1B
6BD6
6B0C
6B16
7B33
6361
ENDCHAR

STARTCHAR jisx0212_3630
ENCODING 13872
SWIDTH 960 0
DWIDTH 16 0
BBX 16 16 0 -2
BITMAP
0000
07DF
F96B
DB5B
D6F7
D96B
DB5B
D6F3
D998
D72E
DCE3
F79C
C073
C7CE
0078
07C0
ENDCHAR

STARTCHAR jisx0212_3631
ENCODING 13873
SWIDTH 960 0
DWIDTH 16 0
BBX 16 16 0 -2
BITMAP
0060
007F
F860
D7FF
D661
D67C
D5E3
D67F
D60E
D5FB
D6DB
F656
C5FF
CC18
0C18
1878
ENDCHAR

STARTCHAR jisx0212_3632
ENCODING 13874
SWIDTH 960 0
DWIDTH 16 0
BBX 16 16 0 -2
BITMAP
0186
0186
F7DF
D986
D7DF
D986
D9DF
D786
D986
D800
D7FF
F803
C7FF
C003
07FF
0003
ENDCHAR

STARTCHAR jisx0212_3633
ENCODING 13875
SWIDTH 960 0
DWIDTH 16 0
BBX 16 16 0 -2
BITMAP
0018
0618
FAFF
DCDB
D6FE
D8B6
DAB6
DADC
D5B6
DAE3
D8C0
F7FF
C18C
C3D8
006E
0FC3
ENDCHAR

STARTCHAR jisx0212_3634
ENCODING 13876
SWIDTH 960 0
DWIDTH 16 0
BBX 16 16 0 -2
BITMAP
0000
03FE
FB06
DBFE
DB06
DBFE
D800
DFFF
D6C0
D7FF
D6DB
F7D6
C6CC
C7D6
1EB3
00E1
ENDCHAR

STARTCHAR jisx0212_3635
ENCODING 13877
SWIDTH 960 0
DWIDTH 16 0
BBX 16 16 0 -2
BITMAP
0030
01B3
FB36
D6AD
DBB7
DB36
D6AD
DFFF
D836
D7FF
D630
F733
C596
CD9D
0C75
19C3
ENDCHAR

STARTCHAR jisx0212_3636
ENCODING 13878
SWIDTH 960 0
DWIDTH 16 0
BBX 16 16 0 -2
BITMAP
0030
03FF
FB33
DBFF
D830
D7FF
D800
DBFF
DB03
DBFF
DB03
FBFF
C303
C3FF
01CE
0F03
ENDCHAR

STARTCHAR jisx0212_3637
ENCODING 13879
SWIDTH 960 0
DWIDTH 16 0
BBX 16 16 0 -2
BITMAP
0030
0030
FBFF
D830
D7FF
D986
D7DF
D986
D7FF
D800
D7FF
F8D8
C0D8
C199
0319
0E0F
ENDCHAR

STARTCHAR jisx0212_3638
ENCODING 13880
SWIDTH 960 0
DWIDTH 16 0
BBX 16 16 0 -2
BITMAP
0030
0060
FBFF
DB03
DBFF
DB03
DBFF
D830
D7AF
D830
D7AF
F830
C7FF
C030
0030
0030
ENDCHAR

STARTCHAR jisx0212_3639
ENCODING 13881
SWIDTH 960 0
DWIDTH 16 0
BBX 16 16 0 -2
BITMAP
0030
0030
F7FF
D858
DACB
D986
DBFF
D585
D9FE
D986
D9FE
F830
C1B6
C733
1C31
00F0
ENDCHAR

STARTCHAR jisx0212_363A
ENCODING 13882
SWIDTH 960 0
DWIDTH 16 0
BBX 16 16 0 -2
BITMAP
0030
0030
F7FF
D830
DBFF
D800
DBFF
DB03
DBFF
D8CC
D7FF
F800
C3FF
C303
03FF
0303
ENDCHAR

STARTCHAR jisx0212_363B
ENCODING 13883
SWIDTH 960 0
DWIDTH 16 0
BBX 16 16 0 -2
BITMAP
0000
7F7F
6363
7F7F
0000
3FFE
3186
3FFE
3186
3FFE
0000
FFFF
0000
3FFE
3006
3FFE
ENDCHAR

STARTCHAR jisx0212_363C
ENCODING 13884
SWIDTH 960 0
DWIDTH 16 0
BBX 16 16 0 -2
BITMAP
0000
07DF
F659
D659
D7DF
D800
DBFF
DB33
DBFF
DB33
DBFF
F830
CFFF
C030
0030
0030
ENDCHAR

STARTCHAR jisx0212_363D
ENCODING 13885
SWIDTH 960 0
DWIDTH 16 0
BBX 16 16 0 -2
BITMAP
0000
03FF
FB33
DBAB
DABB
DB33
DBFF
DB30
D830
DBFF
D830
F7FF
C000
C2DB
066D
0C6D
ENDCHAR

STARTCHAR jisx0212_363E
ENCODING 13886
SWIDTH 960 0
DWIDTH 16 0
BBX 16 16 0 -2
BITMAP
0000
07DF
F6DB
D7DF
D618
D659
D7DF
D8CC
D8CC
D7FF
D8CC
F8CC
CFFF
C18C
0707
1C01
ENDCHAR

STARTCHAR jisx0212_363F
ENCODING 13887
SWIDTH 960 0
DWIDTH 16 0
BBX 16 16 0 -2
BITMAP
0000
07FF
F858
D858
DBDF
DB5B
DB03
DBDF
DB5B
D858
D7FF
F830
C6DB
C6C1
06CD
0C7C
ENDCHAR

STARTCHAR jisx0212_3640
ENCODING 13888
SWIDTH 960 0
DWIDTH 16 0
BBX 16 16 0 -2
BITMAP
0007
07FC
FB36
D9B6
D9AC
D7FF
D878
D8AC
DBB7
D601
DBFF
FB33
C3FF
C333
03FF
0303
ENDCHAR

STARTCHAR jisx0212_3641
ENCODING 13889
SWIDTH 960 0
DWIDTH 16 0
BBX 16 16 0 -2
BITMAP
0180
01DF
F78D
D9ED
D78D
D9D9
D797
D96C
DAD8
D9B6
D8E3
F7FD
C030
C1B6
0333
0E31
ENDCHAR

STARTCHAR jisx0212_3642
ENCODING 13890
SWIDTH 960 0
DWIDTH 16 0
BBX 16 16 0 -2
BITMAP
00C6
03DF
FAD6
DAD6
D7FF
D9CE
DAD5
DAD5
D5B7
D800
DBFF
FB03
C3FF
C303
03FF
0303
ENDCHAR

STARTCHAR jisx0212_3643
ENCODING 13891
SWIDTH 960 0
DWIDTH 16 0
BBX 16 16 0 -2
BITMAP
000C
07EC
F98C
D998
DFFF
D6DB
D6DB
D7BB
D6BB
D6DB
D7D6
F6CE
C6CC
C7D6
1EB3
00E1
ENDCHAR

STARTCHAR jisx0212_3644
ENCODING 13892
SWIDTH 960 0
DWIDTH 16 0
BBX 16 16 0 -2
BITMAP
018C
018C
FFEC
D818
D7DF
D65B
D7DB
D83B
D7DB
D8DB
D996
F9EE
CF8C
C196
01B3
0761
ENDCHAR

STARTCHAR jisx0212_3645
ENCODING 13893
SWIDTH 960 0
DWIDTH 16 0
BBX 16 16 0 -2
BITMAP
00CC
0198
F9FF
DB98
D598
DDFF
D998
D9FF
D998
D998
D9FF
F800
C2D6
C2DB
066D
0C6D
ENDCHAR

STARTCHAR jisx0212_3646
ENCODING 13894
SWIDTH 960 0
DWIDTH 16 0
BBX 16 16 0 -2
BITMAP
0070
00D8
F98C
D6F7
DC01
DBFE
DB06
DBFE
D800
D7BF
DACB
F6DB
CDB7
C2CB
06DB
0DB7
ENDCHAR

STARTCHAR jisx0212_3647
ENCODING 13895
SWIDTH 960 0
DWIDTH 16 0
BBX 16 16 0 -2
BITMAP
0030
07DB
F8D6
DD8D
D58B
DB06
D5FB
DC01
DBFE
DB06
DB06
FBFE
C18C
C0CC
00D8
0FFF
ENDCHAR

STARTCHAR jisx0212_3648
ENCODING 13896
SWIDTH 960 0
DWIDTH 16 0
BBX 16 16 0 -2
BITMAP
0030
0058
F8CC
D986
DAFB
D601
D800
DBDF
DB5B
DB5B
DBDF
F98C
C18C
C2D6
0673
0C61
ENDCHAR

STARTCHAR jisx0212_3649
ENCODING 13897
SWIDTH 960 0
DWIDTH 16 0
BBX 16 16 0 -2
BITMAP
0018
0618
FAFF
D818
D9FF
D666
DB2C
D9FF
D818
DEFF
DB18
FBFF
C318
C318
0580
0CFF
ENDCHAR

STARTCHAR jisx0212_364A
ENCODING 13898
SWIDTH 960 0
DWIDTH 16 0
BBX 16 16 0 -2
BITMAP
00C0
01FC
FB18
D7FF
DB5B
DADF
DB80
DAFF
DB00
DBFF
DB00
FAFF
C600
C6FF
0CC3
18FF
ENDCHAR

STARTCHAR jisx0212_364B
ENCODING 13899
SWIDTH 960 0
DWIDTH 16 0
BBX 16 16 0 -2
BITMAP
0030
0060
FBFF
DB1B
DAF3
DAAB
DBFF
DB7B
DAAB
DB83
D830
F7FF
C030
C058
01CE
0F03
ENDCHAR

STARTCHAR jisx0212_364C
ENCODING 13900
SWIDTH 960 0
DWIDTH 16 0
BBX 16 16 0 -2
BITMAP
0000
03FF
FB5B
DB5B
DBFF
D8C0
D9FF
DB61
D661
DBFD
DB6D
FBFD
C059
C07D
07CD
0007
ENDCHAR

STARTCHAR jisx0212_364D
ENCODING 13901
SWIDTH 960 0
DWIDTH 16 0
BBX 16 16 0 -2
BITMAP
0030
01B0
F9BF
D9B0
D7FF
D816
D7FF
D618
D618
D7FB
D6DB
F5B6
CAAD
CEED
19DB
3731
ENDCHAR

STARTCHAR jisx0212_364E
ENCODING 13902
SWIDTH 960 0
DWIDTH 16 0
BBX 16 16 0 -2
BITMAP
0000
FFFF
0180
7DBE
6DB6
6DB6
7DBE
0180
7FFF
0180
7DBE
6DB6
6DB6
7DBE
0180
FFFF
ENDCHAR

STARTCHAR jisx0212_364F
ENCODING 13903
SWIDTH 960 0
DWIDTH 16 0
BBX 16 16 0 -2
BITMAP
018C
030C
F7EC
D658
D7DF
D65B
D7DB
D9BB
D95B
DFDB
DB16
FBEE
C66C
C656
0CB3
1B61
ENDCHAR

STARTCHAR jisx0212_3650
ENCODING 13904
SWIDTH 960 0
DWIDTH 16 0
BBX 16 16 0 -2
BITMAP
0007
07FC
FB63
D9B6
D7FF
D661
D6B5
DACB
D6FC
D860
D8FE
F9C6
C76C
CC38
01EE
0F03
ENDCHAR

STARTCHAR jisx0212_3651
ENCODING 13905
SWIDTH 960 0
DWIDTH 16 0
BBX 16 16 0 -2
BITMAP
0060
007F
F860
D7FF
D663
D5FC
D663
D7FF
D618
D673
D5D6
F66C
C5DE
CB6B
0DCD
1778
ENDCHAR

STARTCHAR jisx0212_3652
ENCODING 13906
SWIDTH 960 0
DWIDTH 16 0
BBX 16 16 0 -2
BITMAP
0070
00D8
F98C
DB06
D5FB
DC01
D7FF
D76B
D55B
D7FF
D800
FBFE
C306
C3FE
0306
03FE
ENDCHAR

STARTCHAR jisx0212_3653
ENCODING 13907
SWIDTH 960 0
DWIDTH 16 0
BBX 16 16 0 -2
BITMAP
318C
18D8
67FF
3060
03FF
7B03
1BFF
1B03
1BFF
2B03
67FF
C000
3FFF
3003
3003
3FFF
ENDCHAR

STARTCHAR jisx0212_3654
ENCODING 13908
SWIDTH 960 0
DWIDTH 16 0
BBX 16 16 0 -2
BITMAP
00CC
07FF
F8CC
D998
DBFF
D598
DDFF
D998
D9FF
D998
D9FF
F800
C3FF
C0C6
007C
0FC7
ENDCHAR

STARTCHAR jisx0212_3655
ENCODING 13909
SWIDTH 960 0
DWIDTH 16 0
BBX 16 16 0 -2
BITMAP
0000
03FF
F830
D7FF
D631
D5AD
D830
DBAF
D800
D7FF
D860
F7FF
C6D9
C6D9
06D9
06D7
ENDCHAR

STARTCHAR jisx0212_3656
ENCODING 13910
SWIDTH 960 0
DWIDTH 16 0
BBX 16 16 0 -2
BITMAP
0000
07FF
F600
D5F6
D5B7
D5F5
D5BF
D5F6
D606
D5F6
D5B6
F5EB
C5AB
CDEB
0DB9
1971
ENDCHAR

STARTCHAR jisx0212_3657
ENCODING 13911
SWIDTH 960 0
DWIDTH 16 0
BBX 16 16 0 -2
BITMAP
0060
07FF
F860
DBFE
D800
D7FF
D801
DBFD
D860
D7FF
D806
FF7F
CD66
CDB6
0F86
0C1E
ENDCHAR

STARTCHAR jisx0212_3658
ENCODING 13912
SWIDTH 960 0
DWIDTH 16 0
BBX 16 16 0 -2
BITMAP
0060
0060
F7FF
D8B3
DF5E
D556
D55B
DB7D
D860
DB06
DBFE
FB06
C3FE
C306
0606
0C06
ENDCHAR

STARTCHAR jisx0212_3659
ENCODING 13913
SWIDTH 960 0
DWIDTH 16 0
BBX 16 16 0 -2
BITMAP
0180
01FC
FB18
D7FF
DB33
DBFF
DB33
DBFF
DADB
D66D
DBFF
FB03
C3FF
C303
03FF
0303
ENDCHAR

STARTCHAR jisx0212_365A
ENCODING 13914
SWIDTH 960 0
DWIDTH 16 0
BBX 16 16 0 -2
BITMAP
0030
01B0
F9BF
D9B0
DFFF
D8CC
D6CB
D557
D733
D7FF
D6CB
F6CB
C557
C733
07FF
0603
ENDCHAR

STARTCHAR jisx0212_365B
ENCODING 13915
SWIDTH 960 0
DWIDTH 16 0
BBX 16 16 0 -2
BITMAP
0000
7F7F
6363
7F7F
0000
7FFF
6180
7FFE
6006
7FFE
6180
7FFF
0000
7F7F
6363
7F7F
ENDCHAR

STARTCHAR jisx0212_365C
ENCODING 13916
SWIDTH 960 0
DWIDTH 16 0
BBX 16 16 0 -2
BITMAP
0030
0030
F7FF
D6C6
D7FF
D6C6
D6FE
D600
D7FF
D5B3
D5FF
F5B3
C5FF
CC00
0CEF
1B81
ENDCHAR

STARTCHAR jisx0212_365D
ENCODING 13917
SWIDTH 960 0
DWIDTH 16 0
BBX 16 16 0 -2
BITMAP
0180
FFFF
0180
7FFE
0000
3FFC
300C
3FFC
1818
FEFF
1818
FF7F
0000
FE7F
C663
FE7F
ENDCHAR

STARTCHAR jisx0212_365E
ENCODING 13918
SWIDTH 960 0
DWIDTH 16 0
BBX 16 16 0 -2
BITMAP
006C
07CC
F99F
D7D5
D9B5
DBCD
D559
DD87
D8F0
D998
F76E
DD5B
C0F0
035C
0E67
01E1
ENDCHAR

STARTCHAR jisx0212_365F
ENCODING 13919
SWIDTH 960 0
DWIDTH 16 0
BBX 16 16 0 -2
BITMAP
0000
07FF
F600
D677
D7DC
D6CC
D7FF
D6CC
D5DE
D6AB
F6CC
C630
C5BF
0DB0
0DB0
17FF
ENDCHAR

STARTCHAR jisx0212_3660
ENCODING 13920
SWIDTH 960 0
DWIDTH 16 0
BBX 16 16 0 -2
BITMAP
0060
007E
F860
D7FF
D661
D67B
D7E3
D67F
D600
D5FE
F5B6
C5FE
CDB6
0BFF
1B5B
37FF
ENDCHAR

STARTCHAR jisx0212_3661
ENCODING 13921
SWIDTH 960 0
DWIDTH 16 0
BBX 16 16 0 -2
BITMAP
0198
0198
F7DF
D658
DB5F
DAC1
DFFF
D818
D7DF
D658
F7DF
C658
C7DF
0658
0659
05EF
ENDCHAR

STARTCHAR jisx0212_3662
ENCODING 13922
SWIDTH 960 0
DWIDTH 16 0
BBX 16 16 0 -2
BITMAP
018B
030D
F67F
DCCC
D57F
DB6D
DB7F
D56D
DFEB
DB03
F77F
C6B3
CADB
0ADB
1B03
030F
ENDCHAR

STARTCHAR jisx0212_3663
ENCODING 13923
SWIDTH 960 0
DWIDTH 16 0
BBX 16 16 0 -2
BITMAP
0300
033F
FFF3
D6B3
D6BF
D5B3
DFF3
DB3F
DB33
DFF3
FB3F
C796
C6D6
0B35
1B65
02C7
ENDCHAR

STARTCHAR jisx0212_3664
ENCODING 13924
SWIDTH 960 0
DWIDTH 16 0
BBX 16 16 0 -2
BITMAP
0180
017F
F58C
D5D8
D5BF
D5B3
DFF3
D83F
DB33
D77F
FAB3
CAB3
D7BF
0316
0E33
3861
ENDCHAR

STARTCHAR jisx0212_3665
ENCODING 13925
SWIDTH 960 0
DWIDTH 16 0
BBX 16 16 0 -2
BITMAP
1800
18FF
FF8C
1818
7F16
003B
7F59
62D9
7F18
3600
FF7F
0063
7F63
6363
7F7F
6363
ENDCHAR

STARTCHAR jisx0212_3666
ENCODING 13926
SWIDTH 960 0
DWIDTH 16 0
BBX 16 16 0 -2
BITMAP
018C
01EE
F18B
AFED
ADAC
AFDF
ADAC
ADED
AC0D
AFEB
EB6B
CBE6
D865
1ACB
32DB
6FB1
ENDCHAR

STARTCHAR jisx0212_3667
ENCODING 13927
SWIDTH 960 0
DWIDTH 16 0
BBX 16 16 0 -2
BITMAP
0560
3CBE
3366
3E3E
3166
3EBE
3366
FFFF
CD81
DFFD
3180
FFFF
0180
3FFE
3006
3FFE
ENDCHAR

STARTCHAR jisx0212_3668
ENCODING 13928
SWIDTH 960 0
DWIDTH 16 0
BBX 16 16 0 -2
BITMAP
0030
07FF
F800
DBDF
DB5B
DBDF
D8CC
D7FF
D8CC
DBFF
D8CC
F7FF
C1DB
C6CE
1CB6
03E3
ENDCHAR

STARTCHAR jisx0212_3669
ENCODING 13929
SWIDTH 960 0
DWIDTH 16 0
BBX 16 16 0 -2
BITMAP
00D8
07DF
F8D8
D7DF
D6DB
D7DF
D998
D9B0
DBFF
DB30
F7FE
CB30
DBFE
0330
03FF
0300
ENDCHAR

STARTCHAR jisx0212_366A
ENCODING 13930
SWIDTH 960 0
DWIDTH 16 0
BBX 16 16 0 -2
BITMAP
0000
EEFF
AAC3
AAC3
EEFF
00D6
7EFF
56D6
7ED6
56FF
7EAD
18AB
FFB6
19B6
19BB
1AF1
ENDCHAR

STARTCHAR jisx0212_366B
ENCODING 13931
SWIDTH 960 0
DWIDTH 16 0
BBX 16 16 0 -2
BITMAP
0000
07FF
F6DB
D6DB
D7FF
DB00
D6DB
DBB6
DB7F
D6AC
FF7F
C32C
CABF
0AAC
1ABF
0330
ENDCHAR

STARTCHAR jisx0212_366C
ENCODING 13932
SWIDTH 960 0
DWIDTH 16 0
BBX 16 16 0 -2
BITMAP
0180
7FFF
198C
1FFC
0180
FFFF
DB6D
DF7D
0630
7FFF
0630
FFFF
0366
1E2C
F5DC
1F07
ENDCHAR

STARTCHAR jisx0212_366D
ENCODING 13933
SWIDTH 960 0
DWIDTH 16 0
BBX 16 16 0 -2
BITMAP
018C
05AC
F7FF
DD6C
D7FF
DAD5
D6B7
DBFE
DB06
DBFE
FB06
C3FE
C306
03FE
01CE
0F03
ENDCHAR

STARTCHAR jisx0212_366E
ENCODING 13934
SWIDTH 960 0
DWIDTH 16 0
BBX 16 16 0 -2
BITMAP
6618
6618
FFFF
6618
7EFF
1800
FEFF
DAC3
FEFF
1866
FFFF
1800
FEFF
2CC3
66C3
C2FF
ENDCHAR

STARTCHAR jisx0212_366F
ENCODING 13935
SWIDTH 960 0
DWIDTH 16 0
BBX 16 16 0 -2
BITMAP
0186
01E6
F187
AFF5
ADB6
AFDF
ADB6
AFF6
AB66
AB66
EFF6
CDAB
D6EB
15AB
15B9
3571
ENDCHAR

STARTCHAR jisx0212_3670
ENCODING 13936
SWIDTH 960 0
DWIDTH 16 0
BBX 16 16 0 -2
BITMAP
0198
0198
FFFF
D998
DB07
DBBC
D58C
D7EC
DD7F
D7EC
F55E
C55E
C7EB
0C0D
0AAC
1AAC
ENDCHAR

STARTCHAR jisx0212_3671
ENCODING 13937
SWIDTH 960 0
DWIDTH 16 0
BBX 16 16 0 -2
BITMAP
1818
1818
FFFF
1818
7F7F
0000
7F7F
6363
7F7F
3636
FFFF
0000
7F7F
6363
7F7F
6363
ENDCHAR

STARTCHAR jisx0212_3672
ENCODING 13938
SWIDTH 960 0
DWIDTH 16 0
BBX 16 16 0 -2
BITMAP
0000
7FFF
6003
6003
6003
7FE3
6063
6063
6063
6063
7FE3
6063
6003
6003
7FFF
6003
ENDCHAR

STARTCHAR jisx0212_3673
ENCODING 13939
SWIDTH 960 0
DWIDTH 16 0
BBX 16 16 0 -2
BITMAP
FFFF
C003
C183
C183
C303
C303
C363
C633
C61B
CC1B
CDEB
BF0B
C00B
C003
FFFF
C003
ENDCHAR

STARTCHAR jisx0212_3674
ENCODING 13940
SWIDTH 960 0
DWIDTH 16 0
BBX 16 16 0 -2
BITMAP
FFFF
C003
C003
DFFB
C033
C0E3
C183
C183
BFFB
C183
C183
C183
C783
C003
FFFF
C003
ENDCHAR

STARTCHAR jisx0212_3675
ENCODING 13941
SWIDTH 960 0
DWIDTH 16 0
BBX 16 16 0 -2
BITMAP
0180
0300
7FFF
6003
601B
6033
5C33
6763
61C3
60E3
61B3
631B
6E0B
5803
7FFF
6003
ENDCHAR

STARTCHAR jisx0212_3676
ENCODING 13942
SWIDTH 960 0
DWIDTH 16 0
BBX 16 16 0 -2
BITMAP
FFFF
C183
C183
C303
BFFB
C633
C633
CC63
CF63
D9C3
C173
C71B
BC0B
C003
FFFF
C003
ENDCHAR

STARTCHAR jisx0212_3677
ENCODING 13943
SWIDTH 960 0
DWIDTH 16 0
BBX 16 16 0 -2
BITMAP
FFFF
C303
C373
BFC3
C303
DB33
DB33
DB33
DFF3
DB33
C31B
C31B
C1FB
C003
FFFF
C003
ENDCHAR

STARTCHAR jisx0212_3678
ENCODING 13944
SWIDTH 960 0
DWIDTH 16 0
BBX 16 16 0 -2
BITMAP
FFFF
C183
C183
BFFB
C003
C7E3
C663
C663
C663
C663
CC6B
CC6B
D87B
B003
FFFF
C003
ENDCHAR

STARTCHAR jisx0212_3679
ENCODING 13945
SWIDTH 960 0
DWIDTH 16 0
BBX 16 16 0 -2
BITMAP
FFFF
C003
C183
C183
C18B
BDDB
C5B3
C563
CD63
CDB3
D99B
B18B
E787
C003
FFFF
C003
ENDCHAR

STARTCHAR jisx0212_367A
ENCODING 13946
SWIDTH 960 0
DWIDTH 16 0
BBX 16 16 0 -2
BITMAP
FFFF
C663
C663
C663
CC6B
CC6B
D87B
B003
CFF3
CC33
CC33
CC33
CC33
CC33
FFFF
C003
ENDCHAR

STARTCHAR jisx0212_367B
ENCODING 13947
SWIDTH 960 0
DWIDTH 16 0
BBX 16 16 0 -2
BITMAP
FFFF
C003
C003
BFFB
C0C3
C183
C183
C363
C5B3
DD9B
B18B
C183
C183
C003
FFFF
C003
ENDCHAR

STARTCHAR jisx0212_367C
ENCODING 13948
SWIDTH 960 0
DWIDTH 16 0
BBX 16 16 0 -2
BITMAP
0180
0300
7FFF
6183
6183
61FB
5B1B
6733
65B3
6C63
58B3
639B
6E0B
6003
7FFF
6003
ENDCHAR

STARTCHAR jisx0212_367D
ENCODING 13949
SWIDTH 960 0
DWIDTH 16 0
BBX 16 16 0 -2
BITMAP
FFFF
C603
C603
CC03
CFFB
DB6B
DB6B
B66B
C6CB
CCCB
D98B
C31B
C6F3
C003
FFFF
C003
ENDCHAR

STARTCHAR jisx0212_367E
ENCODING 13950
SWIDTH 960 0
DWIDTH 16 0
BBX 16 16 0 -2
BITMAP
FFFF
C003
C003
DFFB
C003
C003
BFFB
C6C3
C6C3
C6C3
C6CB
CCCB
B87B
C003
FFFF
C003
ENDCHAR

STARTCHAR jisx0212_3721
ENCODING 14113
SWIDTH 960 0
DWIDTH 16 0
BBX 16 16 0 -2
BITMAP
FFFF
C003
C7E3
C063
C633
CC33
D81B
B18B
C183
DFFB
C183
C183
BFFB
C003
FFFF
C003
ENDCHAR

STARTCHAR jisx0212_3722
ENCODING 14114
SWIDTH 960 0
DWIDTH 16 0
BBX 16 16 0 -2
BITMAP
FFFF
C003
C07B
DFC3
C183
C183
BFFB
C3C3
C563
CDB3
D99B
B18B
C183
C003
FFFF
C003
ENDCHAR

STARTCHAR jisx0212_3723
ENCODING 14115
SWIDTH 960 0
DWIDTH 16 0
BBX 16 16 0 -2
BITMAP
FFFF
C003
CFF3
C003
BFFB
C003
CFF3
C003
CFF3
C003
CFF3
CC33
CFF3
C003
FFFF
C003
ENDCHAR

STARTCHAR jisx0212_3724
ENCODING 14116
SWIDTH 960 0
DWIDTH 16 0
BBX 16 16 0 -2
BITMAP
FFFF
C003
BFFB
C183
C70B
BD9B
C3B3
CEE3
B9E3
C2B3
CEDB
B8C7
C383
C003
FFFF
C003
ENDCHAR

STARTCHAR jisx0212_3725
ENCODING 14117
SWIDTH 960 0
DWIDTH 16 0
BBX 16 16 0 -2
BITMAP
FFFF
C003
C383
C6C3
CC63
B7BB
E00F
DFFB
DADB
DFFB
DADB
DADB
DABB
C003
FFFF
C003
ENDCHAR

STARTCHAR jisx0212_3726
ENCODING 14118
SWIDTH 960 0
DWIDTH 16 0
BBX 16 16 0 -2
BITMAP
FFFF
C183
DFFB
C183
CFF3
C183
BFFB
C003
CFF3
CDB3
CFF3
CC33
CCF3
C003
FFFF
C003
ENDCHAR

STARTCHAR jisx0212_3727
ENCODING 14119
SWIDTH 960 0
DWIDTH 16 0
BBX 16 16 0 -2
BITMAP
FFFF
C183
D99B
D99B
DFFB
C003
BFFB
C183
DFFB
DADB
DADB
DADB
DABB
C003
FFFF
C003
ENDCHAR

STARTCHAR jisx0212_3728
ENCODING 14120
SWIDTH 960 0
DWIDTH 16 0
BBX 16 16 0 -2
BITMAP
FFFF
C1B3
BFFB
D99B
DFFB
D99B
DFFB
D99B
C033
BFFB
CC33
C633
C0F3
C003
FFFF
C003
ENDCHAR

STARTCHAR jisx0212_3729
ENCODING 14121
SWIDTH 960 0
DWIDTH 16 0
BBX 16 16 0 -2
BITMAP
FFFF
C303
DFF3
C333
FFFB
C333
DFF3
C303
FFFB
D833
DFF3
D833
DFF3
C003
FFFF
C003
ENDCHAR

STARTCHAR jisx0212_372A
ENCODING 14122
SWIDTH 960 0
DWIDTH 16 0
BBX 16 16 0 -2
BITMAP
FFFF
C183
CFF3
CDB3
CFF3
C183
BFFB
CC33
CFF3
CC33
CFF3
CC33
CFF3
D81B
FFFF
C003
ENDCHAR

STARTCHAR jisx0212_372B
ENCODING 14123
SWIDTH 960 0
DWIDTH 16 0
BBX 16 16 0 -2
BITMAP
FFFF
C003
BFFB
B6CB
BFFB
C183
DFFB
C633
C363
FFFF
C183
BFFB
C183
C183
FFFF
C003
ENDCHAR

STARTCHAR jisx0212_372C
ENCODING 14124
SWIDTH 960 0
DWIDTH 16 0
BBX 16 16 0 -2
BITMAP
FFFF
C003
CBCB
D81B
F7F7
AC2B
DBDB
AC2B
F7F7
D81B
DBDB
B6B7
DBDB
DB1B
FFFF
C003
ENDCHAR

STARTCHAR jisx0212_372D
ENCODING 14125
SWIDTH 960 0
DWIDTH 16 0
BBX 16 16 0 -2
BITMAP
0060
1860
1860
1860
1860
FF60
1860
1860
1860
1860
1860
1760
1C61
F061
0061
003F
ENDCHAR

STARTCHAR jisx0212_372E
ENCODING 14126
SWIDTH 960 0
DWIDTH 16 0
BBX 16 16 0 -2
BITMAP
1800
19FF
180C
180C
180C
FF0C
180C
180C
180C
180C
180C
170C
1C0C
F00C
000C
007C
ENDCHAR

STARTCHAR jisx0212_372F
ENCODING 14127
SWIDTH 960 0
DWIDTH 16 0
BBX 16 16 0 -2
BITMAP
0000
7FFC
180C
0C18
0770
01C0
0770
1C1E
F183
0180
7FFE
0180
0180
0180
FFFF
0000
ENDCHAR

STARTCHAR jisx0212_3730
ENCODING 14128
SWIDTH 960 0
DWIDTH 16 0
BBX 16 16 0 -2
BITMAP
0030
1830
1830
1830
1830
FF30
1838
182C
1836
1833
1831
1730
1C30
F030
0030
0030
ENDCHAR

STARTCHAR jisx0212_3731
ENCODING 14129
SWIDTH 960 0
DWIDTH 16 0
BBX 16 16 0 -2
BITMAP
0180
0180
0180
7FFE
0180
0180
0180
FFFF
0660
0660
0660
0660
0C61
0C61
3861
E03F
ENDCHAR

STARTCHAR jisx0212_3732
ENCODING 14130
SWIDTH 960 0
DWIDTH 16 0
BBX 16 16 0 -2
BITMAP
3000
31FF
3018
3018
3018
FE18
3018
33FF
3018
3018
3018
3E18
F018
0018
0018
0078
ENDCHAR

STARTCHAR jisx0212_3733
ENCODING 14131
SWIDTH 960 0
DWIDTH 16 0
BBX 16 16 0 -2
BITMAP
00C0
30C0
30C0
30FF
3180
FD80
3300
35FE
300C
3018
3030
3C60
F0C1
0181
0181
00FF
ENDCHAR

STARTCHAR jisx0212_3734
ENCODING 14132
SWIDTH 960 0
DWIDTH 16 0
BBX 16 16 0 -2
BITMAP
3000
31FF
3000
3000
3000
FBFF
3060
30C0
30C0
30FF
3183
3D83
F003
0006
0006
003C
ENDCHAR

STARTCHAR jisx0212_3735
ENCODING 14133
SWIDTH 960 0
DWIDTH 16 0
BBX 16 16 0 -2
BITMAP
3000
31FF
3003
3003
3003
FE03
3003
31FF
3183
3180
3180
3D80
F181
0181
0181
00FF
ENDCHAR

STARTCHAR jisx0212_3736
ENCODING 14134
SWIDTH 960 0
DWIDTH 16 0
BBX 16 16 0 -2
BITMAP
3000
31FF
3183
3183
3183
FD83
3183
31FF
3183
3180
3180
3D80
F180
0181
0181
00FF
ENDCHAR

STARTCHAR jisx0212_3737
ENCODING 14135
SWIDTH 960 0
DWIDTH 16 0
BBX 16 16 0 -2
BITMAP
3183
31B3
31B3
31B3
31B3
FDB3
31B3
31B3
31B3
31B3
31B3
3DB3
F333
0333
0603
0C03
ENDCHAR

STARTCHAR jisx0212_3738
ENCODING 14136
SWIDTH 960 0
DWIDTH 16 0
BBX 16 16 0 -2
BITMAP
00C0
30C0
30C0
31FF
3181
FD81
3301
3601
31FD
3001
3001
3C01
F001
0003
0003
001E
ENDCHAR

STARTCHAR jisx0212_3739
ENCODING 14137
SWIDTH 960 0
DWIDTH 16 0
BBX 16 16 0 -2
BITMAP
00C0
30C0
3180
31FF
316D
FB6D
336D
36D9
30D9
3199
31B1
3B31
F661
00C3
0183
001E
ENDCHAR

STARTCHAR jisx0212_373A
ENCODING 14138
SWIDTH 960 0
DWIDTH 16 0
BBX 16 16 0 -2
BITMAP
3000
37FE
3186
3186
318C
FD8C
31FF
3163
3163
3166
3336
3B2C
F318
062C
0CE7
1B81
ENDCHAR

STARTCHAR jisx0212_373B
ENCODING 14139
SWIDTH 960 0
DWIDTH 16 0
BBX 16 16 0 -2
BITMAP
0030
3058
3058
30CC
30CC
FD86
3303
36CD
30CC
30CC
30CC
3CCC
F18C
018C
030C
060C
ENDCHAR

STARTCHAR jisx0212_373C
ENCODING 14140
SWIDTH 960 0
DWIDTH 16 0
BBX 16 16 0 -2
BITMAP
0030
3058
30CC
30CC
3186
FB03
35FD
3000
3000
33FF
3003
3C06
F006
000C
000C
0018
ENDCHAR

STARTCHAR jisx0212_373D
ENCODING 14141
SWIDTH 960 0
DWIDTH 16 0
BBX 16 16 0 -2
BITMAP
3060
3060
30C0
30C0
30FF
FDC6
31C6
32C6
32C6
366C
306C
3C38
F038
006C
01C7
0701
ENDCHAR

STARTCHAR jisx0212_373E
ENCODING 14142
SWIDTH 960 0
DWIDTH 16 0
BBX 16 16 0 -2
BITMAP
0000
0FF0
0030
0C18
180C
2FF6
E31B
0318
0618
1CF0
7000
0180
3FFE
0180
0180
FFFF
ENDCHAR

STARTCHAR jisx0212_373F
ENCODING 14143
SWIDTH 960 0
DWIDTH 16 0
BBX 16 16 0 -2
BITMAP
0000
31FE
3186
3166
31B6
FDB6
31B6
3186
37FF
3186
3186
3D86
F306
0306
0606
0C1E
ENDCHAR

STARTCHAR jisx0212_3740
ENCODING 14144
SWIDTH 960 0
DWIDTH 16 0
BBX 16 16 0 -2
BITMAP
3060
3060
3061
3F67
307C
3060
3361
3E61
F03F
0180
0180
3FFE
0180
0180
0180
FFFF
ENDCHAR

STARTCHAR jisx0212_3741
ENCODING 14145
SWIDTH 960 0
DWIDTH 16 0
BBX 16 16 0 -2
BITMAP
0030
3030
31B6
31B3
3331
FB31
35FF
3030
3030
3030
37FF
3C30
F030
0030
0030
0030
ENDCHAR

STARTCHAR jisx0212_3742
ENCODING 14146
SWIDTH 960 0
DWIDTH 16 0
BBX 16 16 0 -2
BITMAP
31FE
3186
3186
3186
3186
FDFE
3186
3186
3186
31FE
3186
3D86
F186
0186
07FF
0000
ENDCHAR

STARTCHAR jisx0212_3743
ENCODING 14147
SWIDTH 960 0
DWIDTH 16 0
BBX 16 16 0 -2
BITMAP
3000
33FF
3060
3060
3060
FE60
30C0
30FF
30C3
31C3
31C3
3AC3
F6C3
00C3
00FF
00C3
ENDCHAR

STARTCHAR jisx0212_3744
ENCODING 14148
SWIDTH 960 0
DWIDTH 16 0
BBX 16 16 0 -2
BITMAP
0030
3030
3030
33FF
3301
FB01
32C1
30C0
30C7
30DC
30F0
3EC0
F0C0
00C1
00C1
007F
ENDCHAR

STARTCHAR jisx0212_3745
ENCODING 14149
SWIDTH 960 0
DWIDTH 16 0
BBX 16 16 0 -2
BITMAP
0030
1830
1830
1830
183F
FF30
1830
1830
1830
19FF
1983
1D83
F983
0183
01FF
0183
ENDCHAR

STARTCHAR jisx0212_3746
ENCODING 14150
SWIDTH 960 0
DWIDTH 16 0
BBX 16 16 0 -2
BITMAP
3000
33FF
3303
3303
3303
FBFF
3300
3360
3363
336E
3378
3B60
F661
0661
0C61
183F
ENDCHAR

STARTCHAR jisx0212_3747
ENCODING 14151
SWIDTH 960 0
DWIDTH 16 0
BBX 16 16 0 -2
BITMAP
3030
3060
306C
30C6
30C3
FDBF
37E1
3001
3000
31FF
3183
3D83
F183
0183
01FF
0183
ENDCHAR

STARTCHAR jisx0212_3748
ENCODING 14152
SWIDTH 960 0
DWIDTH 16 0
BBX 16 16 0 -2
BITMAP
3000
37FF
3018
3030
3030
FE70
30AC
31B6
3333
3631
3030
3E30
F030
0030
0000
0FFF
ENDCHAR

STARTCHAR jisx0212_3749
ENCODING 14153
SWIDTH 960 0
DWIDTH 16 0
BBX 16 16 0 -2
BITMAP
3000
33FF
3301
3301
3301
FB7D
336D
336D
336D
336D
336D
3B7D
F361
0301
0301
0307
ENDCHAR

STARTCHAR jisx0212_374A
ENCODING 14154
SWIDTH 960 0
DWIDTH 16 0
BBX 16 16 0 -2
BITMAP
0030
3030
3030
31FE
31B6
FDB6
31B6
31B6
31B6
37FF
3030
3E58
F058
00CC
0386
0E03
ENDCHAR

STARTCHAR jisx0212_374B
ENCODING 14155
SWIDTH 960 0
DWIDTH 16 0
BBX 16 16 0 -2
BITMAP
30CC
30CC
318C
318C
376C
FB7F
31CD
30CD
318D
31CD
3359
3AD9
F759
0E33
0063
00CE
ENDCHAR

STARTCHAR jisx0212_374C
ENCODING 14156
SWIDTH 960 0
DWIDTH 16 0
BBX 16 16 0 -2
BITMAP
0180
0180
3FFE
0180
0180
FFFF
0630
0631
0C31
399F
E180
3FFE
0180
0180
0180
FFFF
ENDCHAR

STARTCHAR jisx0212_374D
ENCODING 14157
SWIDTH 960 0
DWIDTH 16 0
BBX 16 16 0 -2
BITMAP
0003
300E
31F8
3180
3180
FD80
3180
31FF
318C
318C
318C
3D8C
F18C
018C
018C
0FFF
ENDCHAR

STARTCHAR jisx0212_374E
ENCODING 14158
SWIDTH 960 0
DWIDTH 16 0
BBX 16 16 0 -2
BITMAP
3000
37FF
3006
3006
3006
FDF6
31B6
31B6
31B6
31B6
31F6
3D86
F186
0006
0006
001E
ENDCHAR

STARTCHAR jisx0212_374F
ENCODING 14159
SWIDTH 960 0
DWIDTH 16 0
BBX 16 16 0 -2
BITMAP
3030
3030
3030
33FF
3301
FB01
337D
300C
306C
306C
3066
3CC6
F0C6
0183
0303
0601
ENDCHAR

STARTCHAR jisx0212_3750
ENCODING 14160
SWIDTH 960 0
DWIDTH 16 0
BBX 16 16 0 -2
BITMAP
30C0
30CC
30C6
30C0
33FF
FCC0
30C6
30E6
30E6
31AC
31AC
3D98
F31C
0336
0663
0CC1
ENDCHAR

STARTCHAR jisx0212_3751
ENCODING 14161
SWIDTH 960 0
DWIDTH 16 0
BBX 16 16 0 -2
BITMAP
0003
300E
31F8
3198
3198
FD98
31FF
3198
3198
318C
318C
3D6C
F1C5
0705
0003
03FD
ENDCHAR

STARTCHAR jisx0212_3752
ENCODING 14162
SWIDTH 960 0
DWIDTH 16 0
BBX 16 16 0 -2
BITMAP
0003
300E
31F8
3180
3180
FD80
31FF
318C
318C
316C
319E
3D8B
F30D
030C
060C
0C0C
ENDCHAR

STARTCHAR jisx0212_3753
ENCODING 14163
SWIDTH 960 0
DWIDTH 16 0
BBX 16 16 0 -2
BITMAP
0018
3018
3018
33FF
3301
FB01
3000
33FF
3018
3018
3018
3C18
F018
0018
0018
00F8
ENDCHAR

STARTCHAR jisx0212_3754
ENCODING 14164
SWIDTH 960 0
DWIDTH 16 0
BBX 16 16 0 -2
BITMAP
00C0
30C0
30C0
31FF
31B0
FDB0
3330
3030
37FF
3030
3030
3E58
F058
00CC
0386
0E03
ENDCHAR

STARTCHAR jisx0212_3755
ENCODING 14165
SWIDTH 960 0
DWIDTH 16 0
BBX 16 16 0 -2
BITMAP
3030
3030
3030
3030
37FF
FC00
3006
3186
3186
30C6
30CC
3CCC
F0CC
00D8
0018
0FFF
ENDCHAR

STARTCHAR jisx0212_3756
ENCODING 14166
SWIDTH 960 0
DWIDTH 16 0
BBX 16 16 0 -2
BITMAP
3000
33FF
3301
3301
32FD
FB01
3301
337D
336D
336D
336D
3B6D
F37D
0361
0301
0307
ENDCHAR

STARTCHAR jisx0212_3757
ENCODING 14167
SWIDTH 960 0
DWIDTH 16 0
BBX 16 16 0 -2
BITMAP
0000
FFFF
06C0
06C0
7FFE
66C6
6CD6
78F6
6006
7FFE
0180
0180
7FFE
0180
0180
FFFF
ENDCHAR

STARTCHAR jisx0212_3758
ENCODING 14168
SWIDTH 960 0
DWIDTH 16 0
BBX 16 16 0 -2
BITMAP
30D8
30D8
30D8
36D9
32DB
FAD6
32DC
30D8
31DC
32D6
36DB
30D9
3D98
F199
0319
0E0F
ENDCHAR

STARTCHAR jisx0212_3759
ENCODING 14169
SWIDTH 960 0
DWIDTH 16 0
BBX 16 16 0 -2
BITMAP
3030
3030
3333
3333
31B6
FDB6
3030
37FF
30D8
30D8
30D8
3CD8
F198
0199
0319
0E0F
ENDCHAR

STARTCHAR jisx0212_375A
ENCODING 14170
SWIDTH 960 0
DWIDTH 16 0
BBX 16 16 0 -2
BITMAP
0180
0180
3FFE
0180
0180
0180
FFFF
0000
1818
1818
FEFF
1818
1818
1818
1F18
F9FF
ENDCHAR

STARTCHAR jisx0212_375B
ENCODING 14171
SWIDTH 960 0
DWIDTH 16 0
BBX 16 16 0 -2
BITMAP
0000
33FC
30CC
30CF
30D9
FD81
3181
332F
3630
3030
37FF
3C78
F0AC
01B7
0731
1C30
ENDCHAR

STARTCHAR jisx0212_375C
ENCODING 14172
SWIDTH 960 0
DWIDTH 16 0
BBX 16 16 0 -2
BITMAP
00C0
30C0
31FC
318C
3318
FBFF
3700
2B00
337E
3366
3366
3B66
F65E
0661
0C61
183F
ENDCHAR

STARTCHAR jisx0212_375D
ENCODING 14173
SWIDTH 960 0
DWIDTH 16 0
BBX 16 16 0 -2
BITMAP
3030
3030
33FF
3301
3301
FC1E
33F0
3030
3030
303F
33F0
3C30
F030
0031
0031
001F
ENDCHAR

STARTCHAR jisx0212_375E
ENCODING 14174
SWIDTH 960 0
DWIDTH 16 0
BBX 16 16 0 -2
BITMAP
318C
30CC
30D8
33FF
3030
FC30
3030
31FF
3030
3030
3030
3BFF
F030
0030
0030
0030
ENDCHAR

STARTCHAR jisx0212_375F
ENCODING 14175
SWIDTH 960 0
DWIDTH 16 0
BBX 16 16 0 -2
BITMAP
0CCC
0CC6
18C0
18BF
37E0
3866
586C
D839
1859
19CD
16C3
00C0
3FFF
00C0
00C0
7FFF
ENDCHAR

STARTCHAR jisx0212_3760
ENCODING 14176
SWIDTH 960 0
DWIDTH 16 0
BBX 16 16 0 -2
BITMAP
000F
7FF8
6000
6000
7FFF
6000
6FFE
6C06
6C06
6FFE
6060
6060
5FFF
C060
C060
BFFF
ENDCHAR

STARTCHAR jisx0212_3761
ENCODING 14177
SWIDTH 960 0
DWIDTH 16 0
BBX 16 16 0 -2
BITMAP
0030
3030
3060
33FF
3301
FB01
337D
336D
336D
336D
336D
3B7D
F361
0301
0301
030F
ENDCHAR

STARTCHAR jisx0212_3762
ENCODING 14178
SWIDTH 960 0
DWIDTH 16 0
BBX 16 16 0 -2
BITMAP
0030
3030
33FF
3301
330D
FC0C
300C
33FF
300C
318C
30CC
3C6C
F06C
000C
000C
003C
ENDCHAR

STARTCHAR jisx0212_3763
ENCODING 14179
SWIDTH 960 0
DWIDTH 16 0
BBX 16 16 0 -2
BITMAP
0000
7FFF
0360
3366
1B66
1B6C
0360
FFFF
0000
0180
0180
3FFE
0180
0180
0180
FFFF
ENDCHAR

STARTCHAR jisx0212_3764
ENCODING 14180
SWIDTH 960 0
DWIDTH 16 0
BBX 16 16 0 -2
BITMAP
30CC
30CC
30CC
30CC
33FF
FCCC
30CC
30CC
30CC
30CC
37FF
3C00
F06C
00C6
0383
0E01
ENDCHAR

STARTCHAR jisx0212_3765
ENCODING 14181
SWIDTH 960 0
DWIDTH 16 0
BBX 16 16 0 -2
BITMAP
3030
3030
33FF
3301
3301
FCFE
3000
3000
33FF
306C
306C
3C6C
F06C
00CD
018D
070F
ENDCHAR

STARTCHAR jisx0212_3766
ENCODING 14182
SWIDTH 960 0
DWIDTH 16 0
BBX 16 16 0 -2
BITMAP
6007
31FC
1980
C180
61FF
318C
0D8C
198C
330C
630C
C6C0
00C0
3FFF
00C0
00C0
FFFF
ENDCHAR

STARTCHAR jisx0212_3767
ENCODING 14183
SWIDTH 960 0
DWIDTH 16 0
BBX 16 16 0 -2
BITMAP
3000
31FF
3066
302C
3018
FDFF
3199
3199
31FF
3199
3199
3DFF
F199
0199
0199
0197
ENDCHAR

STARTCHAR jisx0212_3768
ENCODING 14184
SWIDTH 960 0
DWIDTH 16 0
BBX 16 16 0 -2
BITMAP
0060
306C
30C6
30BB
33E3
FCD8
30DB
319F
3760
3060
30FE
3DC6
F76C
0038
00EE
0783
ENDCHAR

STARTCHAR jisx0212_3769
ENCODING 14185
SWIDTH 960 0
DWIDTH 16 0
BBX 16 16 0 -2
BITMAP
0030
3030
31FF
3183
3183
FDFF
3183
3183
31FF
31B1
319B
3D96
F18C
01B6
01E3
0701
ENDCHAR

STARTCHAR jisx0212_376A
ENCODING 14186
SWIDTH 960 0
DWIDTH 16 0
BBX 16 16 0 -2
BITMAP
0000
37C3
30BE
318C
318C
FB2C
33AF
36AC
30AC
36AC
2AAC
32AC
3D9F
F380
06E0
1C3F
ENDCHAR

STARTCHAR jisx0212_376B
ENCODING 14187
SWIDTH 960 0
DWIDTH 16 0
BBX 16 16 0 -2
BITMAP
0000
33FF
3303
3303
3303
FBFF
3000
3007
33FC
3030
3030
3BFF
F030
0030
0030
07FF
ENDCHAR

STARTCHAR jisx0212_376C
ENCODING 14188
SWIDTH 960 0
DWIDTH 16 0
BBX 16 16 0 -2
BITMAP
0030
3058
30CC
3186
32FB
FE01
33FE
3006
300C
3058
3030
3AD6
F2C3
06CD
06CD
0C7C
ENDCHAR

STARTCHAR jisx0212_376D
ENCODING 14189
SWIDTH 960 0
DWIDTH 16 0
BBX 16 16 0 -2
BITMAP
0030
3030
33FF
3301
3301
FC00
33FF
3030
3030
31B0
31BF
3DB0
F330
03B0
06B0
0C7F
ENDCHAR

STARTCHAR jisx0212_376E
ENCODING 14190
SWIDTH 960 0
DWIDTH 16 0
BBX 16 16 0 -2
BITMAP
0030
3060
33FF
3333
3333
FBFF
3333
3333
33FF
3058
2CD8
3B98
EFFF
0018
0018
0018
ENDCHAR

STARTCHAR jisx0212_376F
ENCODING 14191
SWIDTH 960 0
DWIDTH 16 0
BBX 16 16 0 -2
BITMAP
0030
3030
37FF
3601
3601
FB00
33DF
335B
335B
335B
355B
3CD7
F0D8
0199
0319
0E0F
ENDCHAR

STARTCHAR jisx0212_3770
ENCODING 14192
SWIDTH 960 0
DWIDTH 16 0
BBX 16 16 0 -2
BITMAP
31FE
3186
3186
31FE
3186
FD86
31FE
3186
3186
31FE
3000
3BFF
F000
00CC
0386
0E03
ENDCHAR

STARTCHAR jisx0212_3771
ENCODING 14193
SWIDTH 960 0
DWIDTH 16 0
BBX 16 16 0 -2
BITMAP
0007
31FC
3186
31B3
3319
FB19
35FF
3033
3033
37FF
3033
3C33
F3FF
0033
0030
00F0
ENDCHAR

STARTCHAR jisx0212_3772
ENCODING 14194
SWIDTH 960 0
DWIDTH 16 0
BBX 16 16 0 -2
BITMAP
0030
3030
33FF
3033
37FF
FC33
3033
33FF
3030
3339
31BB
3C2E
F0AC
03B6
0E33
00F1
ENDCHAR

STARTCHAR jisx0212_3773
ENCODING 14195
SWIDTH 960 0
DWIDTH 16 0
BBX 16 16 0 -2
BITMAP
0007
31FC
3180
3166
3333
FB31
3600
3030
3030
37FF
3078
3CAC
F1B6
0733
1C31
0030
ENDCHAR

STARTCHAR jisx0212_3774
ENCODING 14196
SWIDTH 960 0
DWIDTH 16 0
BBX 16 16 0 -2
BITMAP
3007
33FC
3030
3030
37FF
FDB6
31B6
31B6
2FFF
31B6
31B6
31B6
3FFF
F030
0030
07FF
ENDCHAR

STARTCHAR jisx0212_3775
ENCODING 14197
SWIDTH 960 0
DWIDTH 16 0
BBX 16 16 0 -2
BITMAP
0C18
0C18
7F98
0C18
0C7F
FFDB
361B
36DB
67DB
CC3B
0C1B
7FAB
0C2B
0B63
1EC3
F181
ENDCHAR

STARTCHAR jisx0212_3776
ENCODING 14198
SWIDTH 960 0
DWIDTH 16 0
BBX 16 16 0 -2
BITMAP
31FF
3183
3183
31FF
3183
FD83
31FF
30C0
30C0
31FF
31AD
3B6D
F6D9
01B1
0363
00DE
ENDCHAR

STARTCHAR jisx0212_3777
ENCODING 14199
SWIDTH 960 0
DWIDTH 16 0
BBX 16 16 0 -2
BITMAP
0000
33FE
3006
37FF
3006
FBFE
3000
37FF
3631
3631
33FF
3B33
F333
0333
032F
0030
ENDCHAR

STARTCHAR jisx0212_3778
ENCODING 14200
SWIDTH 960 0
DWIDTH 16 0
BBX 16 16 0 -2
BITMAP
0000
FFFF
3300
3F7F
3333
3F33
3316
331C
2F37
FAE1
02C0
00C0
3FFF
00C0
00C0
7FFF
ENDCHAR

STARTCHAR jisx0212_3779
ENCODING 14201
SWIDTH 960 0
DWIDTH 16 0
BBX 16 16 0 -2
BITMAP
0000
73FF
1B03
03FF
E300
3360
0B67
1B7C
3661
6661
CDBF
0180
3FFE
0180
0180
FFFF
ENDCHAR

STARTCHAR jisx0212_377A
ENCODING 14202
SWIDTH 960 0
DWIDTH 16 0
BBX 16 16 0 -2
BITMAP
1818
1818
FFFF
3030
3030
3F3F
3333
3333
3363
6363
6ECE
C180
3FFE
0180
0180
FFFF
ENDCHAR

STARTCHAR jisx0212_377B
ENCODING 14203
SWIDTH 960 0
DWIDTH 16 0
BBX 16 16 0 -2
BITMAP
0060
30C0
339F
3303
3303
FBDF
3303
3303
3303
33FF
30D8
3CD8
F0D8
0199
0319
0E0F
ENDCHAR

STARTCHAR jisx0212_377C
ENCODING 14204
SWIDTH 960 0
DWIDTH 16 0
BBX 16 16 0 -2
BITMAP
3000
33FF
3301
32CD
336D
FB59
33FD
3331
32AD
32AD
32AD
3AAD
F2FD
02C1
0301
0307
ENDCHAR

STARTCHAR jisx0212_377D
ENCODING 14205
SWIDTH 960 0
DWIDTH 16 0
BBX 16 16 0 -2
BITMAP
3030
3030
33FF
3060
3066
FCBB
33E1
3000
31FF
3183
31FF
3D83
F1FF
0183
0183
018F
ENDCHAR

STARTCHAR jisx0212_377E
ENCODING 14206
SWIDTH 960 0
DWIDTH 16 0
BBX 16 16 0 -2
BITMAP
3000
37FF
3058
3058
3058
FBDF
335B
3303
3303
3303
33DF
3B5B
F058
0058
0058
0FFF
ENDCHAR

STARTCHAR jisx0212_3821
ENCODING 14369
SWIDTH 960 0
DWIDTH 16 0
BBX 16 16 0 -2
BITMAP
3000
33FF
3301
3331
3331
FAFD
3331
3331
337D
336D
336D
3B6D
F37D
0301
03FF
0301
ENDCHAR

STARTCHAR jisx0212_3822
ENCODING 14370
SWIDTH 960 0
DWIDTH 16 0
BBX 16 16 0 -2
BITMAP
00C0
30C0
31F8
3198
3330
FBFF
3733
2B33
3333
33FF
3070
3CAC
F0B6
01B5
0731
1C1F
ENDCHAR

STARTCHAR jisx0212_3823
ENCODING 14371
SWIDTH 960 0
DWIDTH 16 0
BBX 16 16 0 -2
BITMAP
3000
37FF
3000
31FF
3183
FD83
31FF
3000
33FF
3331
3331
3BFF
F331
0331
03FF
0301
ENDCHAR

STARTCHAR jisx0212_3824
ENCODING 14372
SWIDTH 960 0
DWIDTH 16 0
BBX 16 16 0 -2
BITMAP
31B6
31B6
37FF
31B6
31B6
FDBE
3180
31FF
3030
3030
37FF
3C78
F0AC
03B6
0E33
0030
ENDCHAR

STARTCHAR jisx0212_3825
ENCODING 14373
SWIDTH 960 0
DWIDTH 16 0
BBX 16 16 0 -2
BITMAP
00C0
30FE
3186
318C
33FC
FC18
37FF
3060
31C3
3766
30AC
3BBC
EE56
01DB
0F19
0070
ENDCHAR

STARTCHAR jisx0212_3826
ENCODING 14374
SWIDTH 960 0
DWIDTH 16 0
BBX 16 16 0 -2
BITMAP
0180
317E
3186
3306
32FF
FB00
3760
377F
2AD8
3318
32FF
3B18
F318
032C
02E7
0381
ENDCHAR

STARTCHAR jisx0212_3827
ENCODING 14375
SWIDTH 960 0
DWIDTH 16 0
BBX 16 16 0 -2
BITMAP
0198
3198
3199
31DF
3198
FD99
31D9
378F
3030
3060
31FF
3D83
F1FF
0183
01FF
0183
ENDCHAR

STARTCHAR jisx0212_3828
ENCODING 14376
SWIDTH 960 0
DWIDTH 16 0
BBX 16 16 0 -2
BITMAP
3000
37FF
3030
3060
33FF
FB5B
335B
335B
335B
3337
3030
3FFF
F030
0058
01CE
0F03
ENDCHAR

STARTCHAR jisx0212_3829
ENCODING 14377
SWIDTH 960 0
DWIDTH 16 0
BBX 16 16 0 -2
BITMAP
0060
30C0
33FF
3303
33FF
FB03
3303
33FF
3000
37FF
3030
3C30
F3FF
0030
0030
0FFF
ENDCHAR

STARTCHAR jisx0212_382A
ENCODING 14378
SWIDTH 960 0
DWIDTH 16 0
BBX 16 16 0 -2
BITMAP
1800
7F7F
6363
7F63
6363
7F63
0063
6763
7C6F
6360
7F60
00C0
3FFF
00C0
00C0
7FFF
ENDCHAR

STARTCHAR jisx0212_382B
ENCODING 14379
SWIDTH 960 0
DWIDTH 16 0
BBX 16 16 0 -2
BITMAP
300F
33F8
3030
37FF
3030
FBFF
3333
33FF
3333
3333
33FF
3C30
F3FF
0030
0030
0FFF
ENDCHAR

STARTCHAR jisx0212_382C
ENCODING 14380
SWIDTH 960 0
DWIDTH 16 0
BBX 16 16 0 -2
BITMAP
3018
3016
301B
33FF
3318
FB18
33FB
331B
32EB
32AE
32AE
3AEC
F6D5
0635
0C63
18C1
ENDCHAR

STARTCHAR jisx0212_382D
ENCODING 14381
SWIDTH 960 0
DWIDTH 16 0
BBX 16 16 0 -2
BITMAP
3030
3030
37AF
3030
37AF
FC58
30CC
3387
2DFD
3186
31FE
3D86
F1FE
0186
0186
01BE
ENDCHAR

STARTCHAR jisx0212_382E
ENCODING 14382
SWIDTH 960 0
DWIDTH 16 0
BBX 16 16 0 -2
BITMAP
3000
31FF
3183
31FF
3183
FDFF
3000
37DF
30E3
3165
336D
3EDB
F165
036D
0659
01E7
ENDCHAR

STARTCHAR jisx0212_382F
ENCODING 14383
SWIDTH 960 0
DWIDTH 16 0
BBX 16 16 0 -2
BITMAP
0030
7CB6
6DB3
6B61
6DFF
6C58
5CCC
6BFF
6CC6
6DB3
5B31
6DFE
6C30
6C30
CC30
BBFF
ENDCHAR

STARTCHAR jisx0212_3830
ENCODING 14384
SWIDTH 960 0
DWIDTH 16 0
BBX 16 16 0 -2
BITMAP
0030
3333
3333
3333
33FF
FC00
37FF
3000
31FE
3186
3186
3DFE
F186
00CC
00CC
0FFF
ENDCHAR

STARTCHAR jisx0212_3831
ENCODING 14385
SWIDTH 960 0
DWIDTH 16 0
BBX 16 16 0 -2
BITMAP
0030
3030
37FF
3030
33FF
FC30
37FF
306C
32D8
31B6
30E3
3FFD
F031
01B6
0733
0C31
ENDCHAR

STARTCHAR jisx0212_3832
ENCODING 14386
SWIDTH 960 0
DWIDTH 16 0
BBX 16 16 0 -2
BITMAP
007C
300C
3186
31B3
336D
FEC6
33FB
3000
37DF
3165
336D
3EDB
F165
036D
0E59
01E7
ENDCHAR

STARTCHAR jisx0212_3833
ENCODING 14387
SWIDTH 960 0
DWIDTH 16 0
BBX 16 16 0 -2
BITMAP
0C30
FFFF
0C30
0000
FFFF
1860
1F67
337C
5663
CC63
19BF
7180
BFFE
0180
0180
FFFF
ENDCHAR

STARTCHAR jisx0212_3834
ENCODING 14388
SWIDTH 960 0
DWIDTH 16 0
BBX 16 16 0 -2
BITMAP
3187
31FC
3181
31FF
3000
FC7F
3363
337F
3363
337F
3363
3B7F
F300
03FF
00EE
0783
ENDCHAR

STARTCHAR jisx0212_3835
ENCODING 14389
SWIDTH 960 0
DWIDTH 16 0
BBX 16 16 0 -2
BITMAP
31FE
3186
3186
31FE
3000
FBFF
3303
33FF
3303
33FF
3303
3B03
F3FF
00CC
0387
0E01
ENDCHAR

STARTCHAR jisx0212_3836
ENCODING 14390
SWIDTH 960 0
DWIDTH 16 0
BBX 16 16 0 -2
BITMAP
30FC
300C
3186
3303
35FD
FC00
30FC
300C
3186
3303
37FD
3AB6
F2B6
02B6
02B6
0FFF
ENDCHAR

STARTCHAR jisx0212_3837
ENCODING 14391
SWIDTH 960 0
DWIDTH 16 0
BBX 16 16 0 -2
BITMAP
00CC
30CC
33FF
30CC
30CC
FCCC
37FF
30D8
318C
3367
3661
3B56
F36B
066D
0C6D
01E0
ENDCHAR

STARTCHAR jisx0212_3838
ENCODING 14392
SWIDTH 960 0
DWIDTH 16 0
BBX 16 16 0 -2
BITMAP
3000
33FF
3300
337E
3366
FB66
337E
3300
32EF
32AB
32AB
3AAB
F2EF
0300
03FF
0300
ENDCHAR

STARTCHAR jisx0212_3839
ENCODING 14393
SWIDTH 960 0
DWIDTH 16 0
BBX 16 16 0 -2
BITMAP
3030
37FF
3030
33FF
3333
FBFF
3333
33FF
3036
37FB
300D
3C0C
F7FF
018C
00CC
003C
ENDCHAR

STARTCHAR jisx0212_383A
ENCODING 14394
SWIDTH 960 0
DWIDTH 16 0
BBX 16 16 0 -2
BITMAP
3030
33FF
3333
37FF
3333
FBFF
3030
33FF
3333
33FF
3060
3FFF
F18C
03D8
006E
0FC3
ENDCHAR

STARTCHAR jisx0212_383B
ENCODING 14395
SWIDTH 960 0
DWIDTH 16 0
BBX 16 16 0 -2
BITMAP
3000
33FF
3303
33FF
3300
FAD7
3318
32D7
3300
32D8
32FF
3AD8
F598
05FF
0C18
1818
ENDCHAR

STARTCHAR jisx0212_383C
ENCODING 14396
SWIDTH 960 0
DWIDTH 16 0
BBX 16 16 0 -2
BITMAP
3000
31FF
3183
317B
3183
FD7B
3000
33FF
336D
33FF
3000
3BFF
F0C6
006C
007C
0FC7
ENDCHAR

STARTCHAR jisx0212_383D
ENCODING 14397
SWIDTH 960 0
DWIDTH 16 0
BBX 16 16 0 -2
BITMAP
3030
3030
33FF
3186
30CC
FBFF
3000
33FF
3303
33FF
3303
3BFF
F030
07FF
0030
0030
ENDCHAR

STARTCHAR jisx0212_383E
ENCODING 14398
SWIDTH 960 0
DWIDTH 16 0
BBX 16 16 0 -2
BITMAP
0366
3366
3366
2FF6
3366
FBDF
3365
33E5
3365
2FF5
3565
3D55
F77D
060D
07F9
0637
ENDCHAR

STARTCHAR jisx0212_383F
ENCODING 14399
SWIDTH 960 0
DWIDTH 16 0
BBX 16 16 0 -2
BITMAP
3030
37FF
3630
35FE
3636
FFFF
3636
35FE
3630
35FF
35B3
3DFF
F5B3
0DFF
0DB3
19AF
ENDCHAR

STARTCHAR jisx0212_3840
ENCODING 14400
SWIDTH 960 0
DWIDTH 16 0
BBX 16 16 0 -2
BITMAP
0C30
0C30
7FB0
0CFE
FFB6
32B6
FF76
0C35
7F55
0CDB
0B81
0180
7FFF
0180
0180
FFFF
ENDCHAR

STARTCHAR jisx0212_3841
ENCODING 14401
SWIDTH 960 0
DWIDTH 16 0
BBX 16 16 0 -2
BITMAP
0030
3030
33FF
3300
3336
FB36
33FF
3336
3336
3336
333E
3B00
F6AB
06AB
0DAD
1B2D
ENDCHAR

STARTCHAR jisx0212_3842
ENCODING 14402
SWIDTH 960 0
DWIDTH 16 0
BBX 16 16 0 -2
BITMAP
1800
7F7F
636C
7F6C
636C
7EFF
001C
671C
7C2D
636D
7ECF
00C0
3FFF
00C0
00C0
7FFF
ENDCHAR

STARTCHAR jisx0212_3843
ENCODING 14403
SWIDTH 960 0
DWIDTH 16 0
BBX 16 16 0 -2
BITMAP
0C30
6C7F
6CE3
6BB6
7CDC
6C76
0DC6
FBFF
6CC6
6C66
6CDE
C0C0
3FFF
00C0
00C0
FFFF
ENDCHAR

STARTCHAR jisx0212_3844
ENCODING 14404
SWIDTH 960 0
DWIDTH 16 0
BBX 16 16 0 -2
BITMAP
30CC
30CC
37FF
30CC
30FC
FC30
33FF
3333
3333
33FF
3030
3BFF
F030
03FF
0030
07FF
ENDCHAR

STARTCHAR jisx0212_3845
ENCODING 14405
SWIDTH 960 0
DWIDTH 16 0
BBX 16 16 0 -2
BITMAP
0030
3333
3333
3333
33FF
FCCC
3198
31FF
3398
35FF
3198
3DFF
F198
0198
01FF
0180
ENDCHAR

STARTCHAR jisx0212_3846
ENCODING 14406
SWIDTH 960 0
DWIDTH 16 0
BBX 16 16 0 -2
BITMAP
0070
30D8
318C
3307
36FD
FC00
31FE
3186
31FE
3000
33FF
3B33
F3FF
0333
03FF
0303
ENDCHAR

STARTCHAR jisx0212_3847
ENCODING 14407
SWIDTH 960 0
DWIDTH 16 0
BBX 16 16 0 -2
BITMAP
0030
3030
33FF
3030
37FF
FD86
37DF
3186
31E6
37BF
3000
3FFF
F0D8
00D9
0399
0E0F
ENDCHAR

STARTCHAR jisx0212_3848
ENCODING 14408
SWIDTH 960 0
DWIDTH 16 0
BBX 16 16 0 -2
BITMAP
3000
33DF
335B
335B
33DF
FC00
33FF
3333
33FF
3333
33FF
3C30
F030
07FF
0030
0030
ENDCHAR

STARTCHAR jisx0212_3849
ENCODING 14409
SWIDTH 960 0
DWIDTH 16 0
BBX 16 16 0 -2
BITMAP
3186
30CC
37FF
3030
33FF
FC30
37FF
31B6
30AC
37FF
3000
3BFF
F303
0303
03FF
0303
ENDCHAR

STARTCHAR jisx0212_384A
ENCODING 14410
SWIDTH 960 0
DWIDTH 16 0
BBX 16 16 0 -2
BITMAP
3033
37D6
30DD
358B
3387
FFBD
2CB6
30B5
37B7
3660
363F
3FC3
F6B6
00CE
00DB
0771
ENDCHAR

STARTCHAR jisx0212_384B
ENCODING 14411
SWIDTH 960 0
DWIDTH 16 0
BBX 16 16 0 -2
BITMAP
300F
37F8
3033
31B6
30AC
FFFF
3078
30AC
33B7
3601
33FF
3B33
F3FF
0333
03FF
0303
ENDCHAR

STARTCHAR jisx0212_384C
ENCODING 14412
SWIDTH 960 0
DWIDTH 16 0
BBX 16 16 0 -2
BITMAP
018C
318C
318C
2FEC
301F
FFDB
365B
37DB
300B
37EB
30CB
3D86
F1F6
0F8B
019B
07B1
ENDCHAR

STARTCHAR jisx0212_384D
ENCODING 14413
SWIDTH 960 0
DWIDTH 16 0
BBX 16 16 0 -2
BITMAP
3018
37DB
3056
36CD
32CB
FD86
33FB
3601
2DFE
3186
3186
3DFE
F18C
00CC
00D8
0FFF
ENDCHAR

STARTCHAR jisx0212_384E
ENCODING 14414
SWIDTH 960 0
DWIDTH 16 0
BBX 16 16 0 -2
BITMAP
3180
3180
33FF
3556
3156
FD56
37FF
3156
3156
3156
3156
3FFF
F000
02DB
066D
0C6D
ENDCHAR

STARTCHAR jisx0212_384F
ENCODING 14415
SWIDTH 960 0
DWIDTH 16 0
BBX 16 16 0 -2
BITMAP
300C
37EC
336C
FDBF
318C
77EE
6DBE
6D5B
B1AB
B16D
378C
0180
3FFE
0180
0180
FFFF
ENDCHAR

STARTCHAR jisx0212_3850
ENCODING 14416
SWIDTH 960 0
DWIDTH 16 0
BBX 16 16 0 -2
BITMAP
0C00
FFBE
0C36
7FB5
6D67
7FC0
6D7F
FFB3
0C16
6D9E
7F73
0180
0180
3FFE
0180
FFFF
ENDCHAR

STARTCHAR jisx0212_3851
ENCODING 14417
SWIDTH 960 0
DWIDTH 16 0
BBX 16 16 0 -2
BITMAP
0000
7FBE
61B6
7FB5
5667
7F80
567F
7FB3
5616
DB1E
B173
0180
3FFE
0180
0180
FFFF
ENDCHAR

STARTCHAR jisx0212_3852
ENCODING 14418
SWIDTH 960 0
DWIDTH 16 0
BBX 16 16 0 -2
BITMAP
3030
37FF
3000
33FF
32CB
FAFB
3303
33FF
300E
33F8
3030
3FFF
F078
00AC
03B7
0E31
ENDCHAR

STARTCHAR jisx0212_3853
ENCODING 14419
SWIDTH 960 0
DWIDTH 16 0
BBX 16 16 0 -2
BITMAP
6301
2FDF
0318
CFD8
6B5F
0FDB
2B5B
2FDB
631B
5FF3
C333
00C0
3FFF
00C0
00C0
FFFF
ENDCHAR

STARTCHAR jisx0212_3854
ENCODING 14420
SWIDTH 960 0
DWIDTH 16 0
BBX 16 16 0 -2
BITMAP
300F
37F8
3030
37FF
3030
FBFF
33AB
32BB
33FF
3030
33FF
3C30
F7FF
06DB
066D
0C6D
ENDCHAR

STARTCHAR jisx0212_3855
ENCODING 14421
SWIDTH 960 0
DWIDTH 16 0
BBX 16 16 0 -2
BITMAP
FFFF
19B8
718E
FFFF
5556
6DB6
5556
5556
6DB6
5656
618E
0180
7FFF
0180
0180
FFFF
ENDCHAR

STARTCHAR jisx0212_3856
ENCODING 14422
SWIDTH 960 0
DWIDTH 16 0
BBX 16 16 0 -2
BITMAP
30CC
30CC
37FF
30CC
3030
FBFF
3030
37FF
306C
30C6
33FB
3C01
F3FF
035B
035B
0FFF
ENDCHAR

STARTCHAR jisx0212_3857
ENCODING 14423
SWIDTH 960 0
DWIDTH 16 0
BBX 16 16 0 -2
BITMAP
3030
37FF
3030
33FF
3000
FBFF
3001
31FD
3030
37FF
3003
3FBF
F6B3
06DB
07C3
060F
ENDCHAR

STARTCHAR jisx0212_3858
ENCODING 14424
SWIDTH 960 0
DWIDTH 16 0
BBX 16 16 0 -2
BITMAP
33FF
3030
37FF
3631
35AD
FC30
33AF
3030
37FF
3060
33FF
3B6D
F36D
036D
036D
0307
ENDCHAR

STARTCHAR jisx0212_3859
ENCODING 14425
SWIDTH 960 0
DWIDTH 16 0
BBX 16 16 0 -2
BITMAP
3030
303F
3030
33FF
3331
FB3B
32F3
333F
3300
32FF
32DB
3EFF
F6DB
05FF
0D5B
1BFF
ENDCHAR

STARTCHAR jisx0212_385A
ENCODING 14426
SWIDTH 960 0
DWIDTH 16 0
BBX 16 16 0 -2
BITMAP
0018
3618
337F
305B
367F
FB18
31FF
3063
2F7F
3363
337F
3B63
F37F
0336
0563
0CFF
ENDCHAR

STARTCHAR jisx0212_385B
ENCODING 14427
SWIDTH 960 0
DWIDTH 16 0
BBX 16 16 0 -2
BITMAP
0C00
0F7F
0C33
FFB3
C0D6
DECC
6196
DEF3
330C
FF8C
630C
7F7F
630C
7F0C
630C
7EFF
ENDCHAR

STARTCHAR jisx0212_385C
ENCODING 14428
SWIDTH 960 0
DWIDTH 16 0
BBX 16 16 0 -2
BITMAP
3000
37FF
3633
35DE
36C6
FFFF
35EE
35AF
36D5
36B6
3618
3ED8
F6DF
0CD8
0CD8
17FF
ENDCHAR

STARTCHAR jisx0212_385D
ENCODING 14429
SWIDTH 960 0
DWIDTH 16 0
BBX 16 16 0 -2
BITMAP
33FF
3030
37FF
3631
35AD
FC30
33AF
3360
2FEF
336D
37EF
3DAD
F7EF
0199
1FF9
01B7
ENDCHAR

STARTCHAR jisx0212_385E
ENCODING 14430
SWIDTH 960 0
DWIDTH 16 0
BBX 16 16 0 -2
BITMAP
0180
0180
FFFF
0180
0180
7FFE
0000
FFFF
C003
BFFB
0000
0FF0
0C30
0C33
1833
F01F
ENDCHAR

STARTCHAR jisx0212_385F
ENCODING 14431
SWIDTH 960 0
DWIDTH 16 0
BBX 16 16 0 -2
BITMAP
0300
0600
0FF8
1618
7330
01E0
0770
1CDE
F0C3
1FFC
18C0
18C0
FFFF
00C0
00C0
00C0
ENDCHAR

STARTCHAR jisx0212_3860
ENCODING 14432
SWIDTH 960 0
DWIDTH 16 0
BBX 16 16 0 -2
BITMAP
0300
0600
0FF8
1630
7360
C1C0
0770
3D9E
E183
3FFE
0180
1FFC
0180
FFFF
0180
0180
ENDCHAR

STARTCHAR jisx0212_3861
ENCODING 14433
SWIDTH 960 0
DWIDTH 16 0
BBX 16 16 0 -2
BITMAP
0300
0630
0618
0CEC
7F66
0661
0661
0DBF
3B00
E7F8
0E18
1B30
7160
01E0
0F3C
F807
ENDCHAR

STARTCHAR jisx0212_3862
ENCODING 14434
SWIDTH 960 0
DWIDTH 16 0
BBX 16 16 0 -2
BITMAP
0180
0180
7FFE
0180
0180
FFFF
0660
0663
0B3F
3B00
E7F8
0E18
3B30
61E0
0F3C
F807
ENDCHAR

STARTCHAR jisx0212_3863
ENCODING 14435
SWIDTH 960 0
DWIDTH 16 0
BBX 16 16 0 -2
BITMAP
FFFF
0180
1BDF
5B5B
5FDB
5B5F
5BD8
5F59
F3DF
0760
1B63
77FF
0B18
39B0
01F0
FF1F
ENDCHAR

STARTCHAR jisx0212_3864
ENCODING 14436
SWIDTH 960 0
DWIDTH 16 0
BBX 16 16 0 -2
BITMAP
17F0
718F
67F3
6633
77EF
6633
67F3
762F
07F0
0E61
3B61
E7FF
0B18
39B0
01F0
FF1F
ENDCHAR

STARTCHAR jisx0212_3865
ENCODING 14437
SWIDTH 960 0
DWIDTH 16 0
BBX 16 16 0 -2
BITMAP
0C18
0630
FFFF
1B60
5BDF
5F5B
5BDF
5B58
5FD9
F65F
1B63
77FF
0B18
39B0
01F0
FF1F
ENDCHAR

STARTCHAR jisx0212_3866
ENCODING 14438
SWIDTH 960 0
DWIDTH 16 0
BBX 16 16 0 -2
BITMAP
0360
7F7F
0360
FFFF
1B60
5BDF
5F5B
5BDF
5B58
5FD9
F75F
1B63
77FF
1B18
01F0
FF1F
ENDCHAR

STARTCHAR jisx0212_3867
ENCODING 14439
SWIDTH 960 0
DWIDTH 16 0
BBX 16 16 0 -2
BITMAP
3018
3018
30D8
3ED8
66FF
66D8
6598
7598
DB18
CCFF
0C18
1818
1818
3018
6018
C3FF
ENDCHAR

STARTCHAR jisx0212_3868
ENCODING 14440
SWIDTH 960 0
DWIDTH 16 0
BBX 16 16 0 -2
BITMAP
1818
1F18
3318
75FF
D618
0C18
1818
78FF
DF00
3300
66FF
B6C3
1CC3
18C3
70FF
C0C3
ENDCHAR

STARTCHAR jisx0212_3869
ENCODING 14441
SWIDTH 960 0
DWIDTH 16 0
BBX 16 16 0 -2
BITMAP
0180
FFFF
060C
7FF6
0003
3FFE
3666
3FFE
0000
FFFF
C301
C7FD
1E18
7370
01C0
7F00
ENDCHAR

STARTCHAR jisx0212_386A
ENCODING 14442
SWIDTH 960 0
DWIDTH 16 0
BBX 16 16 0 -2
BITMAP
0300
07FC
1C18
7670
03C0
7EC0
00C0
7FFF
60C1
5FFD
18C6
1FFE
18C6
1FFE
0E0E
7803
ENDCHAR

STARTCHAR jisx0212_386B
ENCODING 14443
SWIDTH 960 0
DWIDTH 16 0
BBX 16 16 0 -2
BITMAP
0C00
0C00
0C00
1800
1800
1FC0
30C0
30C0
0180
FFFF
0180
02C0
0660
0C30
381C
E007
ENDCHAR

STARTCHAR jisx0212_386C
ENCODING 14444
SWIDTH 960 0
DWIDTH 16 0
BBX 16 16 0 -2
BITMAP
0300
0300
0600
FFFF
0C60
0C30
1B18
330C
6307
BFFD
030C
060C
060C
0C0C
3818
E0F0
ENDCHAR

STARTCHAR jisx0212_386D
ENCODING 14445
SWIDTH 960 0
DWIDTH 16 0
BBX 16 16 0 -2
BITMAP
0180
0180
0300
FFFF
0360
0630
0C18
180C
7637
C631
0630
0630
0C30
0C30
1830
7030
ENDCHAR

STARTCHAR jisx0212_386E
ENCODING 14446
SWIDTH 960 0
DWIDTH 16 0
BBX 16 16 0 -2
BITMAP
0180
0180
0300
FFFF
06C0
0C60
0C30
1818
300E
6003
DFF8
0000
0000
0000
0000
7FFF
ENDCHAR

STARTCHAR jisx0212_386F
ENCODING 14447
SWIDTH 960 0
DWIDTH 16 0
BBX 16 16 0 -2
BITMAP
0180
0180
0300
FFFF
0660
0C30
0C18
198C
3187
6181
CDB0
0D98
198C
3186
E186
0780
ENDCHAR

STARTCHAR jisx0212_3870
ENCODING 14448
SWIDTH 960 0
DWIDTH 16 0
BBX 16 16 0 -2
BITMAP
1818
1818
1818
1818
1818
FF7F
1818
1818
1818
1C2C
2C2C
362C
3666
6366
60C3
C181
ENDCHAR

STARTCHAR jisx0212_3871
ENCODING 14449
SWIDTH 960 0
DWIDTH 16 0
BBX 16 16 0 -2
BITMAP
0180
0300
FFFF
0660
0C30
1818
3FFE
718B
B18C
318C
3FFC
300C
3000
3003
3003
1FFF
ENDCHAR

STARTCHAR jisx0212_3872
ENCODING 14450
SWIDTH 960 0
DWIDTH 16 0
BBX 16 16 0 -2
BITMAP
0180
0300
7FFF
0630
0C18
18EC
7FC7
D8C1
18C0
1FFE
1860
1860
19B1
1F19
700D
1FF3
ENDCHAR

STARTCHAR jisx0212_3873
ENCODING 14451
SWIDTH 960 0
DWIDTH 16 0
BBX 16 16 0 -2
BITMAP
0180
0300
FFFF
0630
0C18
180C
7FF7
D801
1800
1FFC
180C
180C
1FFC
1800
1800
FFFF
ENDCHAR

STARTCHAR jisx0212_3874
ENCODING 14452
SWIDTH 960 0
DWIDTH 16 0
BBX 16 16 0 -2
BITMAP
0180
0300
FFFF
0630
0D98
198C
7FFF
C301
1660
0CCC
0598
0730
1C60
71B0
071C
7C07
ENDCHAR

STARTCHAR jisx0212_3875
ENCODING 14453
SWIDTH 960 0
DWIDTH 16 0
BBX 16 16 0 -2
BITMAP
0180
0300
FFFF
0660
0DB0
1B18
77EE
CCC3
15B0
737F
06C6
1DEC
7738
0C58
01CC
1F00
ENDCHAR

STARTCHAR jisx0212_3876
ENCODING 14454
SWIDTH 960 0
DWIDTH 16 0
BBX 16 16 0 -2
BITMAP
0180
0330
061C
3FF6
0300
FFFF
0630
0D98
3FFE
D98B
1FFC
198C
1FFC
1983
0183
00FF
ENDCHAR

STARTCHAR jisx0212_3877
ENCODING 14455
SWIDTH 960 0
DWIDTH 16 0
BBX 16 16 0 -2
BITMAP
0180
0300
FFFF
0630
0C18
380E
FEFF
66C6
66C6
7EFE
66C6
66C6
7EFE
60C6
0186
071E
ENDCHAR

STARTCHAR jisx0212_3878
ENCODING 14456
SWIDTH 960 0
DWIDTH 16 0
BBX 16 16 0 -2
BITMAP
0180
0300
FFFF
0C30
1818
7FFE
B187
2FF6
3186
3FF6
3186
2FF6
2C36
6FF6
6C06
C03E
ENDCHAR

STARTCHAR jisx0212_3879
ENCODING 14457
SWIDTH 960 0
DWIDTH 16 0
BBX 16 16 0 -2
BITMAP
0180
0300
FFFF
0630
0C18
166C
6CC7
DFFD
18C0
38C0
5FFC
D8C0
1FFC
18C0
18C0
1FFF
ENDCHAR

STARTCHAR jisx0212_387A
ENCODING 14458
SWIDTH 960 0
DWIDTH 16 0
BBX 16 16 0 -2
BITMAP
0180
0300
FFFF
0C30
181C
7007
BF7D
3366
3366
3B76
376E
3366
3B76
66CE
62C6
CF9E
ENDCHAR

STARTCHAR jisx0212_387B
ENCODING 14459
SWIDTH 960 0
DWIDTH 16 0
BBX 16 16 0 -2
BITMAP
FFFF
0180
1FFC
180C
1FFC
180C
1FFC
180C
1FFC
0600
FFFF
180C
7637
C631
0C30
3830
ENDCHAR

STARTCHAR jisx0212_387C
ENCODING 14460
SWIDTH 960 0
DWIDTH 16 0
BBX 16 16 0 -2
BITMAP
3FFE
0180
0300
FFFF
0630
1C1C
FEFF
66C6
66C6
7EFE
66C6
66C6
7EFE
60C6
0186
071E
ENDCHAR

STARTCHAR jisx0212_387D
ENCODING 14461
SWIDTH 960 0
DWIDTH 16 0
BBX 16 16 0 -2
BITMAP
0180
0300
FFFF
0630
0C18
380E
E6B7
36B6
17BE
C606
57FE
1606
37BE
2CB6
6CB6
D8B6
ENDCHAR

STARTCHAR jisx0212_387E
ENCODING 14462
SWIDTH 960 0
DWIDTH 16 0
BBX 16 16 0 -2
BITMAP
0180
0180
FFFF
0180
0180
FF7F
1998
7DBF
65B3
7DBF
65B3
7EBF
0360
0630
1C1C
F007
ENDCHAR

STARTCHAR jisx0212_3921
ENCODING 14625
SWIDTH 960 0
DWIDTH 16 0
BBX 16 16 0 -2
BITMAP
0300
FFFF
0630
1D9C
EDF7
0D80
7FFF
006C
3FFF
3060
3FB3
3636
2EDD
559D
6775
DDC3
ENDCHAR

STARTCHAR jisx0212_3922
ENCODING 14626
SWIDTH 960 0
DWIDTH 16 0
BBX 16 16 0 -2
BITMAP
1800
19EF
FFAD
2DEF
6600
DAFF
7EDB
16FF
FFDB
1CDB
36FF
FF18
63FF
7F18
6318
7F18
ENDCHAR

STARTCHAR jisx0212_3923
ENCODING 14627
SWIDTH 960 0
DWIDTH 16 0
BBX 16 16 0 -2
BITMAP
1800
1800
33FF
3018
FE18
3618
6618
6618
6618
CC18
EC18
DC18
1618
3318
6018
C0F8
ENDCHAR

STARTCHAR jisx0212_3924
ENCODING 14628
SWIDTH 960 0
DWIDTH 16 0
BBX 16 16 0 -2
BITMAP
1800
1BFE
3066
3066
FE66
3666
666C
666F
666D
CCC1
ECC1
D8C1
1D81
3583
6303
C63E
ENDCHAR

STARTCHAR jisx0212_3925
ENCODING 14629
SWIDTH 960 0
DWIDTH 16 0
BBX 16 16 0 -2
BITMAP
3030
31B0
31B0
31B7
FDBB
6DF3
6BB3
6DB3
CDB3
CDB3
EDAF
B9B0
1D80
3581
6181
C0FF
ENDCHAR

STARTCHAR jisx0212_3926
ENCODING 14630
SWIDTH 960 0
DWIDTH 16 0
BBX 16 16 0 -2
BITMAP
1818
1818
3030
3030
FDFF
3636
6666
6666
6666
CCC6
ECEC
DCAC
161C
3336
60E3
C381
ENDCHAR

STARTCHAR jisx0212_3927
ENCODING 14631
SWIDTH 960 0
DWIDTH 16 0
BBX 16 16 0 -2
BITMAP
1807
181C
33F0
3030
FE30
3630
6630
67FF
6630
CC30
EC30
DC30
1631
3331
6031
C01F
ENDCHAR

STARTCHAR jisx0212_3928
ENCODING 14632
SWIDTH 960 0
DWIDTH 16 0
BBX 16 16 0 -2
BITMAP
1818
1818
3018
3018
FEFF
3618
6618
6618
65FF
CC18
EC18
DC2C
162C
3366
60C3
C381
ENDCHAR

STARTCHAR jisx0212_3929
ENCODING 14633
SWIDTH 960 0
DWIDTH 16 0
BBX 16 16 0 -2
BITMAP
1866
1866
3066
3066
FDFF
3666
6666
6666
6666
CBFF
EC66
D866
1CC6
36C6
6186
C306
ENDCHAR

STARTCHAR jisx0212_392A
ENCODING 14634
SWIDTH 960 0
DWIDTH 16 0
BBX 16 16 0 -2
BITMAP
1818
182C
302C
3066
FE66
36C3
6581
6666
6666
CC66
EC66
D866
1CC6
36C6
6186
C306
ENDCHAR

STARTCHAR jisx0212_392B
ENCODING 14635
SWIDTH 960 0
DWIDTH 16 0
BBX 16 16 0 -2
BITMAP
1800
1803
30FE
30C0
FEC0
36FF
66C1
66C1
66C1
CCFF
ECC1
D8C0
1D80
3580
6300
C600
ENDCHAR

STARTCHAR jisx0212_392C
ENCODING 14636
SWIDTH 960 0
DWIDTH 16 0
BBX 16 16 0 -2
BITMAP
1818
1818
3018
3018
FDFF
3599
6599
6599
6599
CDFF
ED99
DC18
1618
3318
6018
C018
ENDCHAR

STARTCHAR jisx0212_392D
ENCODING 14637
SWIDTH 960 0
DWIDTH 16 0
BBX 16 16 0 -2
BITMAP
1830
1858
3058
30CC
FECC
3586
66FB
6601
6600
CDFE
EC06
DC06
160C
330C
6018
C018
ENDCHAR

STARTCHAR jisx0212_392E
ENCODING 14638
SWIDTH 960 0
DWIDTH 16 0
BBX 16 16 0 -2
BITMAP
1FFC
180C
180C
1FFC
180C
180C
1FFC
198C
0300
FFFF
0618
0C18
17B0
00F0
079C
7C07
ENDCHAR

STARTCHAR jisx0212_392F
ENCODING 14639
SWIDTH 960 0
DWIDTH 16 0
BBX 16 16 0 -2
BITMAP
1800
19FF
3003
3066
FE2C
3618
65FF
6619
661B
CC1B
EC16
DC18
1618
3318
6018
C0F8
ENDCHAR

STARTCHAR jisx0212_3930
ENCODING 14640
SWIDTH 960 0
DWIDTH 16 0
BBX 16 16 0 -2
BITMAP
1800
19FF
3000
3000
FE00
3600
67FF
666C
666C
CC6C
EC6C
D86C
1CCD
36CD
618D
C707
ENDCHAR

STARTCHAR jisx0212_3931
ENCODING 14641
SWIDTH 960 0
DWIDTH 16 0
BBX 16 16 0 -2
BITMAP
1860
186C
3066
3060
FDFF
3660
6663
6663
66B3
CCB6
ECD6
DD8C
159C
3336
6663
CDC1
ENDCHAR

STARTCHAR jisx0212_3932
ENCODING 14642
SWIDTH 960 0
DWIDTH 16 0
BBX 16 16 0 -2
BITMAP
1800
19FF
3183
3183
FD83
35FF
6580
65B0
65B3
CDB6
EDBC
D9B0
1DB1
3731
6331
C61F
ENDCHAR

STARTCHAR jisx0212_3933
ENCODING 14643
SWIDTH 960 0
DWIDTH 16 0
BBX 16 16 0 -2
BITMAP
1818
1818
3018
3018
FDFF
3599
6599
6599
6599
CDFF
ED99
D999
1D99
3599
61FF
C181
ENDCHAR

STARTCHAR jisx0212_3934
ENCODING 14644
SWIDTH 960 0
DWIDTH 16 0
BBX 16 16 0 -2
BITMAP
1860
1860
30C0
30FF
FEB0
35B0
65B0
673F
6630
CC30
EC30
DC3F
1630
3330
6030
C030
ENDCHAR

STARTCHAR jisx0212_3935
ENCODING 14645
SWIDTH 960 0
DWIDTH 16 0
BBX 16 16 0 -2
BITMAP
1860
1860
30C0
30FF
FD81
359B
6716
66D6
66DB
CCDB
ECDB
D8D9
1D99
3599
6318
C0F8
ENDCHAR

STARTCHAR jisx0212_3936
ENCODING 14646
SWIDTH 960 0
DWIDTH 16 0
BBX 16 16 0 -2
BITMAP
1818
1818
30D8
30D8
FEFF
3598
6598
6618
65FF
CC18
EC18
DC2C
162C
3366
60C3
C381
ENDCHAR

STARTCHAR jisx0212_3937
ENCODING 14647
SWIDTH 960 0
DWIDTH 16 0
BBX 16 16 0 -2
BITMAP
1818
1818
3018
33FF
FE18
3618
6618
65FF
663C
CC3C
EC56
DC56
16DB
3199
6318
C018
ENDCHAR

STARTCHAR jisx0212_3938
ENCODING 14648
SWIDTH 960 0
DWIDTH 16 0
BBX 16 16 0 -2
BITMAP
1860
1833
301B
3066
FE66
366C
666C
6556
655B
CD73
EB71
DB61
1CE6
3566
6366
C63E
ENDCHAR

STARTCHAR jisx0212_3939
ENCODING 14649
SWIDTH 960 0
DWIDTH 16 0
BBX 16 16 0 -2
BITMAP
1860
1860
30C0
30FF
FD81
3581
66FD
66CD
66CD
CCCD
ECCD
D8FD
1CC1
3603
6003
C03E
ENDCHAR

STARTCHAR jisx0212_393A
ENCODING 14650
SWIDTH 960 0
DWIDTH 16 0
BBX 16 16 0 -2
BITMAP
1800
1BFF
3018
3018
FE18
36D8
66D8
66DF
66D8
CCD8
ECD8
D8D8
1CD8
36D8
60D8
C7FF
ENDCHAR

ENDFONT
